{"glyphs":{":":{"x_min":0,"x_max":286,"ha":286,"o":"m 76 440 b 76 439 76 439 77 439 l 78 438 l 70 431 b 66 427 62 422 60 419 b 59 417 58 415 56 412 b 53 410 52 407 52 404 b 53 402 52 398 49 396 l 49 392 b 50 388 50 384 51 382 b 51 378 51 375 52 372 b 52 369 52 368 53 368 b 55 365 57 362 58 360 b 58 358 60 355 62 354 b 63 354 64 353 65 352 b 68 348 72 345 76 345 b 77 345 78 345 78 344 b 78 343 79 342 80 342 b 84 341 89 339 93 337 b 102 332 112 324 126 334 b 132 337 137 339 143 342 b 146 343 147 345 148 346 l 160 354 b 164 357 168 360 171 362 b 174 366 179 370 178 377 b 178 379 178 382 179 383 b 180 385 180 388 180 390 b 180 396 179 398 178 404 b 178 405 178 406 179 408 b 179 409 179 411 178 412 b 177 414 176 418 175 421 b 174 423 172 426 170 427 b 169 428 169 429 169 431 b 168 432 168 433 168 434 b 164 440 159 444 152 448 b 149 449 148 451 148 453 b 147 455 146 457 145 458 b 143 458 142 460 142 461 b 140 463 138 465 135 465 b 134 465 132 466 132 467 b 119 472 108 468 98 461 b 96 459 92 458 90 457 l 82 452 b 81 452 80 451 80 449 b 79 448 78 446 76 440 z m 153 188 b 151 193 150 196 149 197 b 149 198 148 199 148 199 l 139 204 b 137 205 133 207 131 208 b 121 216 110 220 98 214 b 97 213 95 212 94 212 b 92 212 90 211 88 208 b 88 208 86 206 84 205 b 83 204 82 202 82 201 b 81 198 80 197 78 196 b 70 192 65 188 62 182 b 61 181 61 179 61 178 b 60 177 60 175 59 174 b 57 173 55 171 54 168 b 53 165 52 162 51 159 b 50 158 50 157 51 155 l 51 152 b 50 146 49 143 49 138 b 49 135 49 132 50 131 b 51 129 51 127 51 124 b 50 121 51 118 53 116 b 57 112 60 108 69 102 l 82 93 b 82 92 83 91 86 90 b 92 87 98 84 103 82 b 117 72 127 80 136 84 b 140 87 145 88 149 90 b 150 90 151 91 152 92 b 152 92 152 92 153 92 b 158 92 162 95 164 100 b 165 101 166 102 167 102 b 169 102 172 105 172 108 b 173 110 174 112 176 115 b 177 116 178 117 178 119 b 178 122 178 126 179 129 b 179 132 179 135 180 139 l 180 143 b 178 146 176 149 177 152 b 178 154 176 158 173 160 b 172 162 171 164 170 167 b 168 170 163 174 159 178 b 157 181 154 183 152 186 l 152 187 z"},"$":{"x_min":0,"x_max":661,"ha":661,"o":"m 408 757 b 407 759 406 760 406 760 b 407 762 407 764 408 766 b 408 767 408 768 408 771 b 411 777 414 784 415 790 b 418 798 422 803 428 809 b 440 819 443 842 432 846 b 427 848 422 851 418 856 b 414 861 409 863 403 862 b 402 862 402 862 402 863 b 402 864 402 864 401 864 b 399 866 397 868 393 868 b 387 871 378 875 368 882 b 358 888 348 892 338 894 b 328 897 323 886 320 880 b 318 877 317 873 315 871 b 317 871 318 870 318 869 l 318 854 b 318 852 318 850 319 848 b 319 846 319 844 319 842 l 321 842 b 322 841 322 841 322 841 l 318 833 b 316 831 314 829 313 827 b 314 823 315 816 314 809 b 313 802 312 793 309 790 b 310 788 310 787 310 785 l 310 780 b 309 774 308 769 308 762 b 308 757 308 752 308 747 b 309 742 309 736 310 730 b 297 732 285 729 276 723 b 275 722 273 722 272 722 b 272 722 270 722 268 721 b 263 720 258 719 254 718 l 238 716 b 241 713 244 712 248 709 b 248 709 248 708 247 707 b 244 708 242 708 242 709 l 237 712 b 234 710 232 708 229 705 b 224 699 214 697 205 694 b 196 691 184 688 172 686 l 153 681 b 152 681 150 680 148 678 b 143 676 138 673 134 671 b 130 668 125 665 120 662 b 113 660 108 659 102 650 b 98 644 86 642 78 641 b 69 639 58 632 48 622 b 42 618 37 612 31 608 b 15 592 22 572 30 559 b 38 547 47 541 54 536 b 58 533 61 530 65 528 b 70 525 75 522 80 518 l 95 508 b 99 505 104 502 109 500 b 113 498 118 495 122 492 b 140 474 161 465 183 455 b 192 451 201 446 208 440 b 216 434 225 430 234 427 b 242 424 246 416 242 408 b 242 404 242 401 242 398 b 242 394 241 391 239 388 b 238 384 238 380 238 375 b 238 370 238 365 237 361 b 237 358 238 355 239 352 l 244 344 b 247 338 246 332 238 326 b 241 325 244 323 248 322 b 246 320 244 318 242 318 b 230 312 228 302 235 288 b 242 276 241 272 228 269 b 228 269 228 269 227 268 b 227 264 227 261 228 257 b 228 252 225 248 221 246 b 220 245 219 244 220 243 b 221 242 221 241 221 240 b 222 236 223 232 224 228 b 227 221 228 213 225 208 b 224 206 225 202 228 200 b 228 198 229 195 229 192 l 229 182 b 229 179 228 176 228 170 l 225 163 b 224 159 221 151 223 148 b 228 138 226 131 217 126 b 214 123 211 122 208 121 b 205 120 202 118 199 117 b 188 109 177 109 163 108 b 162 108 160 108 158 108 b 157 108 155 108 154 108 b 147 107 139 105 132 104 b 126 103 118 102 111 101 b 108 101 102 103 99 108 b 96 112 94 116 97 119 b 98 123 99 128 100 132 b 101 136 103 138 108 139 b 108 139 109 140 111 142 l 121 160 b 120 161 120 162 119 162 l 117 165 b 121 168 124 171 128 175 l 145 192 b 146 193 147 194 147 195 b 146 199 147 202 149 205 b 152 207 154 208 157 211 b 161 218 167 224 172 230 l 190 248 b 192 250 194 252 197 255 b 199 257 201 258 202 259 b 199 266 198 272 195 278 b 191 288 185 291 178 289 b 159 287 142 288 131 273 b 130 272 129 272 128 272 b 128 272 126 272 125 271 b 119 268 113 266 108 264 b 102 262 96 259 91 255 b 85 251 79 247 73 242 l 55 230 b 51 226 46 222 42 220 b 37 218 32 212 30 207 l 29 207 b 20 198 10 188 1 181 l -6 173 b -8 171 -11 168 -15 167 b -21 164 -21 159 -18 155 b -18 152 -17 151 -17 150 b -17 148 -17 146 -18 143 b -22 132 -20 132 -8 124 l 3 113 b 6 112 8 111 9 109 b 10 107 12 106 15 105 b 22 102 31 100 38 96 b 46 92 54 88 62 84 b 66 82 71 80 75 78 b 79 75 84 72 89 70 b 102 64 116 62 132 58 b 142 55 153 52 163 51 b 172 50 182 49 192 49 l 218 49 b 228 49 229 45 227 38 b 226 36 225 34 226 32 l 226 25 b 226 21 226 18 227 17 b 228 11 228 6 228 1 b 227 -5 228 -10 229 -15 b 233 -26 237 -37 238 -46 b 238 -48 238 -49 239 -50 b 244 -52 248 -57 248 -61 l 251 -72 b 252 -78 254 -85 255 -91 b 256 -97 259 -102 265 -107 b 266 -107 266 -108 266 -108 b 265 -109 265 -110 266 -111 l 271 -121 b 273 -128 277 -134 284 -134 b 288 -135 291 -136 293 -138 b 299 -140 305 -141 310 -138 b 314 -137 319 -136 324 -135 b 325 -135 325 -134 325 -132 l 325 -128 l 325 -114 b 325 -112 325 -109 326 -107 b 327 -104 327 -102 326 -99 b 325 -93 323 -87 321 -79 b 318 -72 317 -65 315 -58 b 314 -55 314 -53 313 -52 b 312 -51 312 -49 312 -48 b 312 -45 312 -42 313 -38 b 315 -32 314 -27 312 -22 l 309 -16 b 308 -11 308 -6 310 -1 b 312 4 310 9 304 14 b 305 18 307 22 308 27 b 309 34 312 42 318 52 b 320 56 322 61 322 65 b 323 72 327 78 332 80 b 337 82 341 85 345 88 b 348 90 351 91 352 91 b 366 91 378 97 387 108 l 392 110 b 393 110 395 110 397 111 b 404 112 411 113 415 114 b 418 115 420 117 423 118 b 424 118 426 118 428 118 b 428 117 430 117 431 118 b 434 118 438 120 442 122 b 451 126 461 133 472 144 l 490 159 b 492 162 495 163 498 165 b 501 167 503 168 506 171 b 508 173 512 175 514 177 b 517 178 519 180 522 182 b 528 188 532 196 535 205 l 538 211 b 538 213 538 216 538 218 l 538 233 b 538 238 538 243 539 248 l 539 259 b 538 261 539 262 540 263 b 541 264 541 265 541 266 b 538 272 536 277 532 282 b 527 292 519 301 509 309 b 502 313 494 318 488 324 b 476 334 464 342 453 350 b 442 358 433 362 426 366 l 415 371 b 412 372 411 373 408 374 b 406 375 404 377 402 379 b 389 385 378 391 368 400 b 360 408 353 416 348 422 b 350 427 352 430 355 432 b 357 435 359 438 362 441 b 364 443 364 447 362 450 b 358 457 356 464 357 471 l 357 478 b 357 480 355 482 352 483 b 348 488 348 492 352 497 b 368 509 370 512 358 532 b 354 538 351 542 343 542 b 342 542 340 543 338 544 b 337 545 335 547 332 548 b 332 548 331 550 330 552 b 329 555 327 560 323 564 l 318 571 b 318 572 320 572 322 572 b 326 572 331 575 335 578 b 339 582 339 594 333 598 b 330 599 327 601 324 602 l 322 605 b 322 609 327 609 332 610 b 334 610 336 611 337 612 b 339 617 341 622 342 628 b 343 634 345 639 348 645 l 351 658 b 352 662 354 665 358 666 l 358 658 b 358 656 358 652 358 650 b 358 644 362 641 368 639 b 368 640 368 642 368 643 b 368 646 372 654 378 662 b 382 669 388 677 391 678 l 394 678 b 403 680 413 682 421 686 b 426 688 431 689 435 689 b 439 689 444 689 449 688 l 457 688 b 459 688 461 689 462 690 b 467 691 472 692 477 695 b 482 697 487 698 491 699 b 504 702 515 702 528 702 b 540 703 553 703 568 702 b 572 702 578 702 582 702 b 587 701 592 701 597 700 b 607 698 618 690 620 681 b 622 669 629 662 640 658 b 642 657 646 656 649 655 l 658 652 b 674 649 686 642 696 632 l 711 632 b 715 638 713 644 706 650 b 693 662 685 672 672 681 l 640 708 b 629 717 618 726 607 735 b 584 752 558 762 529 766 b 523 767 518 768 512 767 b 506 766 499 766 492 766 b 491 765 489 765 488 764 b 488 763 487 763 486 763 b 458 769 433 764 408 757 z m 238 612 b 238 620 246 628 255 628 b 258 629 259 631 262 632 l 269 634 b 273 635 278 636 282 638 b 282 638 284 638 287 639 b 288 639 291 640 293 641 b 296 638 298 636 299 632 l 306 621 b 300 618 297 617 294 615 b 285 611 288 599 290 589 b 291 584 292 578 293 572 b 293 570 289 566 287 565 b 271 561 268 556 268 540 b 269 537 269 533 268 531 b 268 528 269 525 273 522 b 268 517 261 512 264 502 b 265 499 259 495 256 494 b 250 493 249 492 252 485 b 254 482 256 479 257 476 l 259 466 b 259 462 254 459 249 459 l 240 457 b 238 456 235 456 233 458 b 231 461 228 462 226 463 b 217 469 210 472 202 474 b 195 475 188 478 183 483 b 178 488 172 492 165 497 b 163 494 162 493 160 494 b 157 494 154 497 151 500 b 149 502 148 502 146 503 b 142 506 140 508 138 508 b 133 510 129 512 127 516 b 121 522 117 527 121 540 b 125 552 132 555 144 560 b 150 562 154 567 157 572 b 157 573 157 573 158 573 b 163 572 168 573 168 578 b 169 581 171 584 172 588 b 173 591 178 592 178 592 b 183 591 188 592 191 594 b 193 597 198 598 202 600 b 206 602 211 605 216 608 l 231 615 b 232 616 233 616 235 615 z m 329 568 b 328 567 330 565 333 562 b 340 556 344 556 348 560 b 350 562 352 563 355 564 b 362 568 364 572 360 578 b 356 584 349 586 343 588 b 342 589 341 587 341 586 b 342 581 340 578 337 575 b 332 572 330 570 329 568 z m 323 553 b 319 551 316 552 315 554 b 314 557 312 560 309 562 b 316 566 319 564 323 553 z m 302 454 l 304 459 b 305 460 306 462 307 464 l 309 458 b 310 457 311 455 312 454 b 312 453 311 452 310 451 b 307 452 304 453 302 454 z m 323 170 b 324 174 326 178 327 181 l 330 189 b 331 195 332 200 333 204 b 334 206 334 208 334 209 b 333 211 333 213 334 216 b 340 227 333 235 322 242 l 328 248 b 343 258 342 263 333 278 b 328 287 331 292 333 298 b 333 298 333 300 334 302 l 334 305 b 333 312 332 317 342 318 b 345 318 349 324 349 328 b 348 339 352 350 360 359 b 353 370 353 370 367 376 b 364 369 367 367 373 365 b 377 364 380 362 383 362 b 390 359 397 357 399 348 l 402 348 l 402 357 b 408 352 414 348 420 343 b 426 339 432 334 438 328 b 440 326 442 322 445 318 b 447 314 448 311 451 307 b 452 304 454 302 455 299 b 456 297 457 294 458 292 l 459 286 b 461 280 460 276 458 273 b 454 271 452 268 450 263 b 448 259 446 255 442 251 b 441 247 439 245 438 245 b 431 243 427 239 424 233 b 422 228 418 222 414 218 b 403 207 393 197 377 194 b 374 193 373 192 372 192 b 362 186 353 181 345 178 z"},"?":{"x_min":0,"x_max":694,"ha":694,"o":"m 242 51 b 242 52 244 55 245 58 b 246 60 248 62 250 62 b 256 68 258 72 248 78 b 246 78 244 81 242 83 b 238 88 236 93 234 98 b 233 101 232 103 231 107 b 232 108 233 111 234 115 l 237 125 b 240 134 242 142 244 152 b 245 156 247 160 249 164 b 252 168 253 172 254 177 l 264 199 b 271 213 277 226 283 235 b 289 244 295 252 302 257 b 305 259 308 262 311 266 b 321 278 329 292 337 305 b 341 308 343 310 344 314 b 348 328 357 339 370 345 b 375 346 378 348 381 352 b 384 358 388 366 391 373 b 392 378 394 381 397 385 l 401 388 b 402 388 403 388 404 389 b 405 389 407 390 408 391 b 420 403 431 414 443 428 b 445 428 447 431 448 434 b 452 438 456 443 460 448 b 468 458 473 467 477 474 b 478 478 481 482 483 484 b 504 497 516 518 528 539 b 532 542 537 547 537 551 b 537 562 542 568 548 577 b 548 578 548 578 548 581 b 549 582 550 583 551 585 b 552 586 552 588 553 588 l 556 591 b 557 591 557 592 558 592 b 561 602 564 610 568 621 b 569 625 572 630 574 635 b 580 644 584 652 588 660 b 588 664 590 668 592 671 b 597 678 599 685 599 692 b 599 699 600 706 601 713 l 601 729 b 602 732 602 736 602 740 b 602 744 600 748 598 752 b 597 752 598 754 598 757 b 599 759 599 761 598 762 b 596 766 593 772 591 778 b 586 790 576 798 563 806 b 550 814 540 820 530 823 b 524 825 519 827 514 829 b 512 830 509 832 507 834 b 504 836 501 837 498 838 l 470 845 b 460 848 450 850 441 852 l 428 856 b 418 858 407 860 398 860 b 390 860 379 858 366 856 b 352 852 341 851 335 848 b 332 847 328 845 324 844 b 318 841 311 838 305 833 b 292 825 279 820 270 818 b 265 817 261 813 258 808 b 258 808 257 807 256 807 l 253 804 b 248 802 244 800 240 798 b 232 793 223 789 219 783 b 215 778 209 772 204 770 b 199 768 191 762 188 756 b 185 752 182 749 179 747 b 172 741 166 736 158 732 b 151 728 143 721 138 713 b 125 699 113 688 94 678 b 92 676 90 672 88 668 b 85 664 82 659 81 655 b 78 650 76 646 72 643 b 56 632 48 619 40 600 l 37 595 b 36 592 34 591 33 590 b 28 582 23 575 18 568 b 12 561 8 552 8 542 b 8 538 8 534 7 531 b 6 528 5 523 4 519 l 2 513 b 1 510 0 505 1 502 b 1 498 2 493 5 488 b 8 483 10 478 12 472 l 14 463 b 18 453 25 448 33 445 b 49 440 68 436 89 432 b 100 430 110 428 119 424 b 138 418 155 415 172 424 b 172 425 174 425 177 425 l 181 425 b 188 428 192 430 192 439 b 189 452 173 463 160 463 l 142 463 b 137 463 130 463 124 464 b 123 464 122 465 121 466 l 116 469 b 110 482 115 492 119 504 b 121 515 124 525 129 534 b 133 548 138 560 145 573 b 146 577 148 580 151 582 b 153 585 156 588 158 591 b 161 596 164 602 168 608 b 173 619 181 628 188 635 b 192 638 196 642 198 647 b 204 657 211 665 220 674 b 229 682 237 692 244 702 b 252 711 261 719 272 725 b 282 731 292 738 301 746 b 307 750 312 755 318 759 l 335 771 b 338 773 340 775 342 777 b 347 779 353 784 362 784 b 367 783 370 786 372 792 b 372 792 373 792 376 792 b 385 792 394 795 402 799 b 411 803 420 807 430 809 b 449 812 476 808 482 792 b 483 789 485 786 488 783 l 492 775 b 495 768 496 762 492 756 b 492 756 492 755 492 754 b 496 740 493 727 491 709 b 488 692 488 673 481 663 b 477 659 475 653 474 648 b 473 642 470 637 463 634 b 463 627 458 622 453 618 b 448 612 444 606 445 598 b 446 598 446 598 445 598 b 444 597 443 596 443 595 b 441 592 438 589 436 585 b 433 581 431 578 428 575 b 425 571 422 568 421 563 b 418 559 414 555 408 552 b 399 550 393 541 391 531 b 390 522 388 512 382 508 b 368 494 355 482 345 466 b 344 463 342 461 341 458 b 338 456 338 452 337 450 b 337 439 338 432 327 429 l 325 425 b 322 422 321 418 318 413 b 316 411 313 408 312 406 b 309 403 307 400 303 398 b 288 397 287 396 282 378 b 282 378 282 377 280 376 b 278 366 273 356 269 347 b 268 346 266 346 263 346 l 256 343 b 255 342 253 341 251 340 b 248 338 247 336 246 333 b 242 327 239 320 237 313 b 234 306 231 299 227 292 b 221 279 212 267 203 257 b 201 253 198 249 196 245 b 193 241 191 236 188 231 b 175 225 167 218 169 211 b 165 208 163 205 162 202 b 159 198 157 193 155 189 b 152 185 150 181 146 178 b 139 172 136 166 135 159 b 134 152 133 146 131 140 b 130 135 130 132 131 129 b 133 120 138 112 144 105 b 146 101 148 97 151 93 b 153 90 155 87 157 83 b 168 78 180 72 192 68 b 204 62 216 57 228 51 b 229 52 232 56 235 61 b 238 55 238 54 242 51 z m 216 -196 b 218 -198 220 -198 222 -197 b 224 -195 227 -191 230 -187 b 231 -184 232 -182 235 -182 b 242 -178 249 -166 247 -155 b 247 -155 248 -152 248 -147 b 249 -142 251 -136 252 -130 b 253 -124 255 -118 256 -112 b 257 -107 258 -104 258 -103 b 262 -98 264 -90 266 -82 b 267 -75 269 -68 272 -62 b 268 -56 264 -52 260 -49 b 258 -47 257 -45 254 -44 b 252 -43 250 -42 248 -41 b 243 -40 238 -38 233 -38 b 228 -37 223 -35 219 -32 b 213 -30 208 -29 202 -29 b 197 -30 190 -29 184 -27 b 175 -22 164 -24 154 -27 b 142 -29 139 -39 148 -49 b 151 -51 152 -53 153 -57 b 154 -60 156 -63 157 -66 b 160 -69 161 -78 162 -85 b 162 -92 162 -100 165 -103 b 166 -105 166 -108 167 -112 b 168 -122 168 -132 168 -142 l 168 -152 b 168 -156 172 -167 175 -176 b 178 -186 183 -194 188 -194 b 192 -193 198 -196 201 -198 b 202 -200 205 -202 208 -203 b 208 -202 210 -201 212 -200 b 212 -199 214 -198 216 -196 z"},"<":{"x_min":0,"x_max":662,"ha":662,"o":"m 567 142 b 563 143 560 145 557 147 b 552 148 549 149 546 150 b 538 153 532 158 523 155 b 518 152 514 154 511 158 b 505 165 500 170 489 171 b 483 171 478 172 473 173 b 462 177 452 181 442 185 b 437 188 432 190 427 192 l 423 195 b 422 196 421 198 419 198 b 418 198 417 198 416 199 b 415 200 413 200 412 201 l 405 203 b 402 204 400 202 398 199 b 397 200 396 200 395 200 b 393 200 392 200 392 201 l 379 209 b 371 214 359 218 346 222 b 332 225 319 230 307 236 b 300 238 293 242 287 244 b 285 245 283 246 281 246 b 278 246 276 246 273 247 b 272 250 268 252 260 254 b 248 257 237 260 225 264 b 216 266 209 268 203 272 b 201 273 198 275 196 277 b 193 278 190 279 187 278 b 186 278 180 282 177 285 b 175 286 173 288 171 288 b 165 291 162 292 158 296 b 157 297 156 298 156 299 b 156 300 156 301 157 302 b 158 302 160 304 162 306 l 168 308 b 178 311 181 316 185 322 b 188 324 190 327 192 328 b 195 330 198 332 200 334 b 201 335 202 336 205 337 b 207 338 208 338 209 339 l 217 348 b 218 350 221 352 223 355 b 230 360 237 363 243 365 b 258 368 268 375 278 384 b 278 385 280 387 282 388 b 283 388 285 389 286 390 b 292 393 297 397 300 401 b 302 405 306 408 312 408 b 316 409 319 410 323 412 b 327 415 331 415 335 414 l 338 417 b 350 429 362 438 378 443 b 380 443 382 443 384 444 b 388 445 393 447 398 448 b 402 448 406 451 408 457 b 411 460 413 465 417 466 b 424 468 432 470 439 473 b 442 475 445 476 448 476 b 452 476 455 476 459 477 b 458 480 458 482 458 483 b 461 486 464 488 468 488 b 469 488 470 489 471 491 b 472 492 474 492 476 492 b 477 492 478 492 479 492 b 482 493 484 493 487 494 b 491 495 498 497 501 499 b 508 505 516 508 524 508 b 533 507 539 516 533 522 b 529 528 525 534 522 541 l 520 543 b 519 545 518 547 516 548 b 514 548 512 550 512 552 b 510 554 508 558 508 561 b 504 568 501 573 497 580 b 494 582 492 586 490 590 b 488 588 487 588 486 588 b 480 587 476 583 475 578 b 472 573 468 571 465 571 b 462 571 461 570 459 569 b 455 567 451 564 447 562 l 434 554 b 427 548 420 543 411 543 b 408 543 406 541 403 538 b 400 535 396 531 392 531 b 385 530 382 527 378 522 b 368 516 362 515 353 514 b 348 513 345 510 344 503 b 344 502 343 502 342 501 b 339 498 336 497 332 495 b 328 492 325 490 322 488 b 318 485 313 484 308 485 b 303 486 300 483 298 479 b 298 480 297 479 296 478 l 290 476 b 286 475 281 472 278 468 b 277 465 274 462 272 462 b 268 459 262 457 258 455 b 252 452 248 450 243 448 l 235 445 b 229 443 222 438 215 432 b 212 428 208 425 204 422 b 201 420 198 418 196 415 b 193 412 190 409 186 407 b 182 405 178 402 174 400 b 170 397 166 396 160 397 b 158 394 155 392 152 391 b 148 389 145 388 142 385 b 140 384 138 382 138 381 b 136 379 134 380 132 382 b 123 377 115 372 108 366 b 99 360 90 356 80 353 b 79 352 78 351 78 350 l 76 347 b 70 340 64 332 57 328 b 52 326 50 322 50 319 l 48 308 b 47 304 46 300 47 296 b 48 292 48 287 48 282 b 48 272 48 262 50 251 b 51 244 55 240 59 237 b 60 236 62 236 62 237 l 65 237 b 69 239 74 242 79 244 b 88 249 97 251 106 251 b 110 251 115 252 119 252 b 125 253 129 254 133 257 b 139 260 139 258 139 253 b 140 252 140 250 141 248 b 141 246 141 244 142 243 b 143 240 145 237 148 234 b 149 231 151 228 152 225 b 158 226 162 227 168 227 b 176 227 183 227 191 226 b 198 225 205 225 212 225 b 215 224 218 224 220 225 b 222 226 225 226 228 225 b 230 224 233 225 237 226 b 240 227 243 225 246 222 b 247 221 248 220 249 220 l 253 220 b 261 222 264 219 265 212 b 265 211 265 210 266 209 b 267 208 267 208 268 207 l 269 209 b 270 210 270 211 270 212 b 271 215 272 218 275 214 b 277 212 278 212 279 212 b 282 212 285 213 288 213 b 290 212 292 212 295 212 b 292 210 291 208 289 208 l 285 203 b 285 202 285 202 286 202 l 286 201 b 293 210 301 208 308 202 b 308 205 306 207 305 208 b 308 209 309 209 311 210 b 314 211 318 210 322 208 b 323 206 326 204 328 202 b 324 202 322 201 319 200 l 311 198 b 320 192 328 193 334 204 b 335 202 335 199 336 198 b 336 196 336 193 337 191 l 342 193 b 346 194 354 196 358 193 b 359 192 359 192 358 190 b 358 188 358 187 358 184 l 361 181 l 364 188 b 365 187 365 185 366 184 b 366 182 366 181 367 179 b 371 183 373 186 376 187 b 377 184 378 182 378 180 l 381 172 b 382 173 382 173 383 173 l 383 183 b 386 182 389 181 392 178 b 392 176 391 174 390 173 b 391 171 392 169 393 168 b 396 164 398 159 398 155 b 398 152 398 151 398 148 b 403 148 408 147 412 147 b 417 147 420 146 424 145 b 430 143 437 142 442 141 b 448 139 454 136 459 132 b 462 129 465 128 468 127 b 470 126 472 124 474 122 b 478 118 482 114 483 108 b 486 98 488 96 498 98 b 498 99 500 98 502 98 b 508 95 514 92 520 89 b 526 87 531 83 537 81 b 541 81 544 81 547 80 l 549 80 b 553 82 558 84 562 85 l 565 115 b 565 124 566 133 567 142 z m 236 252 b 238 251 240 251 242 251 b 244 250 247 250 249 249 b 260 249 259 250 262 239 b 262 238 262 238 262 238 b 263 237 263 236 263 235 b 262 234 262 232 262 232 b 262 231 262 230 261 230 b 258 229 257 229 255 230 l 248 230 l 248 237 b 248 238 249 238 250 238 b 248 239 246 241 244 242 b 240 243 234 247 232 249 b 232 250 232 251 232 252 b 233 252 233 253 234 254 l 235 253 b 235 252 235 252 236 252 z m 228 243 b 231 242 233 242 236 241 l 242 238 b 242 238 242 238 242 238 l 242 237 b 242 236 242 236 243 236 l 243 235 b 242 234 242 234 242 233 l 242 232 l 235 232 b 231 232 228 233 228 238 z m 356 207 b 357 204 358 202 359 200 b 356 203 352 201 349 198 b 346 196 342 194 339 200 z"},"'":{"x_min":0,"x_max":288,"ha":288,"o":"m 119 493 b 122 493 124 493 127 494 b 128 494 130 493 132 492 b 136 492 140 491 143 491 b 150 490 154 498 158 503 b 161 509 162 516 162 523 b 162 528 162 532 162 536 b 163 543 164 550 167 558 b 168 562 169 566 172 569 b 178 575 180 581 177 591 b 172 602 176 612 185 618 b 189 621 191 624 192 628 b 192 632 192 636 193 640 b 194 644 194 649 194 653 b 194 658 195 662 197 664 b 199 668 201 673 201 679 b 201 684 200 689 199 695 b 198 702 198 708 202 714 b 206 721 211 727 207 737 b 206 738 207 738 208 741 b 208 743 210 746 212 748 b 215 752 220 758 218 768 b 214 777 207 779 198 783 b 194 785 189 787 185 789 b 182 790 180 791 178 791 b 175 791 172 792 170 792 b 165 795 160 798 155 801 l 140 808 b 132 812 126 814 117 817 b 108 820 101 813 103 804 b 104 800 105 796 105 792 l 105 778 b 111 775 112 770 107 764 b 106 763 106 762 107 762 b 107 761 107 760 106 759 b 105 755 105 750 106 746 b 106 742 105 738 103 735 b 101 729 100 723 101 718 b 102 711 102 705 99 700 l 99 699 b 99 697 99 693 100 690 b 100 687 99 684 98 682 b 92 672 94 660 98 648 b 100 637 102 628 94 621 b 93 618 93 617 94 614 b 95 610 97 606 98 602 b 101 595 102 586 101 579 b 100 576 100 572 100 568 l 100 553 l 100 545 b 100 542 100 539 101 537 l 98 537 b 102 529 105 522 109 515 z"},"=":{"x_min":0,"x_max":694,"ha":694,"o":"m 431 509 l 415 509 b 414 509 413 509 412 510 b 412 511 411 511 410 510 b 406 506 401 505 397 506 b 392 507 387 506 382 505 b 375 502 368 502 361 502 b 353 502 345 502 338 502 b 336 501 334 501 333 500 b 332 499 330 499 328 499 b 324 498 320 498 317 498 l 304 498 b 299 499 294 499 289 500 b 283 500 278 500 273 501 b 272 501 272 501 272 500 b 271 499 270 499 269 499 b 267 498 264 497 262 496 b 259 495 257 495 253 498 b 250 500 244 498 240 497 b 231 493 224 490 218 499 b 217 499 217 499 217 500 l 215 500 b 208 494 200 492 191 494 b 188 495 186 497 183 498 b 181 498 179 498 178 498 b 172 494 167 494 161 498 b 157 500 153 501 151 500 b 143 498 136 498 129 501 b 122 503 116 505 108 507 b 102 508 95 508 92 502 b 91 501 90 499 89 498 b 88 496 88 494 87 493 l 92 475 b 95 462 97 452 100 428 b 102 415 104 405 107 398 b 108 394 112 391 116 388 b 125 384 132 388 141 392 b 145 393 149 394 153 394 b 160 393 167 394 174 396 b 181 397 188 397 194 395 b 195 394 195 395 196 396 b 197 397 197 397 198 397 b 204 400 211 405 218 398 b 220 398 222 398 224 398 b 229 399 234 399 239 400 b 249 400 258 401 268 404 b 276 407 280 403 280 395 b 280 394 281 393 282 392 l 285 393 b 285 394 286 394 287 395 b 289 396 292 398 295 401 b 298 403 300 404 302 403 b 308 402 314 402 320 405 b 322 406 323 407 326 407 b 328 406 328 406 329 407 b 333 409 338 410 342 409 b 352 408 361 405 368 408 b 372 408 377 410 381 411 l 388 413 b 391 414 392 414 394 413 b 403 408 412 410 422 411 b 429 412 436 412 443 411 b 450 410 457 412 463 414 b 464 415 466 415 468 414 b 471 413 473 412 478 412 b 479 412 481 412 482 412 b 488 413 493 416 499 412 b 502 409 506 412 509 412 b 512 413 516 414 518 414 b 521 414 524 412 527 409 b 531 403 543 407 546 412 b 548 420 550 427 550 432 b 550 435 550 438 551 442 b 552 447 552 451 552 455 b 552 463 551 472 548 476 b 547 477 546 478 547 480 l 547 483 b 547 500 540 513 528 522 b 520 528 517 525 514 519 b 510 510 500 509 496 512 b 487 516 480 512 476 509 b 468 503 462 504 452 504 b 451 504 449 505 448 506 b 444 508 440 509 437 509 b 434 509 432 509 431 510 z m 531 229 b 534 228 539 227 543 228 b 556 230 569 230 583 227 l 590 225 b 592 224 593 224 595 225 b 609 232 612 245 614 259 b 614 261 614 262 615 264 b 616 266 616 268 617 270 l 620 276 b 621 278 622 280 621 281 l 614 293 b 610 300 604 307 598 312 b 595 315 592 318 589 322 b 583 326 579 325 575 319 b 571 315 565 313 558 313 b 555 312 552 312 549 312 l 538 312 b 534 311 531 312 528 317 b 526 319 521 317 518 315 b 517 314 515 313 514 312 b 509 312 504 311 499 312 b 494 312 489 312 483 311 b 478 310 473 309 468 310 b 462 310 458 309 452 308 b 451 308 449 308 448 307 b 446 306 444 305 443 305 b 439 306 436 306 432 304 b 428 302 424 302 420 305 b 420 306 420 306 419 305 b 418 304 418 303 417 303 b 414 302 412 302 412 302 b 409 303 407 303 405 304 b 402 304 400 304 398 305 b 391 305 386 304 380 310 b 379 311 378 311 375 311 b 371 311 368 308 364 303 b 361 299 355 294 348 297 b 335 300 324 299 315 294 b 312 293 311 292 309 291 b 305 288 301 288 298 292 b 296 294 294 296 292 298 b 290 296 289 295 289 294 b 287 285 278 286 276 287 b 272 288 268 289 264 290 b 260 291 256 291 252 288 b 249 288 246 288 243 289 b 241 291 238 291 235 289 b 231 293 228 294 224 292 b 220 290 216 289 212 289 b 208 289 202 288 198 287 b 193 284 188 285 183 288 b 182 289 182 288 179 288 b 175 285 170 284 166 284 b 162 283 157 283 152 282 b 149 282 146 281 142 280 b 142 279 140 278 138 278 b 137 278 135 277 134 276 b 133 278 132 280 130 282 b 127 280 125 279 124 279 b 118 280 111 280 105 281 b 98 282 92 282 85 282 l 79 285 b 77 286 75 285 74 284 b 70 279 67 273 65 267 b 64 264 63 261 63 258 b 63 254 63 251 62 247 b 68 245 72 242 73 236 b 74 230 76 225 78 220 b 78 216 79 212 80 208 l 82 196 b 83 192 84 188 84 185 b 83 181 86 178 90 173 b 99 164 104 162 114 172 b 117 174 120 176 123 178 b 127 179 130 181 133 183 b 138 186 142 188 147 192 b 152 195 156 198 162 195 b 165 194 167 193 168 193 l 182 197 b 186 198 191 198 195 199 l 208 202 b 211 202 215 202 219 203 b 220 203 221 203 222 204 l 224 204 b 227 205 230 205 232 206 b 238 206 245 207 252 212 b 257 214 261 214 266 213 b 273 212 278 213 282 219 b 284 222 288 222 292 221 b 298 220 308 218 313 222 b 319 225 321 228 327 222 b 329 221 331 219 333 220 b 339 221 344 221 350 221 b 355 221 360 222 364 227 b 369 229 373 229 377 226 b 378 225 379 224 382 222 b 384 221 386 219 388 218 b 390 217 392 216 394 217 b 403 219 410 222 419 225 b 429 229 440 232 450 229 b 461 226 470 222 480 229 l 492 229 l 499 232 b 502 232 503 232 506 232 b 520 233 520 232 524 218 b 525 221 527 222 528 224 z"},"a":{"x_min":0,"x_max":500,"ha":500,"o":"m 629 386 b 628 388 624 390 618 390 b 606 388 596 386 597 377 b 597 372 595 370 592 368 b 587 366 583 362 581 360 l 572 350 b 570 348 569 347 569 345 b 569 343 569 342 570 339 b 561 332 555 324 548 315 b 547 312 545 310 542 308 b 540 306 539 303 539 301 b 540 297 538 292 534 289 b 530 286 527 282 524 279 b 520 274 516 269 512 265 b 507 261 502 256 498 252 b 495 249 492 248 492 245 b 490 242 487 241 482 240 b 480 240 478 225 478 224 b 476 217 471 198 468 191 b 467 190 467 189 467 187 l 465 180 b 464 176 463 171 461 171 b 458 170 456 168 454 163 b 450 156 447 146 444 138 b 443 133 442 130 440 129 b 438 128 435 124 433 118 b 432 112 430 108 428 106 b 425 103 422 100 419 96 b 417 91 413 86 410 81 b 402 71 394 61 384 58 l 375 69 l 361 118 b 352 125 352 140 353 156 b 355 172 359 187 362 190 b 358 197 354 202 358 208 b 358 211 358 214 358 220 b 358 231 357 245 356 257 b 355 262 355 267 355 269 b 356 269 357 272 358 278 b 358 283 359 286 360 286 l 354 298 l 372 309 b 366 320 362 330 368 339 b 370 342 371 344 372 347 b 372 349 372 352 373 355 b 374 358 376 361 377 364 b 378 368 378 371 381 373 b 390 384 387 390 366 397 b 362 398 358 399 353 401 b 349 402 345 404 341 405 b 341 407 341 408 342 410 b 342 411 342 412 342 413 l 321 423 b 307 430 293 435 283 432 l 282 432 b 281 432 280 432 280 431 b 279 430 278 429 278 427 b 268 414 258 402 248 388 b 234 372 225 352 216 333 b 212 324 207 316 198 312 b 193 309 191 304 188 300 b 186 296 183 291 181 286 b 178 280 175 276 171 273 b 165 269 160 264 156 259 b 152 253 145 250 138 249 b 135 249 134 248 134 246 b 133 240 132 237 128 237 b 123 237 119 236 116 233 l 112 237 l 120 245 b 122 248 123 251 126 253 b 125 259 123 266 127 269 b 137 278 139 289 133 303 b 138 308 142 313 148 318 b 153 322 157 327 158 332 b 162 346 162 359 178 365 b 178 372 180 378 184 382 b 193 389 199 402 206 415 b 209 421 213 427 219 431 b 233 443 245 455 258 471 b 263 478 270 486 277 492 b 283 499 290 506 297 513 b 301 518 306 518 312 516 b 313 515 315 514 318 515 b 319 515 321 514 322 513 b 338 509 343 526 327 533 l 247 573 b 242 575 237 575 231 574 b 208 571 197 555 184 539 b 182 537 179 533 178 530 b 175 526 172 522 168 520 b 164 518 161 515 158 511 b 156 507 153 503 151 500 b 150 499 148 498 148 498 b 147 498 145 498 144 497 b 147 484 146 485 139 478 b 138 478 138 476 138 475 l 135 472 b 131 467 127 461 123 455 b 120 449 114 444 107 442 b 103 439 99 436 100 432 b 101 423 96 421 90 418 b 85 413 82 409 82 405 b 79 398 74 392 67 389 b 58 385 52 380 52 368 b 52 357 46 347 39 339 b 35 333 32 331 32 322 b 32 312 30 302 14 302 b 18 286 15 274 4 265 b -2 260 -3 253 0 244 b 2 239 2 233 -1 228 b -6 208 -8 188 -8 168 b -7 166 -7 164 -7 162 b -8 161 -8 159 -8 158 b -8 152 -8 146 -5 140 b -1 129 23 111 37 107 b 53 102 70 98 87 90 b 99 84 112 80 127 78 b 136 78 142 80 143 86 b 146 97 151 107 157 115 b 162 122 168 132 170 141 b 172 151 178 159 183 167 b 189 174 194 182 198 190 b 200 193 202 196 205 198 b 208 201 211 202 213 205 b 224 214 232 228 231 242 b 233 242 238 247 243 253 b 248 260 252 264 257 267 b 254 261 252 248 250 235 b 248 222 248 208 255 201 b 254 200 254 200 255 199 l 259 127 b 259 126 259 123 260 121 b 260 118 260 115 260 112 l 260 104 b 260 102 260 100 259 99 l 257 99 b 256 98 255 98 254 98 b 254 98 255 98 256 95 l 262 68 b 264 55 265 43 265 39 b 266 33 267 30 268 28 b 271 22 288 16 300 13 b 306 12 312 11 318 8 b 344 1 371 -6 398 -10 b 404 -11 409 -12 414 -12 b 419 -12 424 -12 428 -12 l 433 -1 l 434 -1 b 437 3 440 8 444 12 b 448 17 451 21 453 25 b 454 28 456 29 457 29 b 469 35 473 41 479 48 b 483 53 488 62 492 72 b 496 83 501 91 505 96 l 505 103 b 508 106 509 110 511 116 b 512 122 514 128 517 136 b 520 149 524 162 530 166 b 534 169 541 178 545 189 b 548 199 552 209 552 215 b 552 218 553 222 557 228 b 560 234 562 238 562 241 b 563 243 564 245 566 247 b 567 248 568 249 569 252 l 585 273 b 586 274 587 276 587 278 b 586 279 587 281 588 282 l 590 284 b 599 290 605 296 606 302 b 607 310 610 318 616 324 b 620 328 622 333 622 338 b 621 342 622 348 627 352 b 623 361 630 368 636 375 z m 254 98 b 253 99 252 100 252 99 b 252 98 253 98 254 98 z"},"L":{"x_min":0,"x_max":515,"ha":515,"o":"m 562 -40 b 554 -20 546 -1 532 18 b 532 19 531 20 530 22 b 524 30 518 41 507 43 b 498 46 486 39 476 35 b 476 35 475 34 472 33 b 472 34 472 34 472 34 b 469 36 468 37 465 37 b 462 37 459 36 457 35 l 455 35 b 454 34 454 34 453 34 l 448 34 b 447 34 445 34 442 35 b 442 35 441 35 441 36 l 438 36 b 428 38 418 40 408 40 b 399 40 390 38 380 36 b 375 35 370 34 364 34 b 358 33 352 33 347 32 l 338 32 b 335 32 332 32 329 32 b 327 32 323 32 321 32 l 312 32 b 308 33 302 34 298 34 b 292 34 288 33 283 32 b 281 32 279 31 278 31 b 277 30 275 29 274 28 b 271 27 268 26 264 26 b 262 26 259 26 257 27 l 248 27 b 247 28 245 28 243 28 b 240 28 237 28 233 29 b 232 29 228 29 222 30 l 212 30 b 206 29 205 28 202 28 l 202 28 b 201 27 201 27 200 27 l 194 25 b 192 25 190 26 186 27 b 185 28 184 28 183 28 b 182 28 181 28 180 28 l 178 28 l 178 31 b 178 33 178 36 175 37 b 172 39 172 46 172 49 b 172 51 172 52 172 54 b 172 56 172 58 171 58 b 168 65 170 68 172 74 b 173 77 174 80 175 85 b 175 90 175 94 176 98 b 176 100 176 102 175 103 b 174 107 172 113 172 117 b 172 119 172 122 174 125 b 175 129 176 132 176 134 b 177 135 178 141 178 147 b 178 149 178 152 178 154 l 178 158 b 178 162 176 165 172 168 l 178 176 b 180 178 180 181 178 183 l 172 190 b 173 202 175 223 178 234 l 179 237 b 180 239 181 241 181 242 b 181 245 178 252 172 256 b 171 258 170 258 170 258 l 170 262 b 169 263 169 265 169 266 b 169 271 169 274 168 277 b 168 278 168 280 167 282 b 166 285 166 286 165 285 b 164 284 164 284 164 286 b 164 288 164 289 165 291 l 165 296 b 166 299 167 304 167 310 b 167 316 165 322 162 326 b 172 333 171 336 170 343 l 170 346 b 169 347 169 348 169 348 b 169 352 170 358 172 364 b 172 368 173 372 174 372 b 175 373 174 375 173 379 b 172 382 172 384 172 388 b 171 392 169 395 168 396 b 168 397 167 397 166 395 b 165 393 164 393 164 394 b 164 395 165 398 166 401 l 168 408 b 168 409 168 409 169 408 b 169 408 169 408 170 410 b 171 414 172 417 173 418 b 176 420 173 429 172 429 b 171 428 169 429 168 432 b 167 436 165 438 164 438 b 163 439 163 442 164 446 b 165 446 166 447 167 448 l 172 455 b 172 458 173 458 173 459 b 173 460 173 462 174 466 l 174 468 b 174 473 174 477 173 479 l 173 487 b 172 490 172 492 172 493 b 172 496 172 498 173 498 b 173 499 173 499 174 500 l 174 502 b 174 503 174 503 175 504 l 175 505 b 176 508 178 512 178 518 b 177 520 177 524 177 529 b 177 536 176 540 175 543 b 174 545 174 547 173 549 b 172 552 171 553 171 556 b 171 557 171 558 172 558 b 172 559 172 560 172 561 l 174 568 b 174 571 171 579 167 583 l 167 588 b 168 588 168 590 168 592 l 171 595 b 173 599 175 603 176 608 b 178 615 178 619 178 622 b 178 623 178 627 177 631 b 176 633 176 635 175 636 b 174 637 174 638 174 638 l 173 639 l 173 640 b 173 641 174 642 175 644 l 177 651 b 179 655 180 659 181 665 b 182 674 180 682 179 689 b 178 693 178 697 178 700 b 178 706 178 712 180 722 b 183 734 188 751 172 762 b 165 768 156 768 148 769 b 147 770 145 770 143 770 b 142 770 140 770 138 771 b 135 772 132 772 129 772 b 125 773 120 775 114 776 b 108 777 104 778 103 781 b 102 783 99 784 97 784 b 96 783 95 783 95 783 l 92 782 b 89 781 79 782 73 783 b 67 784 62 785 60 785 l 58 785 b 55 784 52 784 51 784 b 48 783 44 780 44 777 b 43 775 43 772 42 770 l 42 769 b 42 766 42 758 48 752 b 45 747 47 741 52 737 l 54 735 b 54 734 54 734 55 733 b 58 728 56 718 55 711 b 54 708 54 707 54 704 l 54 698 b 54 689 56 684 58 678 b 59 678 59 677 59 676 b 59 675 59 674 60 673 l 60 669 b 61 668 61 666 61 664 b 61 662 61 661 62 659 b 64 652 62 645 62 636 b 61 629 61 625 62 624 b 62 622 70 609 72 607 b 74 605 75 603 75 602 b 75 599 72 592 70 589 l 68 581 b 67 578 65 575 64 572 b 63 572 63 571 63 569 b 62 568 62 567 63 566 b 64 565 63 563 62 561 b 60 554 60 550 61 542 l 61 531 l 62 530 b 62 524 63 520 66 517 b 67 513 69 510 67 501 l 67 498 b 66 498 66 496 66 495 l 66 488 b 65 485 65 482 65 482 b 64 476 63 471 63 467 b 61 462 61 458 62 455 b 63 454 64 454 65 456 b 66 458 68 458 70 458 l 70 456 b 69 455 69 454 70 453 b 71 449 71 448 71 447 b 71 445 69 433 69 431 b 68 429 69 426 70 422 l 72 407 b 73 399 74 393 74 385 b 73 381 73 376 73 370 l 73 362 b 72 362 72 358 72 354 b 72 348 74 343 75 339 b 76 337 76 335 77 336 l 76 330 b 75 329 75 328 75 326 l 72 320 b 72 318 72 314 71 310 b 70 300 68 293 73 288 b 72 287 72 287 72 288 b 72 288 72 288 71 287 l 71 276 b 71 272 71 269 70 268 b 66 264 63 261 62 258 l 62 257 b 62 252 62 248 62 245 l 63 242 b 64 236 64 232 65 230 l 65 218 b 62 215 62 214 62 213 b 61 210 62 190 64 186 b 65 182 66 175 60 172 b 59 171 57 167 59 162 b 60 161 62 157 62 149 b 63 142 63 138 64 136 b 65 130 64 123 62 117 b 59 108 58 92 59 83 b 60 81 60 76 60 69 b 60 62 59 56 58 50 l 54 40 b 52 36 49 32 43 32 l 38 32 b 34 31 32 30 31 30 l 28 30 b 26 29 23 30 22 32 b 20 33 18 32 13 30 l 1 32 l -6 32 b -12 32 -18 34 -23 32 b -29 30 -34 25 -37 16 b -38 12 -38 8 -38 5 b -38 4 -38 2 -37 2 b -37 -1 -36 -2 -33 -5 b -34 -6 -34 -7 -34 -8 b -35 -9 -34 -11 -32 -12 l -22 -22 b -19 -27 -16 -30 -12 -33 b -8 -38 -5 -41 -2 -45 b -2 -47 0 -48 1 -49 l 4 -54 b 8 -60 12 -65 16 -70 b 25 -81 38 -85 49 -85 b 60 -85 70 -83 78 -79 b 81 -78 83 -76 86 -73 b 90 -69 95 -67 103 -67 b 108 -67 111 -67 114 -66 l 116 -66 b 118 -66 122 -67 125 -68 b 128 -69 131 -70 134 -70 b 143 -73 151 -76 160 -75 b 171 -72 182 -69 192 -63 b 198 -61 202 -60 206 -58 b 212 -55 218 -52 224 -49 b 232 -45 238 -41 242 -37 b 247 -33 252 -33 259 -36 b 262 -38 263 -39 266 -40 b 268 -42 271 -44 274 -46 b 280 -49 292 -47 298 -44 b 304 -42 310 -39 317 -36 b 322 -33 331 -37 335 -39 b 338 -40 342 -42 347 -42 b 351 -43 356 -42 362 -42 l 368 -40 b 376 -39 382 -40 388 -42 b 392 -42 395 -43 399 -44 b 407 -45 411 -44 417 -42 b 426 -39 428 -38 432 -42 b 435 -42 437 -44 439 -45 b 443 -47 445 -48 446 -48 b 446 -48 448 -48 452 -47 l 453 -47 b 472 -43 490 -45 509 -48 b 525 -48 540 -50 557 -49 b 559 -49 562 -44 562 -40 z m 446 -49 l 446 -48 b 445 -49 445 -49 446 -49 z"},"3":{"x_min":0,"x_max":547,"ha":547,"o":"m 372 203 b 369 199 368 194 367 190 b 365 185 362 181 360 178 b 351 168 340 158 330 149 b 328 148 326 146 324 145 b 322 144 320 142 318 141 b 308 134 298 128 288 120 b 282 116 274 112 266 111 b 258 109 250 105 244 99 b 242 97 239 95 237 93 l 228 88 b 224 86 220 83 217 80 b 212 77 208 76 202 77 b 189 64 175 60 159 54 b 157 53 154 52 152 50 b 149 48 147 47 144 46 b 138 45 132 44 127 43 l 108 41 b 106 40 104 40 102 40 l 95 38 b 91 38 87 36 82 34 b 78 32 73 34 69 40 b 68 40 67 40 67 41 b 64 42 62 43 60 45 b 56 48 54 53 54 61 b 53 68 52 73 52 78 b 52 79 52 81 52 82 l 60 118 b 58 120 56 122 55 123 b 53 124 52 126 52 127 b 42 162 9 148 -3 138 b -17 127 -23 113 -28 97 b -33 79 -28 58 -18 48 b -9 37 7 29 26 20 b 35 15 45 10 54 4 b 60 2 65 1 68 -5 b 68 -6 69 -6 72 -6 b 78 -8 84 -11 90 -12 b 94 -15 98 -16 100 -16 b 104 -16 109 -16 113 -15 l 127 -15 b 128 -15 130 -15 132 -14 b 135 -13 137 -13 138 -14 b 143 -18 149 -18 155 -17 b 160 -16 165 -14 170 -13 b 172 -12 174 -12 177 -12 b 180 -13 185 -11 189 -9 l 200 -4 b 201 -3 202 -3 203 -3 b 208 -2 212 -1 216 0 b 220 1 224 2 228 3 b 234 4 240 7 246 10 b 256 17 268 22 279 28 b 284 30 290 32 296 34 b 298 35 302 36 304 36 b 307 36 308 38 309 40 b 310 41 311 41 312 41 b 320 42 326 43 332 47 b 342 52 351 61 358 69 b 360 73 365 75 372 74 b 373 74 374 75 374 76 b 376 83 380 88 386 89 b 392 90 398 92 402 97 b 406 101 412 105 418 108 b 429 115 443 125 458 138 b 468 148 474 157 481 168 l 491 182 b 492 185 494 188 497 190 b 498 192 498 196 498 200 b 497 201 498 202 498 204 b 500 207 502 210 505 214 b 506 216 508 218 508 220 b 511 223 512 228 513 232 l 520 248 b 523 258 526 269 526 278 b 525 286 524 294 522 303 b 521 308 521 312 522 317 b 525 337 518 360 510 376 b 509 378 508 382 505 384 b 502 387 500 389 499 392 b 497 397 493 401 489 404 l 462 424 b 452 431 443 438 438 444 b 434 448 431 450 427 452 b 417 456 408 462 399 468 b 391 475 381 479 370 482 b 369 482 368 482 368 483 l 366 485 b 368 490 372 496 377 502 b 378 503 380 504 381 504 b 388 502 392 507 394 512 l 401 519 b 403 523 408 527 412 529 b 418 532 419 536 418 542 l 418 554 b 419 553 419 553 420 553 l 421 552 b 423 554 427 556 430 558 l 438 563 b 441 564 442 565 442 566 b 443 567 445 568 447 569 b 448 570 448 572 449 573 b 450 578 452 582 452 588 b 453 592 454 598 455 602 l 458 607 b 460 609 462 614 464 619 b 466 624 468 630 470 634 l 472 641 b 473 645 475 650 476 655 b 477 659 478 663 481 668 b 492 682 491 698 488 712 b 487 718 485 725 484 732 b 483 734 482 738 481 741 b 480 744 478 747 475 749 b 471 753 466 758 462 761 b 457 763 452 767 448 771 l 439 778 b 433 782 427 789 418 797 b 410 804 399 811 386 815 b 379 818 372 820 367 823 b 361 826 356 828 351 828 b 346 828 341 829 335 830 b 332 830 331 830 328 829 l 322 827 b 318 826 313 825 309 832 b 306 830 302 829 300 829 b 290 829 280 829 273 822 b 272 821 270 821 268 822 b 264 827 262 826 259 822 b 257 821 255 820 252 819 b 250 818 248 817 247 816 b 244 816 242 816 241 817 b 238 818 237 818 236 817 b 230 814 224 812 219 810 b 208 806 199 802 193 798 b 191 795 188 793 184 792 b 183 791 182 791 182 791 b 181 790 179 790 178 789 b 175 788 172 788 170 788 b 163 787 161 781 158 776 b 154 771 150 767 141 769 l 140 769 b 137 767 133 763 131 761 b 128 758 124 754 121 752 b 113 745 108 740 98 734 b 94 732 91 730 92 723 b 92 721 87 716 83 713 l 78 708 b 72 702 67 695 60 688 b 51 679 54 661 67 653 l 68 652 b 68 651 69 651 70 650 b 76 646 82 641 88 637 l 106 623 b 108 621 112 619 115 618 b 118 618 122 615 124 612 b 133 605 140 606 149 607 b 152 607 154 608 154 610 b 157 615 158 620 160 626 b 161 631 162 636 165 641 b 171 657 180 666 190 677 b 195 682 200 687 205 692 b 209 697 213 700 219 703 b 221 708 225 712 232 712 b 235 713 238 714 240 716 b 242 717 243 718 246 719 b 248 721 250 722 252 725 b 253 728 256 729 258 730 l 276 738 b 282 740 287 742 292 747 b 296 749 301 752 306 753 b 315 756 326 758 340 762 b 353 765 372 770 391 770 b 395 770 398 769 402 768 b 406 768 410 766 415 765 b 415 759 416 752 417 746 b 418 732 416 720 412 711 b 410 706 408 701 407 697 b 406 694 404 692 402 690 b 400 688 398 687 397 684 b 396 684 396 683 396 682 b 391 662 380 648 363 639 b 354 633 348 627 351 614 b 353 605 348 596 338 593 b 326 590 323 580 319 571 b 318 570 316 570 314 570 b 312 569 311 568 310 568 l 302 552 b 300 546 296 542 289 542 b 288 542 288 542 289 541 b 289 540 289 540 288 540 b 286 538 284 536 282 533 b 278 529 275 526 272 524 b 269 523 268 522 267 521 b 265 520 263 519 262 518 b 261 518 259 516 258 515 l 247 508 b 242 505 239 501 237 497 b 229 484 218 475 204 468 b 200 466 196 462 192 458 l 189 454 b 185 453 181 452 177 449 b 172 447 169 445 165 443 b 159 440 157 439 157 433 l 149 431 b 147 430 144 429 143 428 b 142 423 141 419 139 415 b 138 411 139 406 144 401 b 147 398 151 395 154 392 b 163 383 171 376 183 372 b 196 368 206 358 216 349 b 219 347 222 344 227 343 b 231 342 234 341 238 340 b 245 338 249 340 252 346 b 252 348 253 349 255 350 b 258 352 259 354 259 357 b 258 358 258 359 258 360 b 261 366 263 372 267 378 b 268 382 276 388 286 389 b 290 390 293 392 295 398 b 296 398 297 398 298 398 l 326 406 b 327 407 328 408 331 410 b 332 411 333 411 334 412 b 335 412 336 412 337 412 b 342 414 347 416 352 418 l 378 424 b 386 426 394 426 401 425 b 404 424 408 424 411 424 b 421 424 428 420 432 412 l 439 399 b 442 395 443 391 445 387 b 446 384 447 382 446 381 b 445 378 445 377 445 376 b 446 370 447 368 447 364 l 447 360 b 446 358 446 357 446 356 b 446 351 447 346 448 341 b 448 336 447 331 444 325 b 440 317 437 308 434 298 l 427 268 b 426 262 417 254 410 248 b 407 246 404 242 403 238 b 399 224 389 216 379 207 b 378 206 377 205 376 205 b 374 204 372 204 372 203 z"},";":{"x_min":0,"x_max":286,"ha":286,"o":"m 76 328 b 76 328 76 328 77 328 l 78 327 l 70 319 b 66 315 62 311 60 308 b 59 305 58 303 56 301 b 53 298 52 295 52 292 b 53 290 52 287 49 284 l 49 280 b 50 276 50 272 51 270 b 51 267 51 263 52 260 b 52 258 52 257 53 256 b 55 253 57 251 58 248 b 58 246 60 243 62 242 b 63 242 64 242 65 241 b 68 236 72 233 76 233 b 77 233 78 233 78 232 b 78 232 79 231 80 231 b 84 229 89 228 93 225 b 102 221 112 212 126 222 b 132 225 137 228 143 231 b 146 232 147 233 148 234 l 160 242 b 164 245 168 248 171 251 b 174 254 179 258 178 265 b 178 268 178 270 179 272 b 180 273 180 276 180 278 b 180 284 179 287 178 292 b 178 293 178 294 179 296 b 179 298 179 299 178 300 b 177 302 176 306 175 309 b 174 312 172 314 170 315 b 169 316 169 318 169 319 b 168 320 168 322 168 322 b 164 328 159 332 152 337 b 149 338 148 339 148 342 b 147 343 146 345 145 346 b 143 347 142 348 142 349 b 140 352 138 353 135 353 b 134 353 132 354 132 355 b 119 361 108 357 98 349 b 96 348 92 346 90 345 l 82 340 b 81 340 80 339 80 338 b 79 337 78 334 76 328 z m 156 -32 l 158 -13 b 158 -8 159 -2 161 3 b 164 14 168 23 166 36 b 163 46 161 55 151 61 b 147 63 142 66 139 68 l 129 77 b 127 78 122 79 117 79 b 114 79 112 81 111 84 b 111 85 105 86 102 86 b 98 86 97 87 95 88 b 94 89 92 89 92 90 b 88 91 82 92 78 93 l 65 96 b 61 97 56 98 52 99 b 42 102 28 86 41 76 b 53 67 68 60 66 41 l 67 40 b 72 28 72 15 67 2 b 64 -2 63 -5 62 -11 b 62 -23 60 -36 52 -47 b 51 -49 50 -52 50 -56 b 50 -59 49 -62 48 -62 b 43 -65 42 -68 42 -72 b 42 -77 42 -81 39 -84 l 32 -98 b 29 -102 26 -105 20 -108 b 20 -111 20 -113 19 -115 b 15 -128 11 -141 2 -152 b -1 -154 -3 -158 -4 -161 b -6 -165 -8 -168 -11 -169 b -18 -175 -19 -182 -22 -189 b -25 -192 -33 -202 -33 -212 b -34 -218 -37 -222 -41 -225 b -42 -226 -42 -227 -42 -228 b -42 -231 -42 -232 -41 -232 b -37 -236 -28 -232 -21 -228 b -18 -228 -14 -226 -11 -223 b -8 -222 -7 -221 -5 -220 b -4 -219 -2 -218 0 -218 b 4 -217 6 -215 6 -212 b 6 -210 7 -208 8 -208 b 11 -205 14 -202 18 -198 l 28 -190 l 42 -176 b 49 -170 57 -164 61 -157 b 63 -152 67 -148 70 -145 l 81 -136 b 82 -135 84 -133 86 -131 b 88 -128 91 -124 92 -121 b 92 -119 93 -118 94 -117 b 97 -113 98 -110 100 -106 b 101 -103 102 -102 103 -102 b 108 -98 112 -93 118 -90 b 124 -84 132 -78 132 -68 b 131 -67 132 -65 133 -63 b 135 -60 137 -57 139 -53 b 141 -51 142 -48 143 -44 b 146 -38 147 -32 156 -32 z"},"J":{"x_min":0,"x_max":512,"ha":512,"o":"m 530 748 b 526 750 521 751 517 749 l 516 751 b 512 757 507 754 504 750 b 502 750 501 751 500 752 b 499 752 498 752 498 752 b 497 752 495 752 494 753 b 487 756 479 757 471 757 b 469 757 468 757 466 758 l 460 758 b 454 758 449 759 444 759 l 428 759 b 423 760 420 760 417 760 b 412 760 408 760 404 761 l 398 761 b 392 758 387 760 382 763 b 378 766 374 767 371 767 b 362 768 353 767 344 766 l 338 766 l 333 766 b 331 765 328 765 326 765 b 318 764 309 763 302 763 b 296 763 292 763 291 764 b 290 764 289 764 288 765 b 285 771 279 768 278 765 l 272 765 b 268 765 262 766 253 767 b 251 768 249 768 248 768 l 242 768 b 237 767 232 767 229 768 l 228 768 b 227 768 225 768 223 768 b 221 768 219 769 217 770 b 211 771 204 772 197 772 b 190 772 184 771 178 768 b 162 762 156 765 145 768 b 138 770 131 771 122 771 l 121 771 b 115 771 110 770 104 768 l 98 766 b 95 765 93 765 91 765 l 90 765 b 88 764 86 764 82 764 b 73 764 70 763 61 753 b 50 740 58 728 64 719 l 69 712 b 73 702 78 698 83 692 b 85 691 86 689 87 688 b 88 688 88 686 89 683 b 90 679 92 675 95 672 b 111 657 130 662 146 667 b 152 669 158 671 164 672 b 165 672 167 672 168 672 l 170 672 b 172 673 176 673 178 674 b 181 674 183 675 186 676 l 187 676 b 189 677 192 678 192 678 l 198 678 b 199 678 200 678 200 678 b 201 678 202 679 205 680 b 206 681 207 681 208 681 l 209 681 b 210 680 212 680 215 680 b 216 679 218 678 219 678 l 221 678 b 228 678 233 679 240 680 b 244 681 248 682 253 682 b 254 682 257 682 259 682 b 267 683 274 684 281 683 b 282 682 286 681 291 681 l 292 681 b 296 681 301 682 307 684 b 308 684 308 684 309 685 b 317 688 329 692 336 689 b 337 688 338 688 338 688 b 338 684 339 682 340 680 b 341 678 342 674 342 672 b 342 666 341 661 341 657 b 340 654 340 652 340 649 b 340 643 341 640 342 634 b 342 628 343 624 343 618 l 343 618 b 342 602 342 587 343 571 b 343 569 343 568 344 566 l 344 560 b 345 557 345 553 345 550 l 345 540 b 345 539 345 538 346 537 b 347 536 347 534 347 533 b 348 533 348 533 348 532 l 347 532 b 347 532 347 532 346 532 b 343 528 342 526 342 524 b 338 513 339 508 342 502 b 343 499 344 496 344 493 b 344 492 343 491 342 488 b 342 485 341 482 341 481 b 340 480 340 480 340 479 b 340 477 340 473 341 470 b 342 467 342 464 342 462 l 344 452 b 344 451 343 450 342 449 b 341 448 341 446 342 444 b 342 438 343 437 346 434 b 347 432 348 432 348 431 b 348 429 348 427 344 420 b 342 417 341 413 340 411 l 340 408 b 340 406 341 404 342 403 l 342 387 l 342 385 b 342 384 342 383 342 382 b 340 379 339 376 340 373 l 340 365 b 341 362 341 358 340 354 b 339 348 339 342 341 337 b 342 336 342 333 342 331 l 342 330 b 342 326 341 321 337 313 l 334 307 b 332 302 330 297 330 291 l 330 282 b 331 278 330 266 328 262 l 325 252 b 324 249 324 248 324 245 b 325 244 324 242 323 241 b 320 235 320 235 316 236 b 310 237 305 231 309 227 b 312 223 312 222 315 219 b 321 213 323 208 323 202 l 322 194 b 321 192 321 191 321 189 b 320 187 320 185 319 183 b 318 177 317 172 314 167 l 314 165 b 310 154 308 142 306 132 b 303 117 300 104 296 93 b 295 92 294 90 293 88 l 291 82 b 288 75 285 68 282 60 b 279 52 276 44 273 37 b 270 27 268 20 262 11 b 259 8 258 8 256 5 l 250 -1 l 249 -2 b 246 -7 243 -12 242 -18 l 238 -27 b 236 -32 232 -38 225 -42 l 218 -48 l 218 -48 b 214 -52 212 -54 211 -56 b 208 -60 206 -63 200 -66 l 199 -66 b 192 -70 183 -70 174 -66 b 160 -60 149 -51 137 -41 b 134 -39 132 -38 131 -36 b 128 -34 127 -32 125 -32 b 115 -22 110 -19 104 -9 l 94 6 b 92 8 91 9 90 12 b 92 12 94 19 91 22 b 80 32 78 43 75 60 b 72 72 68 82 64 92 l 62 98 b 61 99 59 101 58 103 b 59 105 60 107 60 108 l 60 112 b 59 115 58 118 53 119 l 52 119 b 52 120 52 120 52 120 b 52 121 52 122 54 123 b 57 124 58 127 60 130 b 63 138 62 142 60 146 b 59 148 57 153 59 160 b 59 162 59 163 60 164 l 60 182 b 60 192 60 202 63 212 b 69 224 73 238 73 253 b 74 259 74 266 75 272 b 75 278 76 285 77 292 l 79 300 b 82 304 82 308 82 311 b 88 317 88 324 79 328 b 80 330 80 332 79 332 b 78 335 78 336 78 337 b 75 341 74 342 70 345 b 66 349 62 351 60 351 b 48 351 26 341 17 332 b 3 316 -6 293 -15 273 l -18 265 b -20 262 -22 259 -22 257 b -30 241 -29 233 -28 221 l -28 213 b -28 207 -29 202 -30 196 l -31 195 b -32 192 -32 190 -32 188 b -32 186 -32 184 -32 182 l -32 174 b -33 170 -35 167 -36 164 b -38 157 -41 148 -38 138 b -38 135 -36 132 -35 132 b -32 128 -29 125 -29 125 b -28 122 -29 119 -31 114 b -32 113 -32 113 -32 112 b -32 112 -32 112 -32 112 l -32 105 b -32 88 -32 74 -22 57 b -20 53 -19 51 -18 49 l -7 29 b -3 22 1 15 5 9 b 15 -7 26 -23 38 -39 b 51 -56 67 -65 81 -75 b 100 -88 110 -94 132 -98 b 155 -100 176 -101 198 -102 l 212 -102 l 221 -102 b 223 -102 227 -102 229 -102 b 242 -102 251 -102 258 -99 b 272 -93 283 -83 293 -74 l 296 -72 l 296 -71 b 298 -69 299 -68 302 -66 l 307 -61 b 316 -53 323 -47 330 -38 b 336 -32 338 -23 340 -17 b 341 -13 342 -11 342 -10 l 342 -9 b 347 0 351 8 357 15 l 357 16 b 361 20 368 29 372 37 b 376 44 381 52 382 59 b 382 66 382 72 383 79 b 383 82 384 85 386 88 b 388 92 389 95 390 98 l 392 107 b 393 110 395 113 396 117 l 398 119 b 398 120 398 121 398 122 b 402 126 403 130 404 133 b 405 138 404 142 403 148 l 403 152 b 402 153 402 155 402 156 b 402 158 402 159 403 160 b 403 169 403 175 406 184 b 407 185 407 187 407 188 b 409 201 409 202 422 210 b 424 211 426 217 422 220 b 413 229 418 247 420 260 b 421 261 421 262 421 264 b 422 268 422 273 422 278 b 422 282 422 286 422 290 b 421 299 419 308 422 315 b 422 316 422 318 422 318 b 422 319 422 320 423 321 b 426 327 427 331 427 337 l 427 342 b 426 343 426 345 426 346 b 425 348 424 350 425 351 l 425 352 b 425 352 425 353 426 354 b 427 357 428 358 428 362 l 428 365 b 428 366 428 368 428 368 b 427 369 427 371 427 373 b 428 375 428 377 428 378 b 428 378 428 379 428 380 b 429 384 430 388 430 395 b 429 395 429 395 429 396 b 429 398 428 402 426 408 b 423 413 422 418 422 421 l 423 422 b 426 424 428 427 428 429 l 428 436 b 428 438 428 440 429 441 b 430 448 432 456 434 465 b 438 479 442 492 439 508 l 438 509 b 436 525 434 542 437 565 b 438 569 438 572 438 576 l 438 586 b 438 600 438 613 441 624 b 442 627 442 630 442 633 b 442 636 442 639 442 642 l 442 650 b 442 652 442 655 442 658 l 442 658 b 442 659 444 662 445 665 b 448 670 448 675 449 679 b 450 679 451 679 452 680 b 454 681 455 683 455 686 l 455 687 b 456 686 457 686 458 687 l 467 687 l 472 687 b 475 686 477 686 479 687 b 488 689 496 691 503 693 b 504 694 506 694 508 695 b 509 695 511 696 512 697 b 514 698 518 699 521 699 l 523 697 b 525 696 527 696 529 697 b 538 701 543 708 544 718 b 545 731 539 743 530 748 z"},"V":{"x_min":0,"x_max":463,"ha":463,"o":"m 524 752 b 520 759 512 763 502 766 b 498 767 492 768 488 769 b 476 772 465 776 456 783 b 447 791 436 796 423 798 b 418 800 412 799 407 796 b 397 789 396 775 400 768 l 405 758 b 408 750 409 744 402 738 b 402 738 403 736 403 732 b 403 723 403 712 402 702 b 401 698 400 694 400 692 b 399 679 400 676 390 667 b 386 662 383 658 382 655 b 382 652 379 647 377 641 b 370 628 368 622 367 606 b 366 603 366 601 366 598 b 366 594 365 589 362 586 b 358 582 358 578 361 574 b 363 571 362 565 358 562 b 356 561 355 559 354 558 b 351 550 342 531 348 528 b 338 519 336 512 330 502 b 331 501 332 501 333 501 b 334 500 336 500 337 499 b 332 488 328 478 325 472 b 321 466 318 457 317 444 b 317 442 317 440 318 439 b 318 438 318 438 319 438 l 320 438 b 320 438 320 436 319 433 b 318 428 315 423 312 419 b 310 415 308 409 307 403 b 306 401 306 398 307 398 b 308 395 305 388 302 386 b 298 383 294 377 293 370 b 292 367 292 363 290 361 b 287 352 285 348 282 338 b 281 332 278 328 276 326 b 270 319 268 312 268 309 b 268 305 270 302 271 298 b 272 295 272 290 267 284 b 261 278 257 271 251 262 b 244 252 242 242 242 232 b 242 222 238 212 232 207 b 228 200 222 190 223 180 b 225 169 220 162 217 157 b 215 153 213 150 212 148 b 209 141 208 135 213 131 b 203 123 204 116 202 102 l 199 92 b 196 85 192 79 192 71 l 189 58 b 187 51 182 44 175 47 b 176 48 176 49 177 51 b 177 52 178 54 178 57 b 174 62 171 69 169 76 b 167 82 164 89 162 97 l 159 105 b 158 110 158 116 160 120 l 162 125 b 163 129 163 135 162 142 b 161 148 160 153 160 158 b 159 173 152 182 145 194 b 151 197 152 200 151 203 b 147 209 142 218 143 226 b 143 230 142 233 142 238 b 140 245 137 252 132 257 b 122 267 128 282 129 286 b 130 289 122 302 119 306 b 117 308 115 311 114 315 b 112 321 112 328 113 337 b 114 344 114 352 113 358 b 112 371 111 387 112 401 b 112 402 112 405 112 408 b 113 414 113 418 107 420 b 99 422 97 431 101 436 b 105 441 101 450 96 452 b 93 452 91 453 90 456 b 88 460 88 464 88 470 b 87 481 88 492 91 503 l 93 517 b 92 516 90 517 88 519 b 85 523 82 531 79 538 b 77 544 74 551 78 555 b 80 558 73 568 69 570 b 67 571 65 572 64 576 b 65 578 65 582 66 584 b 66 587 66 589 67 592 l 65 598 b 64 602 62 611 62 618 b 62 625 58 635 54 639 b 51 642 51 654 52 660 b 53 662 52 667 51 671 b 48 678 46 685 43 691 b 41 696 39 702 38 710 l 38 718 b 38 720 38 721 37 723 b 36 726 31 735 32 740 b 32 745 17 751 14 748 b 12 748 9 747 4 747 b 1 747 -2 748 -3 749 b -7 752 -15 754 -22 752 b -29 748 -38 752 -41 755 b -42 757 -44 758 -47 759 b -48 757 -48 755 -50 754 b -54 752 -59 754 -65 756 b -68 757 -71 757 -73 757 l -86 757 b -96 757 -104 750 -104 744 b -105 738 -102 732 -98 727 l -92 718 b -82 704 -75 688 -71 672 b -67 657 -62 641 -55 625 b -42 599 -32 571 -30 542 b -29 532 -29 524 -30 518 b -31 511 -28 503 -23 496 b -16 482 -11 475 -12 458 l -14 452 b -15 449 -16 447 -15 445 b -14 444 -13 444 -12 444 b -10 443 -8 442 -8 441 b -5 437 -3 433 -4 432 b -5 431 -6 428 -6 423 b -6 415 -4 408 0 401 b 7 387 12 371 13 357 b 13 349 15 342 18 335 b 19 328 20 320 21 312 l 23 290 b 24 287 26 283 28 279 b 29 275 30 271 31 267 b 32 264 31 262 30 260 b 28 256 28 248 32 240 b 35 232 36 220 37 205 b 37 190 38 174 46 158 b 49 150 52 142 53 133 b 59 114 64 95 67 75 b 68 72 67 68 66 64 b 65 60 65 57 66 52 b 66 50 67 49 68 48 b 69 48 71 46 72 43 b 74 38 76 32 77 27 b 78 16 82 3 88 -8 b 90 -13 89 -19 85 -26 b 91 -25 91 -28 89 -31 b 88 -35 84 -40 87 -43 b 87 -43 88 -43 88 -44 b 90 -45 92 -47 94 -48 b 97 -49 98 -50 100 -51 l 102 -52 b 107 -54 110 -54 112 -53 b 114 -52 117 -52 121 -52 b 125 -52 128 -52 132 -53 b 135 -54 139 -54 143 -53 b 143 -58 143 -61 144 -65 b 145 -69 142 -72 138 -72 b 139 -79 140 -84 140 -87 b 140 -89 143 -93 149 -98 b 152 -101 153 -102 154 -102 l 155 -103 b 155 -103 155 -103 156 -102 l 161 -102 b 163 -98 167 -97 172 -101 b 172 -102 172 -102 173 -102 l 175 -103 b 179 -106 182 -107 187 -108 b 191 -113 195 -112 196 -106 b 199 -106 202 -106 205 -107 b 208 -108 210 -108 212 -108 b 218 -109 222 -111 225 -112 b 231 -116 241 -114 245 -111 b 248 -108 252 -103 256 -100 b 257 -98 258 -97 261 -95 b 258 -92 256 -90 255 -88 b 252 -82 250 -75 248 -68 b 245 -60 245 -52 248 -45 b 249 -42 251 -41 252 -40 b 255 -38 258 -35 259 -28 b 259 -21 264 -10 268 -2 b 272 7 273 21 272 28 b 270 33 272 45 276 49 b 279 53 283 65 281 65 b 279 65 279 67 280 71 b 282 78 288 88 292 94 b 292 96 294 97 295 98 b 296 98 298 99 298 102 b 296 107 297 111 301 113 l 303 116 b 303 117 304 118 305 118 b 304 119 303 121 303 122 b 302 124 302 126 302 127 b 302 129 302 132 302 134 b 302 137 302 140 303 142 b 303 145 303 148 304 151 b 304 157 308 162 309 165 b 310 166 311 167 312 168 l 315 170 b 316 171 318 172 318 176 b 321 182 322 187 321 191 b 320 198 325 208 331 212 b 337 216 342 224 342 228 b 342 229 342 232 342 236 b 345 246 346 253 347 266 b 347 268 347 270 347 272 l 347 275 b 347 276 348 277 348 278 l 352 282 b 355 284 358 287 361 288 b 366 290 368 295 365 301 b 362 307 365 312 368 317 b 372 321 373 327 374 332 b 374 338 377 346 380 352 b 382 358 385 367 383 372 b 382 378 385 383 389 383 b 393 383 397 388 396 392 b 395 394 395 396 395 397 b 398 412 403 422 412 436 l 418 442 b 420 445 420 446 421 448 b 421 451 423 461 423 463 b 423 464 423 465 424 466 b 424 466 424 466 425 467 l 430 472 b 434 478 437 482 436 484 b 434 490 432 507 436 510 b 440 512 448 522 448 528 b 448 534 451 541 456 548 b 461 554 462 565 460 570 b 459 572 460 576 463 580 b 464 582 466 583 468 584 b 468 585 470 587 471 588 b 473 592 475 598 478 605 b 481 619 482 629 479 638 b 476 648 481 661 488 668 b 493 675 498 688 502 699 b 505 711 513 721 520 727 b 526 732 528 745 524 752 z m 87 -44 b 87 -44 87 -44 87 -43 z"},"\"":{"x_min":0,"x_max":464,"ha":464,"o":"m 252 493 b 255 493 258 493 260 494 b 262 494 263 493 265 492 b 269 492 273 491 277 491 b 283 490 288 498 291 503 b 294 509 296 516 296 523 b 295 528 295 532 296 536 b 297 543 298 550 300 558 b 301 562 302 566 305 569 b 311 575 313 581 310 591 b 306 602 309 612 318 618 b 322 621 324 624 325 628 b 325 632 326 636 327 640 b 328 644 328 649 328 653 b 328 658 328 662 330 664 b 332 668 334 673 334 679 b 334 684 333 689 332 695 b 331 702 332 708 336 714 b 339 721 344 727 340 737 b 339 738 340 738 341 741 b 342 743 343 746 345 748 b 348 752 353 758 351 768 b 348 777 340 779 332 783 b 328 785 322 787 318 789 b 316 790 313 791 311 791 b 308 791 306 792 303 792 b 298 795 293 798 288 801 l 273 808 b 266 812 259 814 250 817 b 241 820 234 813 237 804 b 238 800 238 796 238 792 l 238 778 b 244 775 245 770 240 764 b 239 763 239 762 240 762 b 240 761 240 760 239 759 b 238 755 238 750 239 746 b 239 742 238 738 237 735 b 234 729 233 723 234 718 b 235 711 235 705 232 700 l 232 699 b 232 697 232 693 233 690 b 233 687 232 684 232 682 b 225 672 228 660 231 648 b 233 637 235 628 228 621 b 227 618 227 617 228 614 b 228 610 230 606 232 602 b 234 595 235 586 234 579 b 233 576 233 572 233 568 l 233 553 l 233 545 b 233 542 233 539 234 537 l 232 537 b 235 529 238 522 242 515 z m 85 566 b 91 562 95 558 101 555 b 108 551 113 550 118 552 b 118 553 120 553 121 553 b 122 553 123 553 124 554 l 129 554 b 131 554 132 555 132 556 b 137 562 141 567 143 573 b 146 579 148 585 150 591 b 153 601 157 612 158 619 b 158 623 158 627 158 631 b 158 637 159 642 162 646 b 164 650 166 654 167 659 b 169 668 171 675 165 685 l 168 688 b 168 689 168 691 169 692 b 170 706 179 715 187 724 b 193 733 192 742 179 749 l 122 776 b 120 777 118 778 117 779 b 115 780 113 782 111 782 b 105 785 101 786 98 787 b 97 788 95 788 94 788 b 92 785 91 784 88 786 b 86 787 83 788 81 789 b 65 795 57 792 55 782 l 61 772 b 62 770 64 767 65 764 b 66 762 68 759 68 757 b 71 752 72 745 75 738 b 76 734 78 730 78 726 b 79 723 80 718 80 711 b 79 710 79 708 78 707 b 77 702 76 697 77 691 b 77 685 78 679 81 673 b 82 670 82 667 82 664 b 81 660 82 657 82 652 b 83 648 82 644 80 641 b 78 637 79 629 80 623 b 80 618 82 612 84 606 b 84 605 85 603 86 602 b 87 601 87 599 86 598 b 85 595 83 592 82 589 b 80 586 78 582 78 579 b 81 577 84 575 88 573 b 90 572 89 569 85 566 z"},"7":{"x_min":0,"x_max":548,"ha":548,"o":"m 564 746 b 563 747 564 748 565 752 l 556 758 b 558 760 560 761 561 762 b 558 765 556 768 553 771 b 551 773 549 777 547 779 l 550 784 b 552 787 551 789 548 792 b 547 792 545 794 544 796 b 542 798 541 799 538 801 b 536 802 535 804 535 805 b 535 809 534 812 532 813 b 529 814 526 816 523 818 b 518 810 512 806 504 807 b 497 808 489 807 482 806 b 478 809 475 811 472 811 b 459 812 446 813 432 813 b 429 813 427 813 424 812 b 423 812 422 812 422 812 b 421 811 420 811 419 812 b 412 815 407 814 401 812 b 394 811 388 809 382 813 l 380 813 b 376 811 372 811 368 812 l 358 814 b 353 815 350 815 347 816 b 342 817 339 816 337 815 b 328 812 319 811 310 813 b 309 814 308 814 305 814 l 298 814 b 291 813 283 813 277 813 b 269 812 262 812 254 811 l 243 811 b 240 811 237 811 232 810 l 217 808 b 212 807 207 805 201 804 b 200 804 198 805 197 806 b 194 807 192 808 191 808 b 187 807 183 807 179 807 b 175 806 171 806 167 805 b 160 804 153 804 148 804 b 134 803 122 805 112 807 b 106 808 101 808 95 808 l 86 811 b 82 812 80 811 78 810 b 73 808 69 807 66 808 b 62 810 59 811 57 812 b 52 812 47 814 41 818 b 38 818 35 818 29 818 b 22 818 13 809 16 802 b 18 799 18 794 18 788 b 18 773 18 758 18 744 b 17 730 21 723 25 717 b 28 713 29 710 30 707 b 34 696 42 688 55 686 b 59 685 66 687 68 689 b 75 702 85 703 98 704 b 104 704 111 707 115 709 b 120 711 125 712 130 715 b 134 717 139 718 145 718 b 149 718 152 718 155 721 b 157 724 159 726 162 726 b 164 726 167 725 169 724 b 173 723 177 722 182 723 b 188 723 200 726 202 728 b 207 732 211 732 213 727 b 215 723 218 722 220 721 b 226 719 234 718 243 721 b 248 722 252 721 256 717 b 257 716 258 716 261 716 b 265 718 270 718 275 718 b 280 716 285 716 290 717 b 292 717 295 716 296 715 b 302 711 308 712 318 715 b 322 716 327 717 331 716 b 335 715 339 714 343 713 l 348 713 b 348 712 350 712 351 712 b 353 713 357 715 360 716 l 368 718 b 371 719 374 719 377 718 b 382 718 386 718 390 717 b 394 716 401 714 408 713 b 411 712 414 712 417 712 b 419 712 422 712 425 712 l 428 712 b 429 712 430 712 431 711 b 433 708 435 704 434 702 b 430 691 422 682 413 675 l 403 663 b 399 659 396 655 393 651 b 390 647 388 644 389 643 b 389 642 388 640 385 635 b 384 633 383 632 383 633 b 382 633 382 633 382 634 l 382 635 b 382 635 382 634 382 632 b 378 622 371 618 364 614 b 358 608 356 603 352 599 b 352 597 350 595 349 594 b 348 592 348 590 345 589 b 338 583 332 578 331 569 b 330 568 330 567 330 564 b 330 562 329 561 328 560 b 321 557 320 552 325 547 b 322 544 318 541 316 538 b 313 536 310 533 308 532 b 298 528 298 522 296 516 b 296 512 287 505 280 505 b 279 500 278 496 276 492 b 273 488 272 483 273 479 b 273 470 268 465 262 462 b 249 453 244 444 238 432 b 238 431 238 429 238 428 b 238 424 237 421 233 421 b 232 420 229 421 225 423 b 222 421 221 419 219 417 b 216 412 213 406 212 398 b 211 394 209 391 208 388 l 198 364 b 194 357 189 349 182 343 b 181 342 180 341 179 339 b 178 338 177 336 176 335 l 171 328 l 168 322 b 166 318 164 313 163 308 b 162 302 160 298 156 294 b 152 290 149 286 148 281 b 146 276 142 272 135 271 b 134 271 132 269 133 268 b 136 261 131 254 128 248 b 123 242 121 235 125 228 b 126 227 126 227 125 226 b 124 225 123 224 123 223 b 122 216 117 210 108 207 b 105 204 103 201 101 198 b 98 193 96 189 93 187 b 91 183 90 179 91 174 b 91 173 91 172 90 172 b 89 172 89 171 88 170 l 81 162 b 78 160 76 157 73 154 l 73 152 b 72 152 72 152 72 151 b 72 147 71 143 71 140 b 70 137 70 133 69 129 b 68 125 68 122 69 118 b 70 113 68 109 62 107 l 62 105 l 59 102 b 58 101 58 99 57 98 l 57 94 b 56 92 56 91 56 90 b 55 85 55 80 55 75 b 55 69 54 64 53 58 b 52 54 51 48 48 46 b 41 40 37 29 42 25 b 49 19 56 13 63 9 l 84 -7 b 88 -9 90 -11 92 -13 b 92 -12 95 -12 98 -11 b 109 -18 108 -19 124 -23 b 125 -23 126 -23 127 -24 b 128 -25 128 -25 129 -26 l 138 -28 b 150 -32 152 -24 157 -18 b 156 -17 155 -15 154 -14 l 152 -12 b 151 -9 151 -6 151 -3 l 151 5 b 150 8 150 12 151 15 b 152 18 150 22 146 25 b 145 26 144 28 144 30 b 144 34 145 38 146 41 b 147 42 147 43 148 46 l 150 58 b 150 62 150 66 151 70 l 152 72 b 152 72 152 72 153 73 b 154 76 156 78 157 80 b 158 82 158 86 158 89 b 158 92 160 94 166 95 b 167 96 168 97 168 98 b 168 98 168 100 168 101 l 171 108 b 172 112 174 118 178 125 b 181 128 182 131 182 134 b 182 141 183 148 186 154 b 188 160 188 167 187 173 b 186 174 188 176 188 176 l 193 183 b 199 189 204 193 204 192 b 203 198 205 202 209 205 b 212 208 216 211 218 213 b 221 217 222 218 219 222 b 218 222 218 224 218 227 b 219 231 222 236 226 240 b 228 242 229 244 231 247 l 249 275 b 255 282 258 288 257 293 b 257 298 257 301 258 305 b 258 312 259 318 266 321 b 268 322 269 325 268 328 b 268 328 270 328 272 330 l 280 338 b 282 339 284 342 285 344 b 288 352 292 355 299 358 b 305 363 304 365 304 369 b 303 372 305 377 307 381 b 308 384 309 388 313 391 b 315 392 317 393 318 395 b 324 402 332 409 329 420 l 330 421 b 334 433 345 438 355 444 b 359 447 363 451 363 453 b 363 462 362 468 372 472 b 373 472 375 474 376 477 b 378 480 379 485 380 489 b 380 492 381 493 382 495 b 382 499 388 503 392 507 b 395 510 398 514 397 520 b 399 521 402 521 406 521 b 408 521 410 523 411 528 b 411 528 412 530 412 532 b 413 534 414 536 413 538 b 413 538 414 539 415 540 b 416 540 417 541 418 542 b 420 545 422 548 424 550 b 427 552 428 554 428 554 b 433 557 432 558 435 564 b 437 572 440 578 444 582 b 449 590 455 598 461 607 l 466 614 b 467 617 468 619 471 622 b 476 628 482 633 488 638 b 501 648 507 661 512 671 b 514 675 518 680 522 684 b 530 692 538 698 551 698 b 561 698 564 703 560 712 b 559 713 560 715 561 716 b 562 717 562 718 562 719 l 565 722 b 566 722 566 723 566 724 b 566 728 567 731 568 735 b 570 738 568 742 564 746 z"},"S":{"x_min":0,"x_max":594,"ha":594,"o":"m 603 612 b 598 617 595 622 597 628 b 598 635 599 642 599 648 b 599 658 598 672 594 681 b 588 691 579 708 572 716 b 568 718 563 721 557 723 b 550 725 545 728 541 731 b 540 734 540 736 541 736 b 543 735 542 744 540 746 l 535 751 b 531 757 525 761 518 763 b 505 768 492 777 482 786 b 477 790 472 794 467 798 b 456 804 442 808 428 805 b 414 802 400 798 386 793 b 372 788 358 784 346 780 b 341 778 337 776 332 775 b 324 772 312 768 302 759 b 298 754 292 750 287 746 b 282 744 278 743 273 742 b 269 742 264 739 259 735 b 255 731 250 729 245 728 b 234 728 225 719 218 713 b 215 710 211 707 207 704 b 203 701 197 696 190 691 b 183 686 176 682 172 683 b 172 678 169 673 165 672 b 157 670 145 668 142 663 b 139 661 137 657 132 652 b 116 637 96 623 78 611 b 77 610 75 609 74 608 b 73 608 72 607 72 606 l 68 606 b 62 610 59 608 59 602 b 55 598 52 594 50 590 b 48 586 44 582 40 580 b 39 579 38 578 35 577 b 30 573 28 571 27 568 b 26 565 24 563 22 562 b 19 558 16 556 12 555 b 4 552 -2 541 -3 535 b -4 532 -6 528 -8 526 b -9 523 -11 520 -12 517 b -16 509 -21 502 -25 502 b -28 501 -29 498 -30 494 b -34 485 -32 475 -30 465 b -28 452 -22 441 -17 432 b -11 422 -4 412 2 402 b 11 389 22 374 34 368 b 36 368 38 368 39 369 b 40 370 42 371 42 370 b 45 369 47 368 49 366 b 53 362 62 358 69 353 b 72 351 77 348 81 346 b 94 337 109 329 126 322 b 140 313 155 305 171 297 b 187 288 202 280 218 271 b 228 265 239 260 248 256 b 258 252 267 248 276 244 b 293 236 310 225 330 208 b 346 194 357 172 357 149 b 357 130 356 105 343 89 b 339 85 334 82 329 79 b 324 77 320 72 317 68 b 313 64 309 60 305 57 b 301 53 297 50 294 46 b 293 45 292 43 292 42 b 292 39 292 38 291 37 b 288 34 285 32 282 32 l 273 29 b 261 23 249 16 240 8 b 238 8 237 6 236 5 l 231 2 b 228 1 226 -1 225 -2 b 223 -3 222 -5 220 -6 b 216 -9 212 -9 209 -7 b 199 -8 191 -11 183 -15 b 181 -16 176 -17 170 -18 b 157 -19 142 -22 132 -26 b 126 -28 123 -29 122 -32 b 117 -27 111 -25 104 -26 b 98 -27 91 -26 85 -23 b 82 -22 80 -22 80 -21 b 80 -21 81 -21 82 -20 b 82 -20 83 -19 84 -18 b 85 -18 85 -16 84 -12 b 78 7 76 18 78 38 b 79 45 79 52 79 59 b 78 65 78 72 79 79 b 79 87 79 95 80 103 b 80 111 80 118 79 126 b 79 133 79 139 80 144 b 81 148 80 154 78 160 b 74 171 67 178 58 181 b 38 187 25 175 18 162 b 14 154 11 148 8 144 b 2 137 -2 129 -4 122 b -6 116 -8 108 -11 100 b -12 94 -12 88 -11 83 b -8 73 -8 59 -16 49 b -20 43 -22 38 -23 31 b -24 26 -26 22 -27 18 b -28 13 -28 9 -27 5 b -23 -4 -12 -14 -6 -20 b 3 -27 13 -32 23 -38 l 52 -54 b 52 -56 51 -57 50 -58 b 61 -60 72 -59 78 -72 b 83 -68 88 -68 92 -71 b 97 -74 101 -78 106 -80 b 119 -87 138 -88 153 -91 b 159 -92 167 -93 174 -95 b 189 -98 201 -97 218 -92 b 225 -89 233 -88 241 -87 b 247 -86 252 -84 256 -83 b 264 -81 278 -77 290 -75 b 296 -74 302 -72 310 -68 b 316 -66 322 -63 328 -62 b 340 -58 356 -52 367 -45 b 377 -38 390 -28 401 -25 b 407 -24 412 -21 416 -17 b 422 -11 432 0 434 7 b 440 19 455 39 464 52 b 478 65 477 72 476 88 b 475 113 472 138 455 160 b 436 187 414 205 388 224 b 362 242 338 258 312 273 b 286 288 261 304 237 322 b 231 326 225 328 219 331 b 213 333 208 336 202 340 b 198 341 195 343 192 346 l 179 354 b 171 360 162 364 153 368 b 144 372 135 377 126 382 b 107 395 99 403 98 431 b 98 433 98 437 100 439 b 101 442 102 444 103 448 b 104 452 102 455 100 458 b 98 460 96 462 97 466 b 98 468 98 468 97 467 b 96 464 96 465 97 468 b 98 470 99 472 100 474 b 100 478 108 482 112 486 b 118 488 120 495 120 498 b 119 500 121 504 124 506 b 128 508 134 512 136 517 b 137 519 138 521 140 523 b 144 528 148 531 152 532 b 162 534 168 542 168 547 l 171 552 b 173 555 177 558 181 561 b 185 563 188 565 192 568 b 211 583 228 598 244 618 b 248 623 254 628 261 632 b 274 640 289 647 303 653 b 311 656 318 660 323 664 b 336 673 343 678 356 684 b 362 687 368 690 373 692 b 378 695 384 697 391 698 b 398 701 406 705 412 709 b 418 713 426 718 433 720 b 452 728 469 734 488 741 b 489 737 488 734 487 733 b 482 732 489 726 494 723 b 499 721 501 716 501 711 l 501 703 b 501 688 504 676 508 668 b 512 661 509 652 504 646 b 499 639 500 632 503 628 b 504 627 505 625 505 623 b 505 621 504 618 502 614 b 498 608 496 600 497 594 b 497 592 497 588 496 585 b 493 581 489 572 487 566 b 483 560 482 558 482 550 b 482 541 482 538 476 536 b 475 532 476 530 478 528 b 483 524 483 518 480 511 l 476 501 b 473 493 471 486 470 478 b 469 471 467 464 464 457 b 463 453 462 450 459 446 b 457 442 455 438 453 433 b 450 424 447 415 448 408 b 452 388 467 386 482 388 b 499 391 503 396 512 412 b 523 428 533 443 540 459 b 546 475 550 488 558 500 b 558 502 560 506 562 509 b 565 512 568 517 570 521 b 571 523 572 525 573 527 b 576 529 578 533 575 537 b 581 563 591 587 603 612 z"},"}":{"x_min":0,"x_max":354,"ha":354,"o":"m 304 386 b 303 390 302 392 300 395 b 298 397 295 399 293 402 l 288 410 b 285 416 282 422 278 430 l 273 440 b 273 441 272 442 271 443 b 263 451 262 458 261 465 b 259 466 258 468 257 468 b 253 470 252 473 251 478 b 250 479 248 481 248 483 b 242 488 238 492 232 494 b 224 500 218 504 212 501 b 208 503 204 504 200 507 b 204 516 206 526 202 535 l 205 550 l 204 550 b 205 554 206 558 206 562 b 206 566 207 570 208 574 b 207 574 207 574 207 575 b 206 576 206 577 206 578 b 205 579 203 581 201 582 b 210 582 210 586 211 592 b 212 600 213 608 214 615 l 217 636 b 218 643 216 651 215 658 l 212 658 b 214 660 216 662 217 665 b 218 667 219 668 221 671 b 224 675 225 679 223 683 b 222 684 222 686 223 687 l 223 689 b 229 695 228 700 228 708 b 227 712 226 717 226 721 b 226 725 226 730 225 734 b 225 735 226 737 227 738 b 228 740 230 742 230 743 b 230 744 230 745 231 746 b 232 748 233 752 236 755 l 236 761 l 238 770 b 239 773 239 777 239 779 b 238 795 242 807 248 819 b 252 827 252 835 245 843 l 245 847 b 245 849 246 852 247 856 b 248 860 248 863 248 865 l 248 873 b 248 875 248 878 249 880 b 250 882 250 884 249 885 b 248 888 248 890 248 892 b 247 898 246 902 238 905 b 233 906 230 908 229 911 l 221 919 b 220 922 220 923 221 924 b 222 925 221 927 218 928 b 216 928 213 929 209 929 b 201 928 195 928 191 931 b 187 933 181 932 177 929 b 172 927 169 925 158 928 b 152 928 148 929 146 928 b 126 925 103 921 91 915 b 92 912 94 910 97 910 b 102 908 108 908 112 908 b 115 909 118 909 120 909 l 126 909 b 132 908 136 906 138 903 l 142 898 b 142 898 143 896 144 893 b 145 891 146 888 146 883 b 146 879 147 876 148 873 b 148 872 149 871 149 869 l 148 866 b 149 865 150 864 150 863 l 152 851 l 152 847 b 152 845 152 843 152 842 b 152 838 152 833 152 829 b 151 825 150 820 150 816 l 148 802 b 147 797 146 792 146 787 b 147 783 147 780 146 777 b 145 772 146 769 148 766 l 145 758 b 143 753 142 748 141 743 b 139 738 138 732 136 728 b 135 726 133 722 138 718 b 138 718 138 718 138 717 b 137 716 137 715 137 714 l 137 707 b 137 702 138 696 139 692 b 140 690 139 688 138 687 b 136 682 134 680 137 674 b 138 673 138 672 137 672 l 134 668 b 137 666 138 663 137 661 l 134 652 b 134 649 133 646 132 642 b 132 638 132 634 132 630 b 133 628 134 625 133 623 b 132 621 132 619 132 617 b 131 614 131 612 131 609 b 130 605 132 600 133 594 b 135 588 133 582 131 579 b 129 578 130 575 133 572 b 134 572 134 572 133 570 b 129 561 132 548 134 538 b 135 534 135 531 135 528 b 135 526 134 522 133 520 b 131 517 133 512 136 510 l 149 500 b 153 497 158 492 162 488 b 168 481 174 472 180 463 b 182 462 182 461 183 459 b 184 457 185 456 187 455 b 191 452 193 449 195 447 b 196 444 198 441 199 438 l 202 430 b 202 428 202 425 205 423 b 209 421 211 417 212 412 b 212 409 212 407 212 404 b 213 402 212 401 208 400 l 208 398 b 209 394 209 391 208 390 b 205 388 203 387 201 384 b 198 382 195 379 192 377 b 188 374 185 371 182 368 b 180 364 177 361 174 358 b 171 354 168 350 165 346 b 164 344 162 342 161 340 b 159 338 158 336 159 333 b 159 329 158 326 154 324 b 152 323 150 322 150 322 b 148 318 145 314 142 311 b 140 307 138 302 138 297 b 138 294 138 292 136 291 l 131 288 b 124 284 122 279 122 272 b 122 269 122 266 123 263 b 123 260 122 257 122 254 b 119 248 122 242 125 236 b 128 233 128 228 127 228 b 122 226 120 223 119 220 l 117 208 b 116 208 116 207 116 207 b 113 202 111 198 115 192 b 121 186 119 183 117 178 b 116 174 115 172 116 169 l 118 158 b 119 153 119 148 120 144 b 120 138 119 132 117 123 b 119 121 122 118 116 112 l 116 107 l 116 96 b 115 92 113 90 118 88 b 118 87 118 86 118 85 b 118 83 118 82 118 82 b 117 78 116 78 116 75 b 115 71 114 69 113 69 b 112 68 112 64 112 59 b 112 49 114 44 118 36 b 118 32 118 28 117 25 b 116 21 115 17 116 13 l 116 2 b 115 -1 115 -4 116 -7 b 117 -13 118 -18 118 -22 b 118 -23 118 -26 117 -28 b 117 -31 116 -32 115 -32 b 109 -34 111 -39 113 -42 b 114 -45 114 -48 115 -50 b 116 -52 116 -54 116 -56 b 117 -62 117 -68 117 -72 b 116 -78 116 -84 117 -90 b 117 -92 117 -93 118 -94 l 118 -98 b 117 -99 116 -99 116 -99 b 115 -99 114 -100 113 -101 b 114 -102 114 -103 114 -107 b 114 -108 114 -108 115 -108 l 115 -111 b 116 -112 116 -114 116 -116 b 116 -120 118 -125 118 -130 b 119 -132 119 -136 120 -139 l 120 -145 b 119 -151 118 -156 118 -160 b 118 -164 119 -170 120 -176 b 118 -178 117 -180 116 -182 b 115 -185 114 -186 113 -185 b 111 -183 109 -183 108 -184 b 106 -185 104 -185 102 -182 b 94 -177 86 -180 81 -188 b 76 -195 84 -207 92 -209 b 95 -210 99 -213 104 -218 b 107 -221 109 -222 113 -221 b 120 -219 128 -218 138 -216 b 148 -214 157 -212 163 -208 b 164 -207 166 -205 168 -201 b 172 -198 175 -193 178 -189 l 181 -121 l 181 -118 l 182 -98 b 182 -97 182 -96 182 -94 l 184 -78 b 184 -72 185 -67 186 -61 b 187 -58 186 -54 182 -52 b 178 -49 178 -45 181 -41 b 182 -39 182 -37 182 -32 b 183 -28 185 -23 187 -18 b 188 -14 188 -9 188 -3 b 188 2 188 4 182 8 l 181 8 b 183 11 185 14 186 17 b 187 18 188 19 188 21 b 187 22 187 23 188 24 b 192 27 194 29 195 33 b 195 38 196 41 197 44 b 198 48 199 51 197 53 b 192 59 193 63 198 67 b 197 69 196 71 195 72 b 194 72 193 74 194 75 b 197 84 199 92 195 102 b 195 102 195 102 196 103 b 196 104 196 104 196 105 l 198 112 b 198 114 198 116 198 117 b 199 126 202 133 204 139 b 207 144 208 149 206 154 b 205 156 205 158 206 159 b 207 160 207 162 207 163 b 208 166 209 168 212 171 b 214 173 213 177 209 181 l 208 182 b 208 184 208 188 209 190 b 209 195 208 200 208 206 b 207 208 208 211 212 212 b 213 212 213 212 213 212 b 213 213 213 213 214 213 l 219 231 b 220 234 221 237 221 240 b 221 241 221 242 220 243 b 219 244 219 244 220 245 b 223 251 219 253 215 257 b 212 258 211 261 212 263 l 214 272 b 215 276 216 278 218 281 l 225 292 b 228 296 230 298 233 301 b 236 302 238 304 239 307 b 240 308 242 310 242 311 b 243 312 244 312 244 313 b 244 314 244 315 245 316 b 249 318 252 322 256 326 b 259 329 262 332 266 335 b 267 336 268 336 269 336 b 270 336 272 337 272 338 b 272 340 272 341 273 342 l 280 349 b 282 352 285 352 288 353 b 293 356 299 359 303 363 l 316 375 b 313 378 312 380 312 382 b 311 385 308 387 304 386 z"},"Z":{"x_min":0,"x_max":558,"ha":558,"o":"m 616 700 b 612 704 610 708 610 709 l 608 731 b 607 738 605 743 602 748 b 598 756 594 760 590 761 l 573 763 b 571 764 568 765 566 767 b 561 769 556 770 549 766 b 546 763 542 762 540 761 b 539 762 539 766 539 770 b 535 766 532 764 529 765 b 526 765 522 764 519 763 b 507 761 507 761 496 767 b 482 772 470 778 458 770 b 445 762 442 762 429 767 b 418 769 408 771 398 770 b 392 768 385 768 379 768 l 359 768 b 352 768 351 767 345 763 b 341 761 337 760 332 761 b 324 762 311 763 297 759 b 294 758 292 758 292 758 b 291 757 289 756 288 757 b 287 758 285 758 284 760 b 282 761 281 762 280 762 b 271 768 253 765 248 754 b 247 758 245 759 244 760 b 241 761 238 759 234 757 b 231 753 228 753 223 755 b 221 756 219 756 218 756 b 213 756 211 755 210 754 l 204 750 b 200 748 195 748 191 750 b 187 752 182 751 178 748 b 172 747 168 745 166 742 b 159 738 149 737 143 737 b 137 737 134 736 129 732 b 124 729 121 729 118 731 b 118 732 115 732 112 732 b 113 732 108 728 108 728 b 103 728 99 728 95 729 b 87 731 80 720 80 716 b 80 713 80 712 81 710 b 81 706 81 702 75 700 b 86 692 88 678 92 663 b 94 649 95 634 108 625 b 115 618 118 618 125 621 b 126 622 128 622 129 621 b 132 620 135 622 135 626 b 134 627 135 628 136 628 b 138 629 142 631 145 632 l 154 634 b 160 636 166 638 169 645 b 170 642 184 644 188 645 b 189 645 191 646 192 647 b 192 648 194 648 195 648 b 197 648 198 647 199 645 b 202 642 202 642 208 642 b 212 642 218 644 224 646 b 230 648 233 651 231 652 b 230 652 230 654 231 657 b 237 654 242 653 244 655 b 249 658 258 660 264 657 b 267 655 269 654 270 654 b 272 657 275 662 272 664 b 277 665 281 665 285 664 b 293 662 304 664 306 671 b 307 673 309 676 313 678 b 312 674 315 672 319 672 b 328 670 341 672 352 673 b 358 674 362 674 364 674 b 373 675 382 675 392 674 b 402 673 409 676 415 681 b 416 679 416 678 417 677 b 417 676 417 674 418 672 b 420 675 421 677 422 676 b 422 674 428 673 429 674 l 433 674 b 438 675 442 677 447 678 b 456 682 467 682 471 677 b 474 672 467 663 462 661 b 460 659 458 658 457 657 b 452 653 449 650 452 644 b 448 645 444 644 442 642 b 436 639 432 632 428 626 b 423 618 418 610 408 601 b 402 597 398 592 395 586 b 392 580 392 577 386 571 b 382 565 380 565 376 556 b 370 543 361 531 352 518 b 348 512 342 507 337 501 b 330 495 324 489 320 482 b 318 479 317 478 316 475 b 315 472 314 470 312 468 b 310 465 308 462 308 460 b 306 458 304 456 302 454 b 303 451 302 448 302 448 b 295 448 292 448 285 444 b 278 440 272 435 273 432 b 274 430 273 428 272 423 l 270 422 b 269 421 268 421 267 421 b 267 415 263 407 258 402 b 256 399 252 396 250 392 b 247 384 242 380 234 383 b 232 381 229 376 228 370 b 225 358 219 347 208 339 b 204 334 200 330 197 327 b 193 322 190 318 187 312 b 183 307 180 302 178 295 b 175 292 173 290 172 289 b 169 288 168 287 165 284 b 162 281 160 277 158 271 b 155 259 150 251 144 248 b 138 244 134 238 134 234 b 134 232 133 230 132 228 b 129 224 122 220 119 218 b 115 213 112 208 108 202 b 100 192 89 184 92 171 b 85 172 80 168 78 162 b 74 149 67 138 58 132 b 53 130 49 125 47 118 b 46 116 45 113 45 112 l 42 103 b 40 101 38 98 38 95 b 34 88 28 80 18 75 b 14 72 11 68 10 61 b 7 48 4 35 -8 28 b -11 28 -12 27 -15 27 b -20 27 -27 21 -26 16 b -25 11 -28 -1 -34 -3 b -37 -4 -38 -8 -36 -16 b -33 -33 -29 -42 -13 -45 b -16 -48 -18 -51 -17 -52 b -17 -52 -16 -53 -14 -54 b -11 -55 -7 -56 -9 -62 b -6 -55 -1 -58 3 -63 b 8 -70 12 -78 12 -82 b 17 -80 21 -79 23 -78 b 26 -78 29 -78 32 -77 b 34 -76 36 -75 37 -75 b 38 -76 39 -75 40 -74 b 42 -72 43 -68 44 -64 b 45 -56 51 -50 54 -53 b 58 -57 65 -63 72 -68 b 78 -72 87 -67 91 -60 b 95 -53 103 -48 116 -44 b 122 -43 128 -42 133 -39 b 152 -32 163 -25 182 -28 b 188 -30 192 -30 195 -28 b 200 -25 210 -21 220 -23 b 225 -24 229 -25 232 -25 b 242 -25 251 -26 261 -28 b 270 -31 280 -33 289 -34 b 310 -37 330 -36 350 -30 b 358 -28 366 -28 373 -29 b 381 -32 388 -31 394 -28 b 395 -32 397 -35 398 -38 b 403 -31 411 -33 418 -34 b 428 -37 432 -36 442 -33 b 450 -32 458 -32 467 -35 b 483 -41 496 -38 506 -37 b 510 -36 515 -37 521 -38 b 523 -38 528 -39 534 -39 b 540 -39 544 -40 547 -42 b 548 -43 550 -45 551 -47 b 552 -48 552 -50 553 -51 l 557 -51 b 558 -51 559 -51 560 -50 l 562 -50 b 569 -52 570 -52 579 -45 b 576 -44 572 -41 569 -37 b 568 -36 568 -34 569 -32 b 569 -30 568 -27 567 -23 b 566 -22 566 -20 566 -18 b 566 -18 567 -17 569 -18 b 571 -18 572 -18 571 -15 b 564 -15 562 -4 566 2 b 563 2 562 3 562 8 b 561 12 562 16 562 21 l 565 35 b 567 44 562 51 553 50 b 544 49 536 48 527 51 b 522 52 518 52 513 52 b 511 52 508 52 505 52 b 499 51 493 49 492 52 b 492 53 490 52 488 50 b 487 52 484 54 481 55 b 474 55 465 53 458 51 b 454 50 452 49 449 49 b 444 49 439 51 435 53 b 430 56 425 58 421 58 b 418 58 417 58 415 57 b 412 56 405 53 401 54 b 398 55 396 55 393 55 b 389 54 384 53 380 51 b 371 47 361 44 353 48 b 346 52 336 58 318 55 b 316 55 312 55 309 56 b 302 57 295 57 288 51 b 284 48 280 47 275 48 b 269 48 263 48 259 48 b 249 46 233 42 215 45 b 206 46 196 46 187 45 b 181 44 178 44 175 44 b 172 44 170 44 168 45 l 162 45 b 159 45 156 45 150 44 b 144 43 131 42 128 49 b 121 63 134 61 140 61 b 138 63 136 65 132 67 b 134 68 135 69 136 69 b 137 69 137 69 138 68 b 138 68 138 68 138 68 b 138 68 139 68 140 71 b 142 75 145 80 146 85 b 148 94 151 101 158 104 b 166 107 168 117 169 123 b 170 130 172 134 177 138 b 182 141 183 145 184 149 b 185 152 192 159 197 163 b 202 168 204 174 204 182 b 204 187 205 190 207 193 l 212 197 b 214 199 220 203 221 210 b 222 213 222 216 224 218 b 223 218 224 218 225 218 b 226 219 228 219 228 220 b 229 221 231 221 232 222 l 232 222 b 233 223 237 227 237 228 b 239 230 242 232 244 232 b 247 233 248 236 251 239 b 258 252 267 266 278 278 b 282 284 287 290 290 298 b 292 304 298 309 304 313 b 307 316 311 318 315 320 b 319 321 322 323 324 328 b 323 328 322 328 322 331 b 318 335 321 339 324 341 b 325 342 327 342 328 344 b 330 348 333 351 336 353 b 338 356 341 359 343 362 b 346 366 348 368 352 369 b 354 370 357 372 359 375 b 365 381 366 389 368 397 b 368 396 368 397 369 398 b 369 399 369 401 370 402 b 371 403 371 405 371 406 l 371 407 b 372 409 373 411 375 412 b 378 412 383 418 386 423 b 387 426 389 428 392 432 b 400 438 404 442 410 452 b 412 456 414 460 418 464 b 418 465 418 465 419 464 b 420 463 420 463 421 464 l 431 479 b 438 489 447 500 458 511 b 468 521 480 533 488 545 l 501 562 b 521 590 543 612 567 632 b 579 642 592 647 608 651 b 610 652 612 653 615 654 b 618 655 619 657 620 661 b 621 667 608 677 604 679 b 606 679 608 679 611 678 b 613 678 617 678 619 678 b 625 677 631 677 632 679 l 626 686 b 622 690 619 695 616 700 z m 248 754 b 252 764 245 763 248 754 z m 632 679 b 632 678 632 678 632 678 b 632 678 632 678 632 679 z m 634 677 b 633 677 633 678 632 678 b 635 675 636 674 634 677 z m 232 222 b 232 221 232 221 232 221 z"},"x":{"x_min":0,"x_max":448,"ha":448,"o":"m 547 380 b 543 383 540 385 537 385 b 532 385 529 384 527 382 b 517 375 507 368 499 358 b 490 347 480 336 470 325 b 460 314 450 303 441 292 b 421 270 403 247 390 219 l 388 216 b 375 209 368 197 362 184 b 356 172 350 158 339 150 b 338 140 335 132 329 127 b 323 121 318 114 313 108 b 299 88 282 73 260 62 b 249 56 240 60 232 75 b 230 82 227 90 223 98 b 216 111 211 127 210 143 l 208 168 b 205 193 208 215 232 228 b 238 230 242 235 248 241 b 251 244 256 248 256 254 b 257 268 261 281 268 291 b 275 300 281 311 285 323 l 292 341 b 298 352 305 362 315 371 b 320 375 325 379 329 384 b 332 387 333 390 334 393 b 336 400 338 408 342 418 b 344 422 346 428 347 433 b 348 442 351 451 355 458 b 359 466 362 474 367 482 b 374 498 382 512 382 532 b 382 533 383 535 384 536 l 386 538 b 388 544 390 551 392 557 b 395 562 397 568 398 574 b 398 583 400 593 402 602 b 404 612 402 622 398 633 b 382 644 368 655 353 667 b 338 678 322 688 303 693 b 302 691 301 688 300 687 b 299 684 298 682 298 679 b 298 667 297 654 296 642 l 293 603 b 292 599 292 594 292 589 l 290 575 b 283 552 276 529 267 507 b 260 489 254 474 238 462 b 232 456 226 446 225 436 b 222 417 218 402 203 390 b 201 388 198 385 198 381 b 197 377 195 373 193 369 b 188 359 180 352 167 354 b 161 366 158 378 156 388 b 152 411 152 432 152 456 b 152 467 151 478 149 490 b 140 492 132 495 123 499 l 98 509 b 80 515 63 519 46 517 b 45 514 45 512 44 511 b 43 509 43 508 42 505 b 39 502 37 498 35 493 b 34 492 32 490 32 488 b 31 485 29 484 28 484 b 21 484 16 482 14 478 b 12 472 11 468 8 463 b 2 452 -2 441 -15 437 b -21 434 -24 429 -25 422 b -25 418 -26 416 -28 413 b -30 411 -32 409 -33 407 b -38 402 -41 398 -41 391 b -41 388 -42 388 -47 388 b -52 388 -57 386 -58 382 b -61 376 -63 366 -64 356 b -65 346 -71 336 -78 326 b -82 321 -85 316 -88 311 b -98 295 -107 280 -101 258 l -98 249 b -98 243 -88 240 -85 243 b -82 247 -80 250 -74 252 b -72 253 -68 255 -66 257 b -59 261 -56 268 -52 276 b -50 280 -48 284 -45 288 b -38 298 -30 307 -21 316 l -8 333 b -5 339 1 343 8 346 b 11 347 12 348 12 349 b 22 366 30 382 47 395 b 53 399 59 403 65 409 b 71 390 76 372 78 353 b 82 324 84 296 95 267 b 102 247 97 230 90 214 b 88 210 86 206 83 202 b 81 199 78 195 78 191 b 73 178 67 166 56 157 b 42 146 33 131 23 118 b 13 103 3 89 -11 79 b -12 78 -14 74 -15 70 b -21 54 -33 45 -46 35 b -49 32 -52 30 -57 28 b -61 25 -64 22 -68 19 b -75 12 -81 6 -81 -7 b -81 -11 -82 -13 -86 -16 b -90 -18 -93 -22 -96 -24 l -128 -57 b -148 -78 -165 -97 -176 -112 b -182 -121 -189 -127 -200 -130 b -204 -132 -206 -135 -207 -139 b -208 -148 -202 -162 -185 -165 b -172 -166 -158 -167 -145 -165 b -132 -163 -122 -159 -112 -148 b -73 -127 -40 -99 -12 -65 l -4 -57 b -2 -54 2 -52 6 -51 b 15 -47 22 -42 28 -34 l 46 -12 b 51 -6 55 2 59 9 b 63 17 69 22 78 26 b 81 27 83 29 84 32 b 85 36 87 39 89 42 b 97 50 104 59 111 69 b 117 78 127 85 140 88 b 142 84 146 81 149 78 b 152 73 154 69 156 65 b 162 51 169 41 179 34 b 198 20 222 15 239 12 b 248 11 256 8 265 6 b 278 2 290 -1 302 -1 l 339 -1 b 351 -1 360 2 368 8 b 382 18 389 37 395 52 b 398 59 402 66 407 72 b 409 74 412 78 413 82 l 418 94 b 422 102 425 108 434 112 b 437 113 438 117 438 121 b 442 133 448 143 454 153 b 460 163 465 173 466 187 b 467 189 468 191 470 192 b 472 193 473 195 474 198 b 480 208 487 219 494 230 b 502 241 507 252 510 266 b 515 287 524 306 538 324 b 542 329 545 335 547 342 b 548 349 550 356 552 362 b 554 368 552 374 547 380 z"},")":{"x_min":0,"x_max":396,"ha":396,"o":"m 202 899 b 204 896 206 892 208 890 b 208 888 210 884 211 882 l 218 868 b 220 863 222 858 226 854 b 239 838 243 824 247 805 b 248 800 249 795 250 790 b 251 784 253 779 256 775 b 262 768 264 759 265 752 b 266 744 268 736 270 728 b 272 723 272 718 273 712 l 276 696 b 277 692 277 688 277 685 b 277 681 277 678 278 673 b 278 671 278 669 278 668 b 279 666 279 664 279 662 b 280 658 280 653 280 649 b 280 645 280 641 280 637 l 282 634 b 282 633 282 632 283 631 b 288 626 288 621 284 616 b 283 615 282 613 282 611 b 282 608 283 606 284 605 b 288 596 289 588 285 582 b 290 579 292 578 290 575 b 288 572 288 570 289 568 b 295 557 295 548 288 541 b 287 540 286 538 286 537 b 285 534 285 532 284 531 b 283 527 283 522 283 518 l 283 504 b 281 501 279 496 280 493 b 282 490 284 488 283 485 b 282 481 279 473 280 466 b 282 456 284 446 285 436 b 285 435 284 433 282 432 b 281 431 280 429 280 428 b 279 423 278 418 278 413 b 278 408 278 403 278 398 b 277 396 277 394 277 392 b 276 389 275 387 274 386 b 270 379 271 373 277 368 b 283 361 278 358 274 355 b 272 352 270 349 269 347 b 268 340 269 336 271 331 b 272 328 271 326 270 325 b 263 319 262 311 262 301 b 262 297 262 292 260 289 b 258 285 258 281 262 277 b 263 276 263 274 262 272 b 259 267 258 262 257 259 b 256 258 256 256 257 254 b 261 245 258 240 249 239 b 248 237 248 233 248 231 b 248 228 248 225 248 222 l 245 214 b 244 212 242 208 242 205 b 241 202 241 201 240 199 b 239 197 238 195 238 192 b 238 187 237 182 238 176 b 238 164 235 151 229 138 b 226 132 223 125 221 118 b 218 110 214 103 208 97 b 207 96 206 92 206 88 l 204 72 b 203 66 201 62 197 58 b 191 56 189 52 190 46 b 191 39 189 35 186 29 b 183 26 182 22 182 19 b 181 10 178 2 172 -4 b 162 -17 152 -31 158 -40 l 155 -43 b 152 -47 149 -49 149 -53 b 149 -56 148 -57 148 -58 b 141 -60 137 -63 135 -68 b 133 -73 131 -78 128 -82 b 124 -88 122 -95 120 -101 b 118 -108 115 -113 111 -119 b 107 -123 102 -128 99 -133 b 96 -139 92 -144 88 -148 l 82 -152 b 80 -153 78 -154 76 -153 b 73 -152 72 -153 70 -154 b 68 -156 66 -158 64 -158 b 61 -161 58 -163 52 -158 b 52 -158 52 -158 51 -159 l 49 -161 b 48 -162 46 -162 44 -162 b 42 -163 41 -164 40 -163 b 31 -161 29 -168 30 -172 b 31 -178 37 -184 40 -187 b 52 -190 62 -192 72 -191 b 77 -191 80 -190 82 -188 b 85 -188 88 -189 92 -193 b 95 -193 96 -193 97 -192 l 113 -186 b 119 -184 124 -182 130 -180 b 138 -178 142 -171 147 -164 b 151 -157 158 -150 165 -145 b 172 -140 178 -133 182 -125 b 185 -121 188 -118 192 -114 b 194 -112 198 -108 200 -105 b 201 -103 202 -102 203 -99 b 205 -95 208 -88 212 -87 b 214 -86 216 -83 217 -79 b 218 -73 221 -68 225 -62 b 229 -57 233 -51 238 -45 b 240 -42 242 -36 242 -30 b 241 -26 242 -22 244 -20 b 246 -18 248 -16 249 -13 b 255 -9 260 -3 261 4 b 262 12 267 18 273 22 b 277 25 280 30 279 33 b 278 37 279 39 280 42 b 281 44 282 46 283 48 b 286 52 288 57 288 62 b 288 70 293 82 301 95 b 304 101 308 106 310 112 b 312 114 314 117 317 119 b 319 122 319 124 315 127 b 316 129 318 132 318 136 b 319 138 321 140 323 140 b 328 140 331 142 332 145 l 334 152 b 336 157 337 162 338 168 b 338 174 338 180 338 186 b 341 189 343 193 346 199 b 348 203 348 209 343 217 b 341 219 342 224 345 227 b 349 229 351 232 351 235 b 351 238 350 241 349 245 b 349 249 352 252 354 254 b 355 256 355 257 356 258 l 358 260 b 360 266 362 272 364 278 b 366 283 367 289 366 296 b 365 300 365 305 366 310 b 367 314 366 319 362 323 b 361 326 362 328 362 331 b 363 336 365 341 367 346 b 368 351 369 356 370 360 b 371 362 371 364 372 366 b 372 368 372 369 373 371 b 376 373 377 376 377 378 b 377 381 377 384 376 388 b 374 393 372 398 374 404 b 374 404 374 405 373 406 b 368 412 368 413 370 419 b 373 425 376 430 378 436 b 378 438 378 440 378 442 b 377 444 377 446 376 448 l 373 458 b 372 460 372 463 372 466 b 372 469 372 472 373 476 b 374 478 374 482 375 484 b 376 491 378 499 375 502 b 372 506 370 510 368 514 b 365 518 361 521 355 522 b 352 522 351 523 351 526 b 352 529 352 532 352 536 b 352 539 353 542 354 545 b 355 548 355 549 356 552 l 358 559 b 359 562 359 565 358 569 b 358 573 358 576 360 578 b 363 585 361 588 355 592 b 352 594 348 597 342 599 b 344 603 346 608 348 612 b 349 615 351 619 353 623 b 352 626 351 628 350 630 b 348 632 348 633 348 634 b 352 639 352 644 347 648 b 344 651 342 653 340 656 b 338 658 337 660 334 662 b 332 663 331 665 330 668 b 326 672 323 678 321 685 b 322 685 322 686 323 687 b 324 688 324 688 325 688 b 324 693 324 699 324 705 b 324 710 323 715 322 721 b 320 731 317 742 314 748 l 321 761 b 323 764 324 768 324 772 b 325 788 323 802 321 818 l 318 833 b 318 839 315 844 312 850 b 309 854 308 858 308 863 b 308 872 304 883 301 895 b 297 907 293 916 288 922 b 286 926 284 929 283 932 b 282 936 282 938 281 938 b 280 938 278 938 277 939 b 266 942 257 945 251 949 b 245 955 242 955 235 956 b 225 958 213 959 204 969 b 200 975 193 979 186 976 b 183 976 182 976 182 977 b 177 981 172 982 167 982 b 161 982 156 982 151 982 b 148 982 144 982 142 982 b 136 980 140 971 145 965 b 150 958 155 953 162 951 b 168 948 173 943 177 938 b 178 935 180 932 182 930 l 208 904 z"},"&":{"x_min":0,"x_max":726,"ha":726,"o":"m 400 260 l 401 261 b 399 262 398 264 397 266 b 395 268 393 269 391 271 b 387 275 382 278 377 281 b 371 283 368 287 367 291 b 364 297 361 301 357 304 b 349 310 340 317 339 324 b 338 332 340 342 348 348 b 352 351 355 354 358 358 b 361 363 368 368 372 371 b 374 373 376 375 378 376 b 380 377 382 378 382 380 b 385 384 388 388 391 391 b 393 394 396 398 397 401 b 400 408 405 412 411 416 b 417 418 422 422 426 425 b 435 432 441 442 442 453 b 443 456 445 459 448 462 b 450 464 452 468 453 470 b 455 474 458 478 460 481 b 462 483 464 487 466 490 b 467 493 468 496 471 498 b 488 519 505 540 518 566 b 519 567 520 568 522 569 l 524 572 b 527 578 528 585 529 592 b 530 598 532 604 538 609 b 541 612 542 616 543 620 l 546 631 b 555 647 562 659 562 676 l 562 682 b 561 683 561 685 562 688 b 563 694 566 702 568 709 b 571 717 572 724 573 732 b 578 768 572 801 546 830 b 543 832 541 835 537 838 b 532 840 528 842 526 844 b 508 860 489 872 470 882 b 456 888 442 890 428 887 b 403 880 382 875 361 862 b 358 861 354 860 351 859 b 347 858 343 857 340 855 b 334 851 328 848 322 844 b 317 840 310 837 304 832 b 302 831 299 829 297 827 b 294 824 292 822 290 822 b 277 818 268 812 258 802 b 256 800 253 798 251 797 b 248 794 244 792 242 788 b 238 785 235 782 234 780 b 233 776 232 773 229 772 b 227 770 224 768 222 767 b 219 763 216 761 212 755 b 208 748 204 745 198 741 b 188 733 185 727 186 716 b 186 713 184 711 182 710 b 174 702 166 694 157 688 b 154 685 152 683 149 682 b 147 681 146 678 148 673 b 150 671 150 668 148 666 b 148 663 148 660 148 658 b 148 654 147 651 146 648 b 145 646 145 643 145 641 b 144 636 142 629 140 624 b 138 619 135 612 134 605 b 133 602 132 598 131 595 b 123 585 122 578 131 569 b 133 567 134 563 133 560 b 131 550 133 542 138 538 l 138 519 b 138 517 140 515 142 512 b 142 510 143 507 142 504 b 139 493 147 485 152 476 b 158 463 166 453 175 443 b 182 432 191 422 198 413 b 206 403 214 393 222 382 b 227 379 228 376 229 372 b 229 365 226 355 220 348 b 218 344 216 340 217 336 b 217 335 216 333 215 332 b 213 332 212 330 211 329 b 210 327 208 324 206 323 b 203 322 202 320 202 318 b 202 313 201 310 198 308 b 192 305 182 301 182 293 b 179 283 177 273 164 268 b 160 267 158 265 155 263 l 139 248 b 136 246 132 243 130 242 b 117 235 106 228 98 215 b 96 211 93 199 91 190 b 90 185 86 182 78 181 b 77 181 76 180 76 178 b 76 165 66 164 57 162 b 51 161 48 157 48 149 l 46 137 b 45 132 43 129 41 128 b 23 115 12 102 2 88 b -3 82 -6 74 -8 68 b -11 60 -13 52 -14 43 b -16 34 -18 26 -22 18 b -32 -9 -11 -25 3 -38 b 18 -52 36 -65 56 -72 b 66 -77 76 -82 85 -88 b 118 -107 150 -119 188 -122 b 207 -124 224 -121 240 -108 b 244 -105 248 -102 255 -105 b 259 -106 263 -106 268 -105 b 278 -103 288 -98 295 -90 b 298 -86 302 -82 306 -78 b 308 -76 309 -75 312 -76 b 318 -77 318 -74 322 -68 b 323 -66 325 -63 328 -60 b 337 -56 341 -50 340 -42 b 342 -40 344 -38 346 -37 b 348 -35 349 -33 352 -32 b 358 -28 361 -22 364 -18 b 366 -17 367 -15 368 -14 l 372 -2 b 374 2 377 5 379 8 b 381 12 384 15 390 16 b 402 18 402 18 402 27 b 404 29 408 32 410 36 b 412 39 415 42 418 45 b 422 51 428 59 438 52 b 442 49 448 51 448 58 b 448 61 449 67 452 67 b 461 68 459 72 459 80 b 459 82 459 85 460 88 l 460 93 l 479 93 l 477 99 b 476 101 474 102 473 103 b 476 104 478 104 480 104 l 487 104 b 478 112 482 118 487 124 b 490 128 492 133 494 139 b 497 145 499 150 507 142 b 509 140 512 138 516 135 b 518 132 522 130 524 128 l 549 116 b 558 112 566 107 573 102 l 602 85 b 611 79 621 73 630 68 l 640 63 b 647 59 652 58 657 58 b 659 59 661 58 663 58 b 679 48 692 45 711 48 b 712 48 714 49 715 52 b 716 53 718 55 718 56 b 719 57 720 58 719 60 b 718 61 719 62 720 63 b 722 68 722 72 720 75 b 716 81 708 87 700 91 b 696 92 692 95 688 98 b 686 99 684 101 682 102 b 679 106 677 108 673 110 b 670 112 668 112 666 112 b 664 112 662 112 662 112 b 654 113 646 116 638 118 b 630 121 622 122 613 123 b 590 126 569 132 555 152 b 554 152 554 152 554 153 l 552 153 b 550 152 548 152 546 152 b 543 151 542 152 541 152 b 535 158 532 163 528 169 b 530 170 532 172 533 173 l 540 176 b 552 176 552 185 552 192 b 553 206 553 218 563 226 l 563 232 b 562 233 562 235 563 237 b 566 244 566 251 577 253 b 581 254 584 273 580 282 b 589 290 597 299 603 308 b 602 309 602 310 602 311 b 602 312 602 313 601 314 l 603 314 b 606 320 608 325 608 332 b 609 335 609 338 610 340 b 610 342 612 343 614 345 b 618 346 619 353 619 358 b 619 362 621 366 625 369 b 632 372 638 378 632 388 b 638 392 643 397 648 402 b 654 413 658 427 660 441 b 661 448 662 454 664 462 b 664 464 661 468 658 470 b 659 471 661 472 662 475 b 662 477 663 478 664 479 l 658 479 b 642 469 625 460 612 444 b 609 439 606 435 602 432 b 594 424 585 417 578 412 b 574 410 572 408 571 404 b 569 397 566 391 561 388 b 556 385 552 381 548 377 b 542 371 535 365 528 359 b 521 353 516 347 512 338 b 512 338 512 337 509 336 b 507 335 503 333 500 331 b 496 328 492 326 489 325 b 477 322 478 316 478 307 b 478 298 471 288 460 288 b 463 278 463 278 453 278 b 448 275 432 263 432 257 b 432 242 417 251 410 254 b 406 255 402 258 399 260 z m 243 442 b 241 446 239 451 240 456 b 240 461 238 466 233 470 b 231 472 229 474 229 478 b 228 486 228 495 228 505 b 228 510 228 515 228 521 b 228 523 227 526 226 528 b 225 531 225 532 226 535 b 227 538 227 542 225 546 b 222 550 223 553 227 558 b 228 558 228 560 228 562 b 227 569 228 576 232 582 b 236 588 239 593 242 599 b 244 602 246 605 247 609 l 249 621 b 253 640 260 653 272 669 b 275 672 278 676 280 680 b 284 688 290 696 298 700 b 302 702 305 708 306 715 b 307 718 308 719 312 721 b 317 722 320 724 323 727 b 331 732 341 738 344 751 b 345 757 353 760 360 762 b 369 765 379 768 386 777 l 399 790 b 403 794 409 797 417 798 b 420 798 425 802 429 807 b 439 818 452 820 466 821 b 468 822 471 822 473 822 b 475 822 477 822 479 823 b 489 824 492 818 497 812 b 502 803 503 798 504 792 b 505 785 506 780 505 774 b 504 768 503 762 503 752 l 501 741 b 501 735 499 732 497 728 b 496 722 494 718 493 712 b 492 707 491 702 489 696 l 489 695 b 483 691 481 685 482 678 b 482 671 481 665 478 659 b 474 650 468 642 464 636 b 459 627 455 618 452 611 b 444 594 434 578 422 567 b 417 561 410 555 404 548 b 402 546 400 544 398 540 b 395 537 391 532 386 528 b 385 528 385 526 385 525 l 382 522 b 380 516 377 509 373 507 b 363 505 356 501 352 494 b 342 481 332 466 324 450 b 320 442 312 436 303 430 b 301 428 298 426 298 422 b 296 418 294 414 292 412 b 292 409 290 408 289 405 b 284 402 281 398 278 394 b 274 391 272 388 268 394 b 265 400 262 406 259 411 b 257 415 253 420 251 426 b 250 427 250 428 250 428 l 248 432 b 247 435 245 438 243 442 z m 404 202 b 402 204 400 206 398 208 l 395 202 b 394 199 392 198 391 197 b 387 194 382 192 378 189 l 365 181 b 361 178 358 174 361 168 b 364 161 360 158 354 154 b 352 153 351 152 348 150 b 339 138 319 130 305 139 b 304 140 302 140 302 140 b 300 139 298 139 295 140 l 323 112 b 318 102 314 96 312 90 b 311 89 311 89 310 89 b 309 89 308 89 308 88 l 304 86 b 302 85 302 83 302 82 b 298 68 288 58 276 53 b 273 52 272 51 270 49 b 268 48 265 47 262 47 b 258 47 255 45 252 42 b 250 38 247 34 244 32 b 243 30 242 28 239 27 b 238 26 238 25 237 25 b 236 24 235 24 235 23 b 236 18 233 13 229 11 b 219 7 215 -1 212 -5 b 209 -11 206 -17 198 -16 b 194 -15 190 -15 187 -16 b 180 -19 176 -21 172 -21 l 166 -21 b 160 -21 150 -29 150 -33 b 150 -41 146 -46 138 -49 b 121 -55 103 -58 87 -58 b 84 -58 79 -57 79 -54 b 78 -49 78 -44 77 -38 l 74 -22 b 74 -18 74 -16 75 -13 b 78 -4 80 7 83 17 b 83 18 83 18 84 18 l 97 36 b 100 42 104 48 108 53 b 109 54 110 56 111 58 b 111 59 112 61 112 63 b 118 80 131 89 143 97 b 146 99 148 102 148 102 b 152 112 155 121 158 130 b 158 132 158 134 158 134 b 164 137 168 139 171 143 b 173 147 178 149 182 151 b 192 157 199 165 205 175 b 208 178 210 182 211 187 b 212 191 212 195 214 199 b 215 202 217 203 218 206 b 220 210 222 213 225 217 b 228 220 230 223 234 228 b 238 232 242 237 246 239 b 255 245 259 250 265 256 b 279 268 294 280 308 291 b 311 292 313 292 314 291 b 328 285 341 274 351 263 b 352 262 353 260 356 258 b 358 257 360 255 361 254 b 362 253 364 252 367 251 l 373 246 b 377 242 380 238 386 234 b 390 232 393 230 396 226 b 398 222 400 218 402 216 l 405 210 b 405 208 406 207 407 204 l 406 203 b 405 203 405 202 404 202 z"},"_":{"x_min":0,"x_max":988,"ha":988,"o":"m 599 -151 l 612 -151 b 615 -152 618 -152 622 -152 b 625 -152 627 -151 629 -150 b 632 -149 633 -150 636 -151 b 642 -152 648 -153 653 -156 b 659 -159 665 -159 669 -157 b 673 -154 678 -153 682 -152 b 687 -152 692 -152 696 -152 b 702 -151 708 -151 713 -150 b 719 -149 724 -151 730 -153 b 733 -157 738 -155 742 -153 b 743 -152 745 -152 746 -153 b 748 -154 751 -156 753 -157 b 756 -158 758 -158 760 -158 b 768 -155 777 -158 785 -160 b 793 -162 801 -164 808 -160 b 809 -159 811 -158 812 -159 b 813 -160 815 -161 817 -162 b 820 -162 824 -165 827 -162 b 831 -158 836 -157 841 -159 b 845 -162 850 -162 855 -162 b 862 -162 870 -163 878 -167 b 884 -171 892 -172 899 -171 b 907 -170 913 -172 918 -176 b 923 -181 929 -185 935 -188 b 948 -192 958 -204 967 -218 b 968 -222 974 -225 977 -224 b 979 -222 982 -218 985 -215 b 991 -208 994 -201 992 -191 b 989 -182 984 -176 976 -169 b 972 -167 971 -161 974 -152 l 973 -152 b 969 -145 964 -138 968 -128 b 968 -123 964 -120 961 -117 b 958 -113 954 -108 952 -100 b 948 -93 944 -88 938 -86 b 936 -85 933 -83 931 -82 b 913 -73 898 -67 881 -59 l 878 -59 b 873 -58 868 -58 864 -58 b 860 -58 855 -57 851 -55 b 841 -51 830 -43 818 -53 b 815 -56 810 -53 807 -52 b 805 -51 803 -51 802 -50 b 795 -48 789 -46 783 -45 l 769 -42 b 764 -42 760 -42 756 -43 b 754 -44 752 -43 751 -42 b 749 -42 748 -42 746 -41 b 742 -41 738 -41 735 -45 b 734 -45 734 -45 734 -44 l 733 -43 b 731 -42 728 -41 727 -42 b 721 -44 716 -45 712 -44 b 702 -43 697 -45 691 -54 b 678 -52 665 -51 652 -49 l 613 -44 b 611 -47 607 -50 604 -50 b 598 -49 592 -50 588 -52 b 582 -55 576 -55 570 -52 b 570 -52 570 -51 569 -52 l 567 -53 b 564 -58 561 -59 557 -58 b 552 -58 549 -57 546 -58 b 543 -58 540 -58 537 -57 l 525 -54 b 519 -45 518 -48 511 -61 b 510 -62 510 -63 509 -64 b 508 -66 508 -67 507 -67 b 504 -68 502 -68 499 -68 b 497 -69 493 -68 491 -68 b 482 -67 473 -67 465 -69 b 456 -72 448 -71 438 -68 b 438 -68 438 -68 437 -68 b 436 -69 435 -70 434 -70 l 426 -72 b 420 -72 414 -72 408 -71 l 392 -71 b 382 -72 377 -72 369 -75 b 357 -79 347 -82 334 -85 b 327 -88 318 -88 312 -79 b 312 -77 310 -76 308 -76 b 305 -76 302 -77 302 -78 b 296 -81 291 -82 286 -82 b 280 -82 275 -82 270 -81 b 268 -80 266 -80 263 -81 b 258 -81 252 -80 248 -78 b 242 -78 237 -78 231 -81 b 227 -82 223 -82 219 -80 b 215 -79 211 -78 207 -78 b 205 -78 203 -77 201 -78 b 198 -78 197 -79 194 -79 l 190 -79 b 188 -80 187 -80 185 -79 b 176 -73 168 -69 159 -80 b 150 -89 144 -89 141 -81 b 138 -80 136 -80 133 -79 b 131 -79 128 -79 126 -78 b 119 -78 112 -76 107 -74 b 100 -73 93 -73 88 -74 b 78 -76 70 -73 62 -68 b 53 -75 48 -74 38 -67 b 37 -66 35 -65 33 -65 b 32 -65 30 -64 28 -63 l 22 -61 b 19 -61 16 -60 13 -59 b 4 -68 2 -78 8 -91 b 9 -92 10 -94 10 -97 b 12 -102 13 -108 14 -114 b 15 -120 17 -124 19 -127 b 23 -131 25 -136 25 -140 l 25 -153 b 25 -169 25 -170 38 -173 b 36 -182 43 -200 52 -203 b 62 -208 70 -214 81 -208 b 87 -206 92 -204 98 -204 b 103 -204 108 -202 112 -197 b 113 -196 116 -196 120 -197 b 131 -201 141 -202 151 -195 b 153 -194 155 -192 157 -192 b 158 -191 160 -192 162 -194 b 165 -197 168 -195 171 -192 b 173 -190 176 -188 178 -186 l 186 -179 b 198 -202 214 -193 225 -189 b 235 -185 247 -182 258 -182 l 274 -182 l 276 -182 b 285 -188 298 -182 300 -175 b 308 -175 314 -175 321 -176 b 327 -177 333 -177 339 -177 b 341 -177 342 -176 342 -175 b 345 -169 348 -167 352 -166 b 357 -166 361 -166 363 -165 b 371 -163 379 -162 387 -163 b 394 -164 402 -165 409 -164 b 417 -164 424 -161 431 -158 l 438 -156 b 439 -156 442 -156 444 -155 l 457 -152 b 461 -152 465 -152 470 -152 b 472 -156 474 -158 478 -159 b 486 -160 493 -157 502 -152 b 507 -150 512 -149 517 -148 b 528 -146 537 -148 546 -157 b 555 -167 555 -167 561 -160 b 569 -158 576 -155 581 -153 b 588 -153 591 -152 595 -152 b 597 -151 598 -151 599 -151 z"},"v":{"x_min":0,"x_max":418,"ha":418,"o":"m 242 -1 l 242 2 b 241 3 241 4 241 5 b 238 18 242 28 248 34 b 256 41 262 48 267 57 b 268 59 269 62 271 65 b 272 68 273 70 273 72 b 272 85 281 87 288 90 b 302 99 298 113 298 123 b 297 128 299 132 304 135 b 305 136 306 138 308 140 l 310 156 b 311 160 312 165 317 169 b 319 172 321 175 320 179 b 319 183 322 186 326 188 b 325 189 325 189 325 190 l 325 192 l 328 200 l 330 203 b 331 204 331 206 332 207 l 337 215 b 339 221 342 228 349 235 b 352 238 355 242 356 248 b 357 258 363 268 370 278 b 372 283 373 289 372 297 b 372 298 373 298 374 299 l 377 302 b 380 305 382 311 385 318 b 388 324 389 330 393 337 b 395 339 396 342 397 346 b 398 353 399 362 399 370 b 399 378 402 385 410 390 b 412 392 413 394 413 395 b 415 399 416 402 416 407 b 413 408 411 409 408 409 l 408 412 l 412 412 b 412 412 412 412 413 412 b 414 415 416 417 417 418 b 418 419 418 421 419 422 b 420 427 422 431 422 435 l 425 447 b 426 450 427 453 428 457 b 429 459 428 463 426 468 b 428 468 429 468 429 471 l 429 474 b 428 475 428 475 428 476 b 434 478 436 484 434 492 b 433 493 433 495 434 496 b 434 497 434 498 434 498 l 437 523 b 438 531 438 539 438 547 b 438 551 438 555 438 559 b 437 563 436 568 436 572 b 436 588 435 602 415 612 l 408 614 b 405 615 402 616 402 618 b 395 628 393 622 390 617 b 386 619 382 619 380 617 b 376 612 373 606 373 599 b 373 595 371 592 367 592 l 367 587 b 366 584 366 581 367 578 b 367 575 366 572 364 572 b 358 568 358 563 362 559 l 356 552 b 353 548 352 543 350 539 b 347 530 343 523 341 518 b 338 512 336 508 337 503 b 338 501 338 499 338 497 l 338 490 b 338 488 338 486 337 483 l 337 479 b 334 478 332 478 332 476 b 331 472 329 468 329 465 b 328 462 328 461 326 460 b 325 459 324 458 325 457 b 326 455 326 453 326 452 b 328 442 325 437 315 434 l 317 432 b 318 431 318 429 318 428 b 316 424 316 419 318 415 b 322 409 324 400 314 398 b 312 398 312 397 311 394 l 308 388 b 308 388 308 386 308 385 b 308 384 307 382 306 382 b 298 374 296 365 298 354 b 298 352 297 348 295 345 b 291 332 286 319 282 308 b 281 305 279 302 277 298 b 274 294 272 291 269 288 b 267 283 263 280 261 276 b 260 275 260 274 260 273 b 266 257 258 243 252 230 b 251 228 250 225 250 221 b 249 220 249 219 249 218 l 249 216 b 245 217 243 217 243 214 l 241 208 b 238 203 236 198 235 194 b 233 190 232 185 229 181 l 226 178 b 223 175 221 173 217 171 b 214 170 213 168 213 168 b 212 157 208 149 201 145 b 198 144 197 142 196 141 b 194 139 192 138 191 137 b 188 129 180 116 170 105 b 159 94 148 84 141 84 l 138 90 b 138 92 136 93 134 94 b 128 102 128 108 131 115 b 135 122 135 132 129 138 b 121 147 120 155 126 163 b 123 167 122 171 119 175 b 114 182 113 188 117 194 b 118 198 118 201 118 203 b 117 211 115 218 114 224 b 112 238 111 251 112 264 b 112 270 112 277 111 283 b 110 290 109 297 110 303 b 110 309 110 316 109 322 b 109 332 110 341 111 349 b 112 357 112 366 112 375 b 107 379 104 385 107 392 b 109 400 112 408 114 416 l 122 440 b 114 442 107 446 99 448 l 78 456 b 72 458 65 460 59 462 b 53 463 47 465 41 468 b 38 468 36 470 33 471 l 25 474 b 18 475 11 477 5 476 b 1 475 -6 470 -6 467 b -5 459 -4 452 -2 446 b -2 438 0 432 1 424 b 1 422 1 418 2 416 b 2 412 2 410 1 408 b -5 399 -10 393 -7 381 b -4 375 -3 369 -3 363 b -3 358 -2 351 2 345 b 6 339 4 331 3 322 b 2 317 3 312 4 306 b 6 292 8 279 12 266 b 18 250 21 234 23 218 b 24 213 26 210 27 207 b 28 202 29 198 30 194 b 31 192 31 190 31 188 b 30 185 30 182 31 180 b 32 175 33 170 35 165 b 37 159 35 154 31 150 b 33 146 35 141 37 136 b 38 131 41 126 44 122 b 47 118 48 115 48 112 b 45 103 42 97 52 89 b 53 88 53 88 53 88 b 53 87 53 85 54 84 l 54 52 b 54 52 54 51 55 50 l 57 48 b 59 42 61 38 55 34 b 52 32 48 27 49 23 b 50 18 54 12 62 12 b 65 12 70 9 71 7 b 72 3 75 2 78 2 l 83 2 b 89 2 96 2 102 1 b 113 -2 124 -7 134 -10 b 139 -12 144 -13 148 -12 b 154 -12 160 -13 166 -14 b 172 -15 178 -16 183 -15 l 222 -15 b 222 -15 224 -14 226 -12 b 232 -9 236 -5 242 -1 z"},"O":{"x_min":0,"x_max":653,"ha":653,"o":"m 601 478 b 598 485 595 497 599 507 b 602 511 602 516 602 520 b 602 524 601 528 598 533 b 594 538 592 542 590 546 b 584 556 582 562 582 575 b 583 588 583 588 578 600 b 572 609 568 618 566 627 b 562 635 558 644 552 653 b 550 657 548 660 547 664 b 544 672 540 679 531 686 b 527 689 522 692 519 696 b 511 703 503 712 496 722 b 482 742 459 748 439 755 b 428 758 418 762 409 767 b 396 772 383 777 369 779 b 363 780 358 782 353 784 b 348 786 342 788 338 788 b 336 789 333 789 329 789 b 325 789 320 789 315 789 l 301 789 b 297 789 293 789 291 789 l 276 789 b 264 788 253 786 244 780 b 235 774 226 769 217 768 b 208 768 197 762 192 757 b 188 751 173 755 164 758 b 160 760 155 761 149 760 b 139 759 132 758 128 756 b 122 752 118 748 112 740 b 102 728 94 708 88 694 b 86 690 83 685 81 680 b 75 670 73 662 74 653 b 74 649 73 644 72 639 b 72 638 72 637 71 634 b 70 632 68 630 68 628 l 65 618 b 64 615 62 613 58 614 b 58 609 58 605 58 602 b 55 594 50 584 47 580 b 42 576 40 571 40 565 b 40 562 41 558 42 554 b 41 555 40 557 39 558 l 36 561 b 32 556 32 552 32 550 b 35 545 32 533 28 532 b 27 531 25 528 22 526 l 20 522 b 20 522 20 520 19 518 b 19 515 20 512 22 512 b 24 509 22 504 18 502 b 13 501 11 495 11 492 l 11 485 b 10 481 11 477 12 472 b 13 464 3 458 -2 458 b -4 458 -7 456 -8 452 b -8 448 -8 443 -7 438 b -5 432 -4 428 -4 423 b -5 420 -7 413 -6 411 b -5 405 -5 404 -2 402 b 0 396 1 392 0 390 b -2 386 -7 373 -5 364 b -4 360 -4 356 -4 352 b -5 332 -10 311 -14 292 b -20 272 -17 244 -4 228 b 2 219 22 204 36 207 l 30 187 l 28 178 b 26 175 27 173 30 173 b 36 172 38 169 36 163 b 36 162 36 161 37 160 b 37 158 38 155 40 152 b 41 151 42 149 42 148 b 43 144 44 140 43 136 b 42 132 42 127 42 122 b 45 111 52 99 59 90 b 65 81 69 71 72 62 b 76 52 81 43 88 34 b 90 31 93 27 96 22 b 98 16 101 11 104 7 b 110 -3 118 -10 128 -9 l 120 -14 b 130 -22 141 -30 152 -38 b 174 -54 199 -61 223 -65 l 260 -72 b 272 -75 292 -78 311 -78 b 330 -79 349 -78 362 -74 b 367 -72 369 -71 371 -69 b 372 -68 375 -66 379 -64 l 392 -59 b 395 -58 398 -57 401 -54 b 407 -51 415 -44 421 -43 b 423 -42 427 -41 430 -37 b 433 -32 431 -27 430 -22 b 429 -21 429 -19 429 -17 b 429 -15 431 -13 433 -12 b 438 -8 444 -4 453 -1 b 462 2 468 8 470 14 b 472 20 473 25 475 29 l 481 33 b 487 37 488 41 488 45 b 487 49 492 62 496 59 b 498 58 501 58 505 61 b 508 62 508 63 507 66 b 506 68 506 69 507 70 l 512 75 b 515 79 518 82 520 84 b 522 86 522 89 519 95 b 523 96 527 96 529 97 b 532 97 536 102 538 111 l 540 122 b 546 138 548 142 544 160 b 547 159 551 158 555 158 b 563 158 568 167 565 170 b 561 172 558 182 562 190 l 568 201 b 568 203 569 204 570 205 b 571 205 571 205 572 205 l 572 206 b 571 207 571 208 570 212 b 569 215 568 218 564 222 l 574 222 b 572 227 571 232 571 239 b 570 252 576 262 582 267 b 586 269 588 273 588 279 b 588 283 586 287 583 290 b 578 296 577 310 581 314 l 588 324 b 598 333 602 343 600 354 l 598 361 b 597 362 596 365 596 368 b 595 368 595 370 597 371 b 598 372 599 372 599 373 b 600 376 599 378 598 381 b 597 383 596 386 596 388 l 596 400 b 596 401 596 402 597 402 b 592 405 592 408 598 408 b 602 409 602 410 600 412 b 601 414 602 420 602 419 b 602 422 603 425 604 429 b 605 433 605 437 605 440 l 605 452 b 604 462 603 472 601 478 z m 502 393 b 502 387 501 382 500 378 b 496 379 494 378 494 376 b 494 370 494 366 493 363 b 494 358 495 353 497 349 l 499 334 b 500 324 496 319 491 315 b 488 312 485 311 482 308 b 477 303 477 294 478 292 b 478 291 479 290 480 290 b 482 289 484 288 484 285 b 484 282 484 281 483 280 b 482 279 480 272 480 269 b 480 267 479 265 478 263 b 474 259 474 257 475 253 l 475 248 b 474 244 472 242 468 240 b 462 237 458 229 458 222 b 458 214 457 204 452 201 b 447 198 442 188 445 184 b 448 180 447 170 442 167 b 439 165 437 163 435 162 b 431 158 427 153 432 143 b 422 143 416 130 410 116 b 404 102 401 84 400 77 b 399 72 398 68 396 66 b 393 62 392 58 389 54 b 388 52 389 51 390 50 b 392 49 389 44 386 43 b 384 42 382 42 382 41 b 378 38 374 36 372 35 b 365 32 357 26 353 14 b 349 2 340 -7 331 -10 b 326 -12 322 -14 319 -18 b 311 -25 302 -32 292 -38 b 273 -49 253 -51 239 -44 b 225 -38 211 -28 201 -16 b 190 -4 183 5 178 18 b 173 30 167 42 158 52 b 153 56 150 62 148 70 b 146 77 146 84 146 91 b 146 92 145 92 144 93 b 143 94 142 94 142 95 b 142 96 143 98 145 98 b 146 99 147 101 146 103 b 143 107 140 110 138 112 b 131 118 128 129 130 139 b 132 148 132 160 128 170 b 122 180 124 191 126 198 b 128 205 127 210 125 213 l 122 219 b 121 223 120 228 120 232 b 120 237 119 241 118 245 b 116 261 114 273 117 289 b 119 303 118 313 108 322 b 112 328 116 332 120 338 b 124 343 123 348 118 354 l 128 354 b 128 355 127 358 125 360 b 123 362 122 366 121 368 b 118 374 118 378 124 378 b 117 398 118 404 124 423 b 125 428 127 432 129 436 b 132 442 135 452 132 462 b 132 468 132 472 132 478 b 133 492 140 504 145 517 b 150 529 155 542 155 556 b 155 563 156 568 157 570 b 158 572 160 576 162 582 b 163 585 163 588 163 592 b 162 596 162 600 163 604 b 164 605 165 608 167 610 b 168 612 169 615 170 617 b 172 619 177 622 178 625 b 178 626 179 627 178 628 b 178 628 178 629 179 631 b 188 640 194 645 200 654 b 206 660 208 662 215 664 b 216 665 216 667 215 668 b 212 671 215 672 221 669 b 220 672 220 676 222 678 b 226 684 233 689 241 693 b 248 698 252 701 259 702 b 263 703 266 704 268 706 b 271 707 272 708 272 710 b 272 712 273 713 276 714 b 283 721 293 728 306 736 b 332 751 366 758 392 742 b 419 726 438 698 455 668 b 462 652 470 640 478 628 b 478 628 478 628 479 627 b 475 624 474 620 476 616 b 478 607 485 598 492 588 b 499 579 500 572 496 562 b 492 551 494 538 501 534 b 503 532 506 529 507 526 b 508 522 508 515 506 508 b 502 491 502 482 502 472 b 502 468 502 462 502 458 b 502 453 502 449 503 445 b 505 437 506 427 505 418 b 504 413 505 408 508 403 b 503 403 502 400 502 393 z m 475 630 b 475 628 477 626 479 627 b 478 628 478 628 478 628 l 476 631 b 475 631 475 631 475 630 z"},"(":{"x_min":0,"x_max":396,"ha":396,"o":"m -4 242 b -3 234 -3 227 -3 219 b -3 212 -2 203 -1 196 b 0 187 7 178 12 169 b 13 168 13 166 13 162 b 14 157 15 150 15 144 b 15 138 17 132 19 126 b 22 120 25 113 27 107 b 28 99 30 92 32 87 b 36 77 40 67 44 57 b 48 51 52 45 56 39 l 66 22 b 72 11 82 -6 95 -23 b 101 -32 108 -42 114 -51 b 118 -57 123 -63 129 -69 b 140 -82 150 -92 159 -100 b 163 -104 168 -108 171 -112 b 172 -113 172 -113 173 -113 l 176 -116 b 180 -118 185 -120 191 -122 b 196 -125 200 -129 203 -133 b 208 -141 214 -145 223 -148 b 232 -154 241 -159 250 -163 b 259 -168 268 -173 275 -180 b 280 -184 285 -186 290 -187 b 295 -188 300 -189 305 -192 b 308 -192 310 -193 312 -192 b 315 -192 318 -192 321 -192 b 328 -192 330 -188 326 -182 b 322 -178 319 -175 315 -172 b 308 -168 301 -163 294 -159 b 280 -150 268 -142 259 -138 b 255 -137 251 -134 248 -132 b 240 -124 232 -116 224 -108 b 217 -99 208 -91 201 -83 l 195 -77 b 192 -75 191 -72 189 -70 l 181 -57 b 178 -52 174 -48 172 -43 b 169 -39 166 -35 162 -31 b 156 -23 150 -12 147 -1 b 145 5 142 11 140 17 b 139 20 138 23 135 26 b 132 28 130 32 129 34 b 127 40 125 47 123 52 b 121 58 118 63 112 68 b 112 68 111 70 112 72 l 112 75 b 116 88 112 98 102 108 b 98 113 96 118 96 124 b 96 129 94 134 92 140 b 91 141 92 142 92 143 b 95 146 97 148 100 148 l 103 151 b 101 152 99 152 98 152 b 97 156 95 159 94 162 b 91 169 88 177 89 185 b 89 189 88 193 85 198 b 84 198 83 200 84 201 l 84 203 b 85 212 87 220 88 228 b 89 235 88 244 83 253 b 82 256 81 258 82 261 l 82 269 b 82 275 81 281 74 285 l 83 294 b 86 297 88 300 92 302 b 89 304 88 306 86 308 l 81 311 b 93 317 90 328 88 339 b 87 342 87 343 86 345 b 85 347 86 348 87 350 b 87 354 91 362 94 366 l 97 373 b 97 379 95 387 92 393 b 92 402 90 411 99 417 b 100 418 101 418 101 421 l 101 433 b 100 434 98 436 98 437 l 94 439 b 95 441 95 442 95 444 b 95 446 95 448 96 448 b 97 451 97 454 97 458 b 97 460 98 462 99 464 b 105 468 108 473 109 479 b 110 485 112 490 114 494 b 115 495 114 496 113 498 b 111 500 110 502 108 502 b 106 502 105 502 104 502 b 114 512 121 519 128 527 b 128 528 129 529 129 532 l 129 537 b 130 539 130 542 130 544 b 129 547 130 548 131 551 b 133 558 135 565 137 572 b 138 580 140 587 142 594 b 143 595 143 597 142 598 b 137 608 142 611 147 617 b 152 622 157 627 160 632 b 161 633 162 635 162 636 b 162 642 163 646 163 652 b 162 659 164 665 168 669 b 172 673 175 678 179 683 b 182 702 190 712 197 720 b 200 723 203 728 207 732 b 208 732 208 734 208 736 b 209 737 209 738 210 739 b 212 742 212 745 212 748 b 212 752 212 755 213 758 b 220 778 231 795 250 806 b 254 808 256 815 258 822 b 261 830 264 837 269 840 b 272 842 273 844 275 847 b 278 851 281 855 285 859 b 289 863 291 868 292 875 b 292 876 292 876 292 877 b 293 878 293 878 294 879 l 318 894 b 325 898 332 903 340 909 b 341 909 342 909 343 908 b 344 908 346 908 348 907 l 358 904 b 362 903 364 902 366 902 b 369 898 372 895 376 895 b 382 895 387 895 390 899 b 392 902 393 903 395 905 l 388 912 b 386 914 382 916 380 918 b 377 918 374 921 373 923 b 371 929 367 933 362 934 b 358 935 353 938 349 941 b 347 943 343 946 339 948 b 335 948 332 950 328 952 b 320 958 312 963 306 969 b 292 982 263 986 250 972 l 248 970 b 247 969 246 968 245 968 b 238 967 232 963 229 958 b 226 953 222 948 218 944 b 209 935 202 927 192 917 b 188 914 185 909 181 902 b 180 900 179 897 178 894 l 176 886 b 173 882 171 878 167 873 b 162 875 160 875 158 872 b 153 868 152 861 152 856 l 152 848 b 152 838 153 830 143 829 b 142 828 142 828 141 828 l 139 825 b 137 822 135 818 133 814 b 131 810 128 807 124 806 b 118 803 116 798 114 793 b 112 788 110 783 106 780 l 106 779 b 106 778 107 778 108 778 b 108 775 108 772 109 769 b 110 767 109 764 108 762 b 103 748 97 735 89 723 b 85 718 82 711 79 704 b 77 697 73 690 70 683 l 70 682 b 69 676 68 670 67 664 b 63 653 58 642 52 630 b 49 624 46 618 43 612 b 41 612 40 612 40 614 b 38 609 37 604 35 600 l 30 587 b 29 584 29 582 28 579 b 28 577 27 573 27 571 l 29 555 b 30 549 28 545 22 541 b 22 540 21 539 22 537 b 22 532 21 528 18 525 b 17 523 16 522 15 519 b 12 510 11 502 11 493 b 12 487 11 482 6 479 b 3 478 2 476 2 473 l 2 454 b 2 452 2 448 2 446 b 1 442 0 439 -1 437 l -11 420 b -11 418 -11 417 -10 415 b -8 411 -7 407 -7 402 b -7 398 -7 393 -6 389 b -5 387 -6 384 -8 382 b -11 378 -12 372 -12 366 l -12 356 b -12 352 -12 348 -11 343 l -11 331 b -10 328 -10 327 -9 325 b -8 323 -8 322 -8 319 b -9 313 -10 308 -10 302 b -11 297 -11 291 -12 285 b -12 281 -11 276 -10 272 b -9 267 -9 262 -10 258 b -12 250 -10 245 -4 242 z m 53 227 b 44 220 44 222 42 224 b 40 225 38 227 37 228 l 40 230 b 41 231 42 231 43 231 b 44 231 48 229 53 227 z m 119 23 b 118 26 117 28 115 31 b 113 32 114 35 118 38 b 118 36 120 33 121 32 b 122 29 123 27 124 24 b 123 23 122 23 119 23 z"},"C":{"x_min":0,"x_max":619,"ha":619,"o":"m 578 680 b 578 682 575 685 572 689 l 570 691 b 569 692 568 692 568 692 b 568 693 568 695 568 697 b 568 698 568 699 567 700 b 566 706 564 712 558 719 b 549 726 535 732 522 734 l 509 734 b 507 735 503 737 499 741 l 496 743 b 494 744 492 745 492 746 b 478 753 463 754 449 755 b 448 756 446 756 444 756 b 442 756 441 756 439 757 l 438 757 b 436 758 433 758 432 758 b 428 758 422 761 422 763 b 422 764 421 765 421 766 l 418 768 b 417 768 415 768 412 768 b 409 767 407 766 405 767 l 404 767 b 400 767 395 768 391 769 l 362 778 b 358 779 354 781 350 782 l 348 782 b 329 786 312 790 293 784 b 264 778 232 767 210 750 l 210 749 b 207 747 204 745 202 742 b 198 738 192 735 188 732 b 179 724 173 715 170 708 l 163 698 b 162 696 160 692 159 690 b 156 684 152 679 148 676 l 132 661 b 127 655 121 645 121 636 l 119 629 b 118 626 118 624 115 622 b 114 620 114 618 113 618 l 111 612 l 111 612 b 110 611 110 609 110 607 b 109 603 109 603 105 599 b 100 593 97 588 94 582 b 88 569 86 558 83 546 l 82 545 l 82 543 b 82 542 82 542 82 542 b 72 532 59 517 58 502 b 58 497 59 492 60 488 b 62 482 62 478 61 472 l 61 471 b 60 470 59 469 59 468 b 59 468 58 467 58 466 l 57 466 b 54 466 52 464 52 461 l 51 460 b 51 458 50 457 49 456 b 48 452 47 450 46 448 b 46 447 46 446 45 445 b 43 439 42 432 39 426 b 35 412 31 401 31 392 b 31 384 32 373 33 369 l 32 368 b 32 368 32 367 32 366 b 31 363 32 359 33 356 b 33 355 33 355 34 355 l 34 353 b 34 352 33 350 32 348 b 28 341 26 337 26 330 l 26 321 b 27 318 27 316 27 314 l 27 308 b 26 308 26 308 26 307 b 25 304 25 302 26 299 l 26 293 b 26 292 26 291 27 290 b 27 289 27 288 27 287 l 27 282 b 26 281 26 279 26 278 b 26 278 26 278 25 278 l 22 274 l 22 273 b 20 269 22 266 25 263 l 25 262 b 25 262 25 261 26 261 l 26 259 b 27 256 27 253 26 251 l 26 250 b 26 247 26 244 25 242 b 22 237 21 232 25 222 b 28 218 28 217 29 214 b 30 212 31 210 30 208 l 30 206 b 28 202 28 198 28 195 b 27 194 27 192 27 192 b 27 191 27 189 26 188 b 23 178 26 176 36 163 b 38 160 40 155 40 148 b 40 147 40 145 41 144 l 41 139 b 43 126 46 118 53 106 l 56 100 b 56 98 56 96 57 93 l 59 85 b 60 82 61 79 63 77 l 63 76 b 64 74 66 72 68 72 l 71 68 b 75 64 78 62 80 54 b 81 52 82 51 82 50 l 85 45 b 101 22 123 0 152 -21 b 158 -25 169 -29 188 -36 b 193 -38 199 -40 205 -42 l 216 -48 l 218 -50 b 221 -52 222 -52 225 -50 l 226 -50 b 228 -52 231 -53 237 -54 b 238 -54 240 -54 242 -53 l 247 -53 b 248 -52 249 -52 251 -52 b 253 -53 257 -53 259 -53 b 262 -54 264 -54 267 -55 b 269 -55 272 -55 275 -56 b 280 -57 288 -58 296 -58 b 300 -59 304 -59 308 -60 l 336 -62 b 345 -63 354 -65 363 -66 b 366 -67 369 -67 372 -67 l 379 -67 b 402 -67 418 -60 436 -46 b 438 -44 439 -43 440 -42 b 452 -32 468 -18 470 -3 b 489 -2 494 13 498 26 b 499 27 499 28 499 28 l 500 28 b 502 34 505 40 509 47 b 515 54 519 62 522 69 b 525 82 532 92 542 105 b 549 116 557 128 562 142 b 565 149 567 164 567 180 b 566 196 562 212 552 222 b 548 228 539 232 526 230 l 525 230 b 512 228 506 218 499 208 b 496 204 492 200 489 198 b 487 195 484 192 482 191 b 478 187 475 178 475 177 l 475 174 b 474 175 473 175 472 175 b 469 176 469 175 467 174 b 465 172 464 171 464 169 b 464 147 451 131 438 112 b 428 101 419 89 413 77 b 411 71 407 67 401 61 b 398 58 396 55 393 52 l 386 42 b 379 32 378 28 365 21 b 362 20 362 19 362 19 b 351 15 342 11 332 3 b 317 -8 294 -14 277 -18 b 258 -20 238 -11 226 -2 l 222 1 b 207 13 198 18 191 34 l 190 34 b 189 37 187 39 183 43 l 178 51 b 176 53 174 57 172 60 b 168 67 166 72 166 76 b 166 77 166 77 167 78 b 173 80 169 88 165 88 b 161 89 159 90 159 91 b 158 91 158 91 158 92 l 158 101 b 158 104 157 108 156 111 l 152 119 b 150 125 148 131 147 138 b 148 139 148 140 148 141 b 148 142 148 142 148 143 b 151 152 149 159 142 168 b 142 172 141 173 140 174 l 140 175 b 137 181 133 186 133 190 b 132 192 132 193 133 194 b 133 195 133 197 132 198 l 132 198 b 135 201 136 203 135 206 b 134 207 134 208 133 209 b 133 211 133 212 132 214 b 131 218 130 222 129 224 b 127 228 125 232 125 234 l 126 235 b 125 241 126 247 128 253 l 130 260 b 130 262 131 265 132 268 b 132 282 133 296 133 309 b 134 315 134 321 134 327 b 134 332 134 337 135 342 b 136 344 136 347 136 349 b 133 352 136 356 139 358 b 142 359 144 362 145 364 b 148 372 149 381 148 388 l 148 392 b 148 392 148 393 148 394 l 148 395 b 148 396 148 398 149 400 b 150 402 150 403 151 406 b 157 419 157 427 154 438 b 153 444 153 448 157 455 l 158 455 b 158 457 160 459 163 462 b 165 465 167 467 169 469 b 172 473 175 479 175 486 b 175 488 176 492 177 494 b 176 497 176 499 177 502 b 177 505 178 510 181 513 b 182 515 183 518 184 521 b 187 524 188 528 186 534 b 188 535 189 537 189 538 l 191 540 b 191 541 192 542 192 542 b 193 543 195 546 196 549 l 198 554 l 202 554 b 208 557 209 563 206 564 b 203 567 205 572 208 579 b 208 580 208 580 208 581 l 209 582 b 210 584 212 586 212 587 b 213 588 215 588 217 589 b 218 590 219 591 221 592 l 224 594 b 235 603 236 614 238 625 b 239 632 241 639 243 645 b 245 646 247 648 248 649 b 250 651 252 652 254 653 b 258 656 262 658 264 661 b 268 665 272 668 272 671 l 278 676 b 278 677 280 678 282 679 l 296 690 b 302 696 310 702 319 707 l 320 707 b 324 709 329 712 334 713 b 338 714 343 716 349 718 l 373 726 b 386 730 406 736 419 723 b 421 722 422 720 423 719 l 426 716 b 428 712 430 709 432 707 b 432 706 433 705 434 704 b 437 702 439 698 441 696 b 442 692 444 689 446 687 b 450 673 458 648 455 642 b 452 638 452 635 452 634 b 456 628 456 623 456 618 l 456 613 b 455 612 455 610 456 608 b 457 604 458 601 459 598 b 460 594 462 591 462 588 b 464 588 466 585 467 581 l 467 580 b 472 570 472 561 472 550 b 472 546 472 542 472 539 b 472 536 472 532 473 528 l 474 525 b 477 509 479 486 489 473 b 491 471 492 469 495 468 b 497 468 498 467 499 466 b 500 466 505 463 506 460 l 508 454 b 512 450 514 447 515 445 b 516 444 518 443 521 443 b 522 442 524 442 525 445 l 544 465 l 548 468 b 554 472 556 478 553 483 b 563 491 562 503 560 513 l 560 518 b 559 518 559 520 559 521 b 560 522 561 523 561 525 b 561 527 561 528 562 529 b 562 531 562 532 562 532 b 561 537 559 540 558 542 b 555 547 557 549 558 555 b 558 556 558 556 558 557 b 558 558 558 561 559 562 l 559 564 b 562 578 564 589 561 605 b 558 622 560 634 567 653 b 568 654 568 657 567 659 b 573 662 581 668 578 680 z"},"W":{"x_min":0,"x_max":814,"ha":814,"o":"m 856 750 b 845 754 833 758 818 762 b 810 763 802 766 793 769 l 783 775 b 776 779 767 783 759 783 b 755 783 752 782 750 778 b 742 769 742 758 744 745 b 746 732 748 718 745 708 b 742 694 736 677 727 664 b 724 660 722 657 722 654 l 720 643 b 719 642 720 641 721 639 b 722 638 722 636 721 633 b 718 631 717 630 714 630 b 713 626 712 622 713 620 b 713 615 708 604 702 598 b 700 596 698 592 696 589 b 693 580 692 570 692 560 b 693 540 688 522 679 502 b 675 493 671 483 668 473 b 668 471 668 469 668 469 b 669 468 670 468 671 468 b 673 468 675 467 675 462 b 674 459 673 457 672 455 b 669 452 665 442 665 439 b 665 438 665 436 666 435 b 666 434 666 432 667 431 b 667 427 662 414 661 413 b 660 412 659 412 658 412 b 658 412 657 412 656 412 b 655 411 653 408 652 403 b 650 394 652 389 653 383 b 654 381 654 378 653 375 b 652 368 642 358 638 356 b 633 352 630 344 630 338 b 629 331 629 325 632 323 b 633 322 633 321 632 319 b 632 315 629 311 625 308 b 618 302 613 292 616 284 b 618 277 616 268 610 262 b 604 255 603 248 603 241 b 602 237 602 233 601 231 l 593 206 b 588 189 582 176 582 164 b 582 152 580 145 573 142 b 567 138 564 132 567 122 b 569 112 568 103 566 92 l 563 76 b 561 62 554 41 537 38 b 541 54 541 66 533 79 b 531 83 529 87 528 89 b 526 95 524 104 526 112 b 527 117 526 121 525 125 b 522 132 521 138 521 146 b 522 148 522 151 523 152 b 524 152 524 154 523 157 b 522 161 520 165 517 169 b 510 177 508 188 510 195 b 512 202 510 212 507 219 b 502 226 501 238 503 244 b 506 250 503 259 501 266 b 500 268 499 272 499 277 b 499 282 499 286 500 288 b 500 292 495 302 492 306 b 488 310 485 318 487 328 b 488 332 488 338 488 342 b 489 345 490 348 492 352 b 494 361 491 366 487 370 b 484 372 482 373 482 376 b 481 382 481 386 483 390 b 486 394 486 398 483 403 l 481 410 b 478 412 478 419 478 422 b 478 422 478 425 478 429 l 478 434 b 478 435 478 435 478 436 b 477 436 477 437 477 438 b 476 439 477 451 479 451 b 482 451 474 464 470 467 b 468 468 467 471 467 477 b 467 479 468 481 469 482 b 471 484 472 486 472 488 b 471 494 469 498 465 502 b 458 509 456 523 459 533 b 460 538 459 543 455 549 l 452 557 b 451 558 449 560 448 562 b 449 566 450 569 452 573 l 450 575 b 449 575 448 575 447 576 b 446 580 444 582 442 585 b 439 588 438 597 438 603 b 439 607 439 610 438 614 b 438 622 437 630 434 638 b 432 645 429 652 428 660 b 425 666 423 672 422 677 b 419 681 418 686 417 692 b 411 711 409 712 390 715 b 374 718 359 718 346 724 l 337 727 b 329 729 321 731 314 731 b 307 730 299 724 302 713 b 304 702 310 689 317 678 b 320 672 322 667 323 663 b 327 649 321 628 315 616 b 313 612 312 609 309 608 b 307 605 305 602 303 599 b 302 597 302 595 302 595 l 301 589 b 296 578 290 567 284 555 b 278 543 275 531 276 518 b 276 502 275 490 272 473 b 270 459 269 458 259 448 b 255 442 252 436 252 432 b 251 422 249 404 242 395 b 236 385 228 370 233 361 b 238 351 239 337 232 330 b 229 326 227 322 224 318 b 218 308 214 297 213 284 b 212 272 210 260 208 249 l 202 230 b 200 223 198 217 197 210 b 194 201 192 192 190 182 b 189 178 188 175 188 172 b 188 167 187 158 185 155 b 184 153 182 151 182 148 b 176 148 174 144 176 140 b 176 139 176 138 177 138 l 177 134 b 176 131 176 128 177 125 b 177 122 175 119 172 117 b 172 121 171 126 171 132 b 171 142 168 152 162 157 b 160 159 158 162 157 168 b 157 168 157 170 158 172 b 158 175 157 180 156 182 b 155 182 155 183 154 185 b 154 189 155 193 156 197 b 158 202 155 210 152 211 b 148 212 145 222 147 229 b 148 232 147 236 146 239 l 143 242 b 140 245 140 248 141 251 b 142 252 141 254 140 257 b 138 263 128 266 122 268 b 132 269 131 273 131 278 b 130 281 129 284 136 287 b 134 291 132 294 129 298 b 127 302 125 306 124 310 b 123 312 123 315 124 317 b 125 318 125 320 124 322 b 123 328 122 332 119 334 b 117 337 114 340 112 345 b 106 354 104 371 105 381 l 108 388 b 110 391 107 399 102 402 b 100 402 99 406 98 410 b 98 416 98 422 100 428 b 103 440 101 452 94 464 b 90 470 88 477 88 484 b 87 488 88 493 88 499 l 83 499 b 82 502 81 504 79 507 b 78 509 76 512 75 515 b 72 521 72 528 72 534 b 72 548 68 567 52 581 b 38 594 34 616 31 632 b 28 641 27 649 24 658 b 22 665 20 673 19 682 b 18 690 17 698 14 707 b 12 712 11 720 10 728 b 8 735 6 742 2 747 b -4 753 -24 766 -31 767 l -34 763 b -37 759 -40 758 -45 762 l -52 762 b -53 762 -56 762 -60 762 b -71 761 -84 762 -93 771 b -94 765 -96 762 -97 763 b -100 765 -105 767 -110 768 b -112 768 -114 769 -113 772 b -116 769 -118 768 -121 768 b -124 768 -128 768 -130 767 b -136 766 -139 762 -138 752 b -138 744 -133 737 -125 729 b -117 722 -111 713 -107 706 b -100 689 -89 673 -78 658 b -74 650 -70 642 -67 634 b -63 626 -59 618 -55 610 b -51 602 -48 595 -48 589 b -49 582 -48 575 -48 567 l -48 560 b -48 555 -45 547 -44 547 b -43 547 -42 545 -39 542 b -38 539 -36 537 -34 535 b -32 532 -29 521 -29 514 b -29 512 -29 510 -30 507 l -32 500 b -31 498 -28 491 -25 487 b -22 478 -20 470 -19 462 b -17 446 -9 431 -4 418 l 3 399 b 4 394 6 390 8 387 b 10 383 11 378 12 372 b 12 365 15 359 19 355 b 22 351 23 346 21 341 b 20 337 18 335 17 334 b 13 333 17 324 22 321 b 27 317 28 306 26 297 b 24 292 25 288 28 282 b 28 279 31 277 33 275 b 38 272 41 265 38 262 b 38 260 37 257 37 252 b 38 247 39 242 40 238 b 42 229 44 221 46 213 b 48 197 52 184 56 172 b 58 167 60 160 62 154 b 62 152 61 150 60 148 b 58 145 58 140 61 138 b 62 137 63 135 64 133 b 67 127 68 124 68 117 l 70 98 b 71 92 71 86 72 79 b 72 74 73 70 75 68 b 78 61 82 52 82 46 b 81 40 82 35 87 29 b 89 26 91 22 92 19 b 96 12 97 7 92 4 b 97 2 99 -4 100 -10 l 102 -19 b 105 -26 113 -28 117 -25 b 119 -22 129 -23 131 -27 b 132 -28 134 -27 138 -22 b 142 -30 144 -38 145 -46 b 145 -53 146 -62 150 -68 b 154 -78 167 -92 176 -96 b 180 -98 184 -98 187 -97 b 192 -94 200 -95 205 -98 b 208 -99 210 -100 214 -100 b 227 -98 235 -87 242 -77 b 240 -76 238 -74 234 -73 b 238 -67 238 -60 238 -53 b 234 -40 240 -23 243 -13 b 245 -8 245 -2 244 6 b 243 14 242 21 243 25 b 243 34 253 52 261 63 b 264 69 267 76 268 83 b 268 88 268 92 268 95 b 265 102 268 110 272 115 b 277 120 278 128 275 132 b 272 138 274 143 278 148 b 280 151 283 158 282 165 b 281 168 281 172 282 176 b 284 182 287 188 290 195 b 291 198 292 201 294 203 b 296 206 297 209 297 213 b 297 216 296 218 295 221 b 292 225 295 232 300 233 b 302 233 304 234 305 236 b 304 235 304 236 305 240 l 308 248 b 310 262 312 272 316 285 b 317 286 318 288 318 288 l 321 291 b 320 293 318 298 314 302 b 314 304 316 308 318 310 b 323 316 322 323 318 326 b 313 328 323 337 330 338 b 337 338 339 342 337 350 b 336 354 335 357 335 358 b 335 372 342 385 349 396 b 352 401 354 407 353 413 b 353 417 352 420 352 422 b 351 425 350 428 350 430 b 350 433 351 436 352 438 b 353 438 355 440 356 442 b 358 446 358 450 359 455 b 360 459 362 463 364 467 b 374 444 376 422 378 399 b 379 394 381 389 383 384 b 387 374 388 365 388 358 b 388 352 389 346 395 341 b 401 336 403 326 401 319 b 398 312 394 298 401 288 b 403 283 406 278 407 270 b 408 268 408 265 407 262 b 404 258 406 249 409 243 b 412 237 413 226 413 217 b 412 207 416 195 418 189 b 421 182 418 170 417 165 b 416 162 417 158 419 152 b 420 148 421 143 421 140 b 420 133 421 123 426 117 b 431 110 433 101 431 92 b 429 88 429 82 430 78 b 426 79 425 77 426 72 b 427 66 428 62 428 58 b 428 58 429 57 429 56 b 436 48 438 40 439 32 b 439 27 439 22 440 18 b 441 8 448 0 452 -6 b 456 -12 458 -25 458 -33 b 458 -38 459 -42 461 -48 b 463 -56 466 -65 468 -75 b 471 -85 476 -92 485 -95 b 489 -96 494 -97 498 -96 b 502 -96 505 -98 506 -102 b 507 -105 506 -109 504 -114 b 503 -117 502 -119 502 -121 b 502 -123 502 -124 503 -125 b 510 -128 518 -129 527 -132 b 543 -137 561 -142 572 -142 b 577 -142 579 -142 579 -140 b 578 -138 579 -136 582 -132 b 586 -125 588 -121 588 -114 b 588 -111 589 -108 590 -105 b 589 -104 589 -98 593 -101 b 594 -98 596 -97 598 -95 b 602 -92 604 -88 604 -82 b 603 -76 606 -69 609 -64 b 612 -59 612 -56 609 -49 b 607 -47 606 -43 606 -41 b 606 -38 607 -35 608 -32 b 608 -29 608 -26 608 -22 l 608 -12 b 608 -10 609 -8 612 -3 b 614 2 618 8 622 13 b 627 18 629 24 629 32 b 628 35 628 38 628 39 b 627 42 626 42 627 45 b 627 46 628 48 629 51 b 630 55 632 59 634 62 b 638 68 641 76 643 85 b 646 94 650 102 658 108 b 664 115 662 123 659 128 b 658 129 657 132 657 134 b 657 135 658 138 659 142 b 662 148 664 152 668 155 b 672 158 674 167 672 171 b 671 175 673 182 677 186 b 680 190 682 198 682 202 b 682 206 685 214 690 218 b 695 222 698 228 695 238 b 693 242 692 247 692 250 b 696 250 698 252 700 257 b 702 261 703 264 705 267 b 708 271 709 273 709 277 l 709 282 b 709 285 709 288 710 292 b 711 299 714 305 719 310 b 723 315 727 321 728 327 b 728 331 728 334 727 337 b 725 339 724 342 724 347 b 724 351 725 355 728 359 b 730 362 732 366 733 369 b 742 382 748 394 752 407 b 753 409 753 411 754 412 b 754 412 755 414 757 417 b 758 418 758 420 759 421 b 758 422 760 429 763 434 l 766 441 b 768 445 772 448 777 450 b 781 452 781 455 777 458 b 780 458 780 462 781 467 b 781 471 782 476 788 479 b 782 482 780 486 782 491 b 785 496 787 500 788 504 l 791 510 b 791 514 792 518 799 521 b 802 522 803 524 803 525 b 803 531 802 532 800 533 b 799 534 798 535 798 536 b 798 537 798 539 799 542 b 803 552 807 557 817 553 b 814 559 812 565 809 569 b 811 570 814 571 818 572 b 817 574 816 577 816 578 b 815 579 815 581 815 582 b 815 582 815 583 816 584 b 817 587 819 592 822 598 l 825 607 b 826 610 827 613 828 616 b 831 622 831 628 830 635 b 829 638 829 642 830 645 b 831 655 835 669 841 682 b 847 694 854 703 867 703 b 866 708 867 714 868 723 b 869 741 866 746 856 750 z m 759 421 b 759 420 760 422 760 422 b 760 422 759 422 759 421 z"},"A":{"x_min":0,"x_max":517,"ha":517,"o":"m 502 -71 b 500 -68 498 -66 496 -62 l 495 -62 b 488 -52 486 -44 483 -33 b 482 -31 482 -28 482 -26 l 479 -18 b 477 -12 474 -5 472 2 b 470 8 468 15 466 21 l 466 22 l 462 39 b 460 46 459 52 459 56 l 459 57 b 459 58 459 58 460 59 b 461 62 462 64 462 68 b 462 70 461 74 458 78 b 458 78 458 79 458 80 b 458 81 458 81 457 82 b 456 83 456 85 456 88 b 455 89 455 91 455 92 l 452 99 b 452 102 450 106 449 108 b 447 112 446 116 445 118 b 444 119 444 121 444 122 l 442 124 b 442 127 439 132 440 133 l 440 134 b 441 134 441 134 442 135 b 444 135 446 136 447 138 b 447 144 446 145 444 148 b 443 148 442 150 441 152 b 438 154 434 160 433 162 b 433 163 433 163 434 164 l 436 167 b 438 168 439 171 440 173 l 440 174 b 443 187 442 191 436 197 b 435 198 434 198 434 199 l 432 202 b 429 206 428 210 428 213 b 428 220 428 226 431 235 b 431 242 427 262 418 270 l 417 270 b 418 271 418 271 418 271 l 420 285 b 421 294 418 305 418 308 b 416 311 415 312 415 314 l 415 329 b 416 334 416 339 416 345 b 416 350 415 355 412 360 b 412 362 410 363 409 366 b 405 375 402 378 404 391 b 404 395 404 398 405 398 b 405 401 405 404 406 407 b 406 412 406 418 402 420 l 401 420 l 402 422 b 403 422 403 423 403 424 b 403 425 403 427 404 428 l 404 431 b 407 437 408 443 405 451 b 404 452 402 454 402 455 b 400 456 398 457 398 458 b 397 458 397 458 396 458 b 395 463 395 469 396 475 b 397 482 397 488 395 495 b 394 498 394 500 393 502 b 392 504 392 507 392 509 b 389 516 388 522 388 528 l 388 538 b 388 541 388 544 387 548 b 386 558 385 568 386 578 b 388 594 386 616 381 642 b 381 645 380 647 379 649 l 378 658 b 378 659 378 661 378 663 b 379 668 380 672 380 676 b 380 682 379 684 378 690 b 378 694 377 698 377 699 b 374 708 372 716 372 720 b 372 720 373 721 374 723 b 377 726 378 728 378 734 b 378 738 378 742 375 745 b 374 746 374 746 374 747 l 373 748 b 374 748 374 748 374 749 l 375 750 b 376 752 378 755 378 759 b 378 760 378 761 377 763 b 376 766 376 768 375 771 b 374 773 373 775 372 778 l 372 781 b 371 782 371 782 371 782 b 370 783 369 784 369 785 b 368 786 368 786 366 787 b 364 788 362 788 358 788 b 353 789 348 789 340 790 l 332 790 b 328 791 323 792 319 792 b 315 791 310 791 306 791 l 295 791 b 291 790 288 790 283 791 l 282 791 b 282 792 280 792 278 792 b 274 792 271 792 268 793 b 260 793 254 792 251 789 l 243 789 b 238 791 234 789 230 784 l 230 783 b 223 777 224 768 225 758 b 226 754 226 750 225 748 l 225 747 b 224 740 222 733 218 726 b 216 722 214 717 212 712 l 212 711 b 211 706 209 700 208 694 b 208 688 206 682 205 676 b 202 665 202 659 201 652 l 198 642 b 198 636 196 632 195 629 b 194 626 192 622 192 620 l 189 609 b 188 602 187 594 184 588 b 182 582 178 575 176 568 b 173 562 170 554 168 545 b 165 539 163 533 162 528 l 160 518 b 159 514 158 511 157 508 l 156 508 l 151 498 b 148 492 145 488 142 478 b 138 464 132 451 126 437 b 120 424 115 413 111 401 b 110 398 109 397 109 394 l 107 388 b 101 368 95 348 86 328 b 83 322 80 318 76 312 b 73 310 72 307 69 303 b 65 296 62 290 62 284 l 62 276 b 62 272 62 268 62 267 b 58 258 51 247 44 241 l 43 241 b 40 238 34 238 26 238 b 23 239 20 239 16 239 b 0 240 -14 238 -28 234 b -41 232 -53 229 -66 229 l -75 229 b -86 228 -98 228 -112 229 b -121 230 -127 232 -129 233 b -132 234 -133 235 -133 236 b -138 240 -145 238 -146 235 b -147 232 -148 231 -149 230 b -152 227 -155 222 -154 215 b -154 206 -150 198 -146 191 b -145 190 -145 188 -144 188 b -143 186 -143 184 -142 183 b -142 182 -141 180 -140 177 b -137 168 -132 157 -126 149 b -126 148 -110 132 -100 130 l -99 130 b -97 130 -94 131 -92 132 b -89 132 -87 134 -84 135 b -82 138 -79 139 -77 139 b -71 141 -65 143 -58 146 b -54 147 -51 148 -48 149 l -36 152 b -27 154 -21 158 -14 161 b -8 164 -2 167 4 168 b 5 168 5 168 6 169 b 7 169 8 169 8 169 l 17 172 b 20 172 22 172 23 172 b 23 171 23 171 24 170 b 24 169 24 168 23 168 b 22 165 22 163 21 162 l 17 155 b 13 149 9 144 8 137 b 8 133 6 130 5 126 b 3 122 2 118 1 113 l -2 108 l -2 108 l -4 99 b -5 97 -6 95 -7 92 l -9 85 l -9 81 b -10 78 -10 77 -10 75 b -10 71 -12 65 -15 61 b -17 58 -18 57 -19 54 l -22 49 l -24 44 b -25 42 -25 41 -26 40 b -27 39 -27 38 -27 38 b -27 38 -27 37 -28 36 b -30 32 -32 28 -34 24 b -38 18 -42 12 -45 5 b -52 -8 -48 -23 -30 -31 l -30 -32 l -18 -36 b -11 -38 -2 -41 8 -43 b 28 -48 50 -50 62 -40 b 71 -35 74 -28 72 -18 l 72 -17 b 70 -4 67 10 70 21 l 72 23 b 72 24 72 25 72 26 b 75 30 76 33 76 34 l 76 36 b 76 40 75 42 75 44 b 74 45 74 45 75 46 l 75 47 b 75 51 76 55 78 59 l 82 63 b 89 70 91 74 88 84 l 88 88 b 87 88 87 89 87 90 b 87 92 88 93 88 94 l 91 99 l 91 100 b 93 106 96 112 98 117 l 105 134 l 105 135 b 106 136 106 138 106 138 b 106 139 106 141 107 142 b 108 148 109 154 112 158 b 115 158 120 159 122 165 b 125 168 123 172 122 178 l 122 180 b 122 180 122 180 122 181 b 124 190 130 195 139 195 b 142 192 146 191 152 191 l 152 191 b 159 192 164 193 168 194 b 169 195 171 195 172 196 b 173 197 175 197 176 197 b 180 198 185 198 190 198 b 195 198 200 198 204 199 l 219 199 b 221 198 223 198 228 198 b 231 198 233 198 236 199 b 237 200 238 200 240 200 b 241 199 241 199 242 199 l 242 199 b 245 198 248 197 250 197 l 252 197 b 254 198 257 200 258 202 b 258 202 259 202 259 202 b 262 203 264 204 267 204 b 269 204 272 204 274 205 b 279 206 284 207 289 207 b 293 206 298 206 304 206 l 308 206 b 309 205 311 205 312 205 b 319 205 338 203 338 197 b 338 194 337 192 334 189 b 331 183 326 178 328 171 b 328 169 328 168 329 168 l 338 158 l 338 158 b 340 156 342 155 342 154 b 343 152 344 151 345 151 l 344 150 b 344 149 344 149 343 148 b 341 146 339 143 339 138 l 339 136 l 342 128 b 342 125 343 122 348 122 l 348 112 b 347 111 347 109 347 107 b 347 101 347 98 346 95 l 346 82 b 345 78 346 73 347 69 l 348 69 b 348 68 348 67 349 65 b 349 63 349 62 350 61 b 352 52 355 44 359 35 b 363 28 365 19 368 10 b 368 8 368 7 368 6 b 369 3 369 2 370 0 l 372 -7 b 374 -12 375 -16 376 -20 l 376 -21 b 375 -22 375 -22 375 -22 b 374 -25 373 -28 373 -30 l 373 -32 b 374 -33 375 -35 377 -37 b 378 -38 378 -39 378 -40 b 378 -41 378 -41 379 -42 b 380 -43 380 -47 380 -51 b 380 -55 380 -58 381 -61 b 381 -65 382 -69 383 -72 b 384 -73 384 -75 384 -77 l 384 -78 l 384 -81 b 383 -82 383 -83 383 -84 l 383 -87 b 384 -88 385 -90 388 -92 l 388 -93 b 389 -94 389 -95 389 -96 b 388 -97 388 -98 388 -99 b 388 -103 388 -107 389 -110 b 392 -117 407 -122 419 -122 b 422 -122 426 -122 432 -121 b 435 -123 441 -120 447 -116 b 452 -112 473 -108 481 -109 b 484 -110 486 -111 487 -112 b 491 -114 495 -113 498 -109 b 498 -108 498 -108 499 -108 b 500 -108 500 -108 501 -107 b 505 -104 512 -100 513 -91 l 513 -90 b 513 -81 508 -77 502 -71 z m 258 268 b 254 268 249 267 245 266 l 232 263 l 224 261 b 222 260 220 260 218 260 b 213 259 207 258 201 259 b 199 259 198 259 196 260 l 189 260 b 176 260 162 259 148 257 b 149 259 151 261 152 264 l 152 265 b 152 268 153 271 153 274 b 153 277 153 280 153 282 l 153 288 b 152 289 152 291 153 292 b 154 295 155 298 156 301 l 159 309 b 162 312 162 315 163 318 b 169 334 175 349 181 362 l 183 368 b 183 370 184 372 185 373 b 186 377 188 380 189 383 b 190 386 192 389 192 392 l 194 394 b 194 394 194 395 195 396 b 198 400 202 405 201 411 l 201 412 b 210 419 210 427 212 439 b 213 448 216 453 219 461 b 220 462 220 464 221 466 b 222 467 222 468 222 471 b 223 475 225 479 226 483 b 228 492 228 497 236 504 l 241 511 b 244 514 248 520 244 524 l 244 526 b 247 527 248 528 248 531 b 248 532 249 533 250 535 b 251 536 251 538 252 538 l 252 539 b 252 542 253 543 254 546 l 257 552 b 258 560 260 566 262 570 b 265 574 268 579 270 585 b 272 590 274 595 277 599 b 278 602 279 604 280 607 b 281 609 282 612 282 614 l 285 600 b 286 595 286 590 287 586 b 288 583 288 580 288 575 b 288 572 288 570 289 568 b 290 565 290 562 291 560 b 293 551 296 542 293 537 b 291 532 292 530 298 527 l 300 527 b 302 523 300 512 299 507 l 299 502 b 298 502 298 500 298 499 l 298 496 b 298 494 298 492 298 492 l 298 478 b 298 478 298 478 298 477 b 299 476 299 474 300 473 b 301 472 301 470 302 469 b 305 465 306 457 302 451 b 301 448 299 446 298 443 b 295 438 298 428 301 422 b 302 420 303 417 303 414 l 303 413 b 303 408 302 404 302 401 b 302 399 302 397 302 394 b 303 389 305 386 308 383 b 308 382 308 382 308 382 l 308 381 b 308 378 305 377 308 371 b 308 368 309 367 309 366 b 312 360 312 358 311 351 l 311 350 b 308 316 313 296 319 283 b 300 276 279 272 258 268 z"},"f":{"x_min":0,"x_max":275,"ha":275,"o":"m 372 345 b 358 351 344 350 332 343 l 313 335 b 308 332 301 328 295 326 l 272 316 b 255 308 240 303 224 298 b 217 296 209 292 202 288 b 197 284 191 281 185 282 b 169 284 156 283 143 279 b 142 282 142 285 141 291 b 140 296 140 301 139 306 b 138 311 138 315 139 319 b 139 322 139 324 140 323 b 141 327 142 342 143 356 b 144 369 146 384 147 388 b 144 392 142 402 141 412 b 139 421 138 430 139 433 b 140 441 142 454 146 468 b 147 474 148 481 149 487 b 150 492 152 498 153 502 l 157 512 b 158 518 159 522 161 528 b 163 538 164 548 164 554 b 163 567 162 577 163 589 l 163 611 b 162 618 162 625 163 632 b 163 634 163 637 164 641 b 165 644 165 648 166 652 b 167 659 168 668 169 670 b 170 673 172 672 173 671 b 174 669 176 668 176 672 l 176 687 b 176 692 176 699 176 707 l 176 727 b 175 733 175 739 175 743 b 172 744 168 752 166 759 l 161 769 b 158 775 152 777 145 779 b 141 780 138 782 134 784 l 82 814 b 72 820 62 822 54 813 l 62 798 b 65 792 66 788 66 782 l 66 770 b 66 764 67 754 68 744 b 68 733 69 723 69 718 b 72 705 75 692 72 680 b 70 674 68 668 68 660 b 65 644 63 628 62 611 b 61 602 59 596 58 590 b 56 581 55 572 54 562 b 54 556 55 542 56 530 b 57 523 57 517 57 511 b 57 498 56 494 53 483 l 51 466 b 49 453 48 441 50 433 b 51 432 49 431 47 428 b 43 424 41 414 38 405 b 35 395 32 387 30 383 b 31 378 32 369 33 358 b 36 334 38 308 40 285 b 41 274 42 267 42 262 b 20 257 9 245 2 226 l 2 224 b -7 221 -16 218 -25 215 b -38 212 -51 210 -65 210 b -79 209 -92 206 -104 200 b -106 199 -109 200 -115 201 b -119 202 -122 202 -126 202 b -130 202 -134 202 -138 203 b -138 201 -138 198 -139 197 b -140 194 -139 192 -138 192 b -132 185 -127 179 -120 173 b -112 168 -103 162 -95 158 b -87 153 -78 148 -71 142 b -55 132 -40 127 -24 121 b -15 117 -8 118 -2 122 l -2 122 b 4 107 0 95 -14 88 b -4 65 -13 51 -19 35 b -23 24 -30 15 -37 6 b -44 -3 -46 -4 -39 -17 b -37 -21 -33 -25 -29 -31 b -32 -34 -34 -38 -37 -41 l -44 -52 b -42 -58 -41 -65 -38 -71 b -37 -78 -35 -84 -34 -90 b -33 -91 -34 -92 -35 -93 b -36 -95 -37 -97 -38 -98 l -45 -119 b -51 -132 -52 -148 -49 -167 b -48 -176 -48 -185 -51 -192 b -44 -205 -50 -209 -58 -213 b -56 -222 -53 -232 -50 -240 b -48 -249 -47 -258 -49 -268 b -52 -277 -52 -286 -49 -297 b -48 -308 -46 -318 -45 -328 l -34 -334 b -31 -337 -28 -338 -23 -339 b 1 -348 25 -357 51 -366 b 75 -373 98 -378 113 -358 b 116 -356 118 -355 119 -355 b 128 -352 134 -345 137 -336 b 140 -326 147 -320 153 -313 b 160 -307 166 -299 168 -289 b 177 -285 182 -278 185 -269 b 188 -260 191 -252 196 -246 b 202 -238 207 -229 210 -219 b 212 -210 218 -201 225 -193 b 231 -188 233 -182 231 -172 b 230 -165 230 -158 232 -151 b 235 -138 236 -126 237 -115 b 237 -109 240 -106 248 -104 b 249 -104 250 -102 250 -100 b 251 -90 252 -80 252 -69 b 249 -53 248 -38 245 -23 b 241 7 228 39 218 73 b 212 90 206 107 200 123 l 198 130 b 197 132 195 133 194 136 b 182 156 170 175 158 194 b 158 197 159 200 160 202 l 162 211 b 169 208 175 208 180 210 b 185 212 190 214 196 217 b 198 218 200 219 202 220 b 203 221 205 222 208 222 b 223 222 235 228 246 237 b 252 241 258 246 266 250 b 272 254 279 258 285 262 l 307 278 b 313 282 320 287 326 292 b 335 302 342 307 354 310 b 367 316 374 329 372 345 z m 151 -2 b 150 -8 149 -14 149 -19 l 147 -37 b 147 -39 147 -41 146 -42 b 145 -44 145 -46 144 -48 b 142 -55 138 -61 146 -70 b 148 -72 148 -73 148 -75 b 147 -84 145 -94 144 -103 b 142 -112 138 -121 132 -128 b 124 -138 122 -150 119 -162 b 117 -175 112 -188 102 -199 b 100 -202 98 -203 98 -207 b 98 -226 88 -237 72 -244 b 69 -245 67 -248 62 -253 b 57 -246 51 -240 58 -232 b 60 -229 62 -224 57 -218 b 54 -215 52 -208 54 -206 b 60 -192 61 -178 58 -161 b 54 -141 50 -119 61 -102 b 68 -90 63 -78 57 -64 b 60 -62 63 -60 68 -58 l 79 -51 b 77 -35 75 -18 69 2 b 66 12 70 25 76 36 b 78 40 79 42 80 45 b 81 48 82 49 82 52 b 82 56 80 60 76 69 b 82 83 88 98 94 112 l 112 156 b 119 152 124 148 125 144 b 126 139 128 134 129 130 b 132 123 133 117 135 110 b 137 103 138 97 141 90 b 142 88 142 85 142 82 b 142 80 142 78 143 76 b 147 56 149 36 152 16 b 152 9 152 3 151 -2 z"},"Q":{"x_min":0,"x_max":656,"ha":656,"o":"m 674 -256 b 668 -249 658 -244 654 -242 b 638 -232 628 -223 616 -212 b 606 -202 596 -192 585 -186 b 578 -182 572 -176 568 -168 b 563 -162 558 -156 551 -151 b 552 -150 552 -148 550 -143 l 541 -129 b 533 -119 523 -108 520 -106 b 514 -101 512 -97 511 -94 b 510 -88 504 -76 498 -68 b 491 -62 486 -50 483 -42 b 482 -38 480 -34 476 -30 b 469 -23 460 -16 459 -7 b 458 1 457 -6 460 2 b 462 4 464 7 468 9 b 472 12 474 13 475 16 b 478 25 478 27 465 30 b 476 34 478 38 484 45 b 485 48 488 52 491 55 b 492 58 493 60 496 60 b 498 60 498 62 495 67 b 497 67 500 67 504 68 b 513 68 516 69 513 78 b 512 82 512 87 512 89 b 513 92 515 93 517 93 b 519 92 522 98 522 101 b 522 104 524 108 528 111 b 532 113 534 116 534 119 b 533 122 536 128 538 130 b 539 131 541 132 542 134 b 546 134 548 136 546 139 b 545 142 545 144 545 147 b 545 149 545 153 544 158 b 542 166 543 168 553 173 b 558 176 561 178 563 180 b 566 182 567 184 568 185 b 568 186 568 186 568 187 b 568 187 568 188 567 188 b 566 189 566 191 566 193 b 562 196 562 198 564 200 b 567 203 568 206 571 208 b 573 212 575 218 574 223 b 573 228 574 233 577 239 b 578 242 579 244 581 246 b 582 248 582 250 582 252 b 581 254 582 256 582 258 b 583 261 582 262 582 263 b 589 266 592 268 592 271 b 592 273 592 278 593 284 b 594 290 594 295 592 299 b 589 308 592 318 594 328 b 595 332 596 338 595 343 b 595 349 596 356 598 362 b 601 374 603 385 603 396 b 602 401 603 406 604 411 l 607 418 b 608 419 608 422 608 424 b 608 426 608 427 606 427 b 604 427 603 428 603 428 b 602 438 602 449 602 460 b 603 471 603 480 601 489 b 600 493 598 498 598 502 l 595 514 b 594 516 595 517 596 518 b 597 518 597 519 597 521 b 596 530 594 539 592 548 b 585 568 579 587 563 603 b 559 608 556 612 553 617 b 552 618 552 620 551 622 b 550 625 549 628 548 628 b 545 638 539 647 533 656 b 526 667 518 676 509 684 b 500 692 492 701 487 710 b 484 712 482 716 480 718 b 478 721 476 724 473 727 b 464 731 461 733 457 741 b 448 754 444 760 430 766 b 426 768 422 769 418 772 b 411 776 403 778 394 778 b 385 778 376 780 368 783 b 361 787 352 790 342 791 b 337 791 332 791 327 792 b 304 796 276 800 253 794 b 238 792 228 788 212 781 b 191 773 172 762 158 744 b 155 741 152 738 148 734 b 145 730 142 727 140 724 b 140 723 140 723 141 722 b 142 722 142 720 141 719 b 140 717 138 715 138 712 b 136 710 134 708 133 706 b 129 700 126 696 122 692 b 113 685 103 677 100 668 b 98 662 95 658 92 653 b 87 646 85 640 82 631 b 80 625 78 621 74 618 b 71 614 68 609 66 603 b 59 580 53 554 48 530 l 44 512 b 42 499 41 490 42 477 b 42 470 39 466 35 465 b 38 459 38 456 37 456 b 35 455 32 453 28 450 b 21 446 18 439 18 432 b 17 425 16 419 16 413 b 16 402 18 387 21 371 b 22 363 21 356 18 348 b 17 348 16 347 16 346 l 13 342 b 17 337 12 334 6 335 l -2 335 b 1 328 -2 324 -5 321 b -7 318 -8 317 -8 314 b -10 310 -6 298 -2 291 b 1 283 1 268 -4 262 b -7 258 -8 253 -8 249 b -8 247 -8 245 -6 244 b -5 242 -4 241 -4 238 b -4 237 -4 235 -5 234 b -6 232 -6 231 -5 228 b -4 215 -2 202 2 189 b 7 177 9 163 8 149 b 8 136 9 124 13 115 b 17 105 20 93 22 81 b 20 81 20 79 23 76 b 26 72 28 69 29 68 b 32 65 35 61 38 55 b 40 51 43 47 47 43 l 56 32 b 62 27 68 19 72 12 b 76 4 82 -2 88 -8 b 114 -31 140 -48 174 -59 b 210 -69 249 -72 285 -75 b 308 -76 330 -72 351 -67 b 370 -62 376 -58 389 -72 b 393 -76 400 -82 408 -88 b 415 -94 421 -101 423 -107 b 424 -109 425 -112 424 -114 b 422 -118 424 -122 431 -128 b 433 -130 436 -132 437 -134 b 445 -143 453 -151 461 -158 b 468 -166 477 -174 485 -183 b 509 -216 542 -237 578 -257 b 586 -259 594 -262 602 -267 b 609 -271 617 -273 624 -276 b 627 -277 630 -278 635 -278 b 644 -279 653 -280 662 -279 b 670 -278 678 -273 678 -266 b 678 -262 677 -259 674 -256 z m 442 203 b 442 202 442 199 442 195 l 442 187 b 442 184 441 181 439 178 b 436 172 432 168 428 163 b 421 154 415 144 412 132 b 410 119 405 111 396 108 b 392 107 388 103 384 99 b 380 103 377 107 374 110 b 369 117 367 124 364 132 b 363 137 362 141 359 146 l 343 177 b 338 188 332 198 328 208 b 326 215 323 221 322 227 b 321 232 319 236 317 239 b 312 246 304 250 287 250 l 267 250 b 259 250 253 251 248 252 b 246 253 244 253 242 253 b 241 252 239 252 238 253 b 237 253 237 254 237 256 b 236 258 235 258 233 258 b 231 258 228 258 225 257 b 222 255 219 254 216 254 b 213 254 211 255 209 256 b 208 257 205 258 202 258 b 197 258 192 256 190 252 b 184 245 185 234 195 222 b 205 208 208 201 212 189 b 213 183 216 178 219 172 b 225 161 232 151 242 141 b 250 130 258 120 263 109 b 268 100 275 88 282 76 b 290 64 300 52 310 49 l 306 45 b 304 43 306 42 308 41 b 308 40 309 38 310 36 b 310 33 313 27 316 23 b 318 19 321 16 323 14 b 326 12 326 8 324 1 b 320 2 316 1 312 -2 b 307 -5 302 -8 297 -11 b 289 -13 282 -17 278 -22 b 272 -28 267 -32 259 -35 b 242 -44 223 -39 207 -29 b 190 -19 176 -5 167 8 b 156 20 148 34 141 50 l 122 96 b 108 132 102 170 116 207 b 112 208 110 211 111 215 b 112 219 111 223 110 228 b 109 237 108 244 106 252 b 103 258 104 266 107 274 b 109 282 111 288 111 293 b 111 299 109 305 107 312 l 105 319 b 105 321 101 323 94 328 b 90 329 88 331 86 332 b 82 334 78 337 76 338 b 73 338 72 342 72 348 b 72 352 74 355 77 358 b 79 360 81 363 83 366 b 89 372 98 386 98 397 b 97 400 97 402 96 403 b 95 406 98 414 102 418 b 104 418 105 420 105 421 b 106 424 104 434 102 437 b 102 442 99 445 93 443 l 76 446 b 96 468 113 490 127 517 b 139 540 152 561 168 582 b 171 586 172 589 174 593 b 178 600 183 605 188 608 b 190 608 192 610 192 612 b 193 613 194 614 194 616 b 193 617 194 618 195 619 b 198 622 201 625 203 626 b 211 634 218 642 224 652 b 230 660 238 668 248 676 b 262 693 280 708 300 722 b 304 725 312 731 322 735 b 331 738 338 741 344 737 b 347 741 349 742 352 743 b 358 743 362 740 368 734 b 371 732 373 729 376 728 b 382 722 388 717 394 712 b 400 708 405 702 409 696 b 420 686 430 673 439 658 l 452 641 b 461 629 466 616 467 603 b 467 598 468 592 468 588 b 469 585 471 582 473 581 b 478 578 479 569 478 565 b 478 562 478 560 479 558 b 480 552 482 547 485 541 b 488 535 490 529 491 523 b 492 521 492 518 492 516 b 491 512 492 505 496 498 b 498 495 499 492 500 488 b 502 478 504 462 498 452 l 494 446 b 493 445 492 442 492 440 b 492 437 492 433 494 429 b 495 425 495 421 494 417 b 493 410 492 404 493 398 b 494 387 492 370 487 361 b 484 356 482 350 482 344 b 482 339 482 335 483 332 b 483 326 478 320 473 317 b 471 314 470 312 469 309 b 468 307 472 296 472 293 b 473 292 474 291 475 289 b 477 286 474 281 473 282 b 472 282 472 281 471 279 b 468 274 468 269 467 264 b 466 258 463 253 459 249 b 450 238 448 226 446 212 b 444 208 443 204 442 203 z"},"w":{"x_min":0,"x_max":605,"ha":605,"o":"m 289 -108 b 303 -115 319 -118 334 -122 b 349 -126 364 -130 378 -139 b 392 -140 408 -142 422 -143 b 452 -147 488 -157 491 -128 b 492 -111 498 -95 503 -79 b 508 -63 512 -48 512 -30 b 512 -27 512 -23 514 -20 b 516 -18 518 -14 518 -11 b 523 3 528 18 532 32 b 537 47 542 61 548 75 b 548 78 549 81 548 84 b 548 87 548 90 548 92 b 548 98 548 102 547 108 b 546 112 546 118 546 122 b 546 132 548 142 557 148 b 558 148 558 149 558 152 b 568 195 576 239 575 286 b 575 315 573 343 567 372 b 561 392 558 412 556 431 b 552 457 550 482 548 508 b 545 521 537 530 526 539 b 508 553 491 543 494 527 b 498 509 500 492 498 474 b 496 457 496 439 498 422 l 498 417 b 498 414 498 412 497 412 b 492 406 490 400 491 392 b 492 385 491 378 490 371 b 487 340 486 308 490 275 b 490 270 490 267 489 264 b 483 250 482 234 482 218 b 483 202 483 185 484 169 b 485 162 483 155 481 149 b 474 133 468 119 463 102 b 459 87 456 70 452 54 b 448 38 443 22 436 8 b 422 -20 407 -45 388 -68 b 375 -83 362 -80 348 -58 b 346 -55 345 -52 344 -50 l 342 -43 b 332 -22 332 -2 329 19 b 328 42 324 66 319 90 b 314 114 312 138 313 161 b 314 168 314 175 315 182 b 316 189 315 196 314 203 b 312 241 315 269 326 298 b 328 302 331 305 330 308 b 329 310 328 313 327 317 b 324 322 319 327 313 329 b 310 330 307 332 304 333 b 292 339 281 346 275 359 b 268 375 253 379 240 382 b 229 385 224 376 218 368 b 215 363 213 358 213 353 b 212 336 206 322 199 308 b 190 289 181 270 174 250 b 164 218 148 191 132 163 b 122 148 110 137 91 134 b 86 138 82 143 82 148 b 78 158 78 167 79 175 b 79 179 78 183 77 188 l 99 328 l 102 335 b 102 337 102 338 103 341 b 106 357 108 372 112 388 b 115 404 121 419 115 436 b 119 440 122 444 127 448 b 130 451 133 455 136 459 b 142 467 137 478 126 483 l 35 523 b 28 526 20 527 17 516 b 19 512 21 508 23 504 b 36 484 38 468 28 449 b 12 413 5 374 8 331 b 8 322 10 313 8 306 b 2 288 -2 270 -2 252 b -4 232 -7 214 -9 195 b -10 190 -12 185 -12 181 b -16 171 -18 162 -14 152 b -12 141 -15 132 -19 125 b -22 122 -23 118 -25 115 b -15 102 -6 98 7 94 b 13 92 20 89 27 87 l 48 79 b 80 70 112 62 144 55 b 168 48 178 72 188 88 b 192 96 197 104 202 112 b 203 114 205 117 208 118 b 210 120 212 122 215 125 b 219 118 222 111 224 107 b 228 97 232 90 232 83 l 232 70 b 231 54 233 41 237 27 b 249 -20 259 -64 289 -108 z"},"-":{"x_min":0,"x_max":613,"ha":613,"o":"m 517 405 b 515 408 514 409 513 412 b 512 414 511 416 510 417 b 508 418 507 420 506 422 b 502 425 498 428 491 428 b 488 428 486 427 485 426 b 478 417 469 416 458 416 b 454 415 451 415 447 415 l 435 413 b 428 411 422 409 415 409 b 406 409 396 410 386 412 b 379 413 372 413 367 412 b 360 410 353 412 348 416 b 347 416 345 415 342 414 b 328 408 313 406 299 410 b 290 413 289 412 287 406 b 279 406 273 406 269 407 b 262 407 257 406 253 405 b 250 404 246 403 240 403 b 237 403 233 403 231 402 l 228 402 b 218 408 208 406 197 402 b 196 402 194 402 193 402 b 192 403 191 403 190 403 l 188 405 b 187 406 185 406 184 406 b 178 405 171 405 165 406 b 152 406 138 408 124 412 b 118 415 111 417 104 418 b 98 418 95 419 89 422 b 80 415 77 402 82 392 b 85 388 87 384 88 380 l 90 367 b 91 365 92 363 95 362 b 97 359 97 358 96 357 b 89 348 93 346 101 342 b 107 340 108 336 110 330 b 111 327 112 323 113 321 b 113 318 117 314 120 314 b 121 314 122 313 122 312 b 125 308 127 308 129 309 b 132 312 138 312 142 311 b 144 310 147 310 149 309 l 150 310 b 154 319 161 315 168 312 b 168 312 170 312 172 312 l 175 312 b 179 312 183 312 188 314 b 192 316 196 315 200 312 b 201 312 201 312 202 312 b 202 312 202 312 202 313 l 203 313 b 217 316 229 318 243 318 b 256 318 266 316 278 327 b 284 321 289 317 296 311 b 296 312 297 313 298 314 b 298 315 298 317 299 318 l 312 321 b 321 322 331 324 344 325 b 357 325 368 326 376 329 b 380 330 383 330 386 329 b 392 327 396 326 400 328 b 404 329 408 330 412 331 b 414 331 416 332 418 332 b 420 333 422 333 423 332 b 429 331 435 331 440 332 b 445 332 450 333 456 332 b 457 332 458 332 459 333 l 462 333 l 473 333 b 476 332 479 332 482 332 b 486 331 489 331 492 330 l 517 330 b 521 330 524 331 528 332 b 535 338 538 343 528 349 b 528 350 527 352 527 353 b 529 358 530 362 528 367 b 525 371 525 375 526 379 b 526 381 526 382 525 384 l 522 388 b 522 391 519 394 517 397 b 514 399 514 402 517 405 z"},"E":{"x_min":0,"x_max":531,"ha":531,"o":"m 564 -19 b 563 -18 563 -18 563 -17 b 562 -12 559 -4 554 3 b 549 10 542 18 538 21 l 538 21 b 528 27 515 23 505 21 l 503 21 b 491 18 476 18 460 18 b 455 17 450 17 445 17 b 439 17 434 16 428 15 b 426 15 423 15 422 14 b 413 13 408 12 401 12 l 393 12 b 389 12 382 13 379 14 b 369 15 359 13 349 11 b 342 9 335 8 329 8 l 314 8 b 309 8 304 8 299 8 l 283 8 b 278 7 272 7 268 7 l 262 7 b 262 6 260 6 258 6 l 257 6 b 256 7 256 7 255 7 l 252 8 b 252 9 250 9 249 9 l 248 9 b 246 8 242 8 240 8 l 232 6 b 222 3 216 3 208 4 b 206 5 203 5 201 6 b 196 6 190 5 188 4 b 184 3 178 1 178 1 b 177 1 176 2 173 2 b 171 3 168 5 166 5 b 163 6 161 7 158 7 b 156 6 153 6 152 6 l 147 6 l 146 7 b 145 8 144 9 143 11 b 137 30 134 49 136 68 b 136 75 137 79 139 85 b 140 87 140 88 141 90 b 141 91 141 92 142 94 b 144 103 143 110 141 118 b 140 122 139 125 139 129 l 141 138 b 142 141 143 144 143 150 b 143 153 142 158 142 162 b 141 162 141 164 141 167 b 140 168 140 168 140 169 b 142 170 144 174 144 178 b 143 178 143 180 143 181 l 143 184 b 146 193 146 198 146 205 l 146 209 b 146 222 149 223 153 226 b 156 227 158 229 158 232 b 158 235 156 238 153 238 l 152 238 b 152 245 152 252 151 258 l 151 264 b 150 267 150 269 151 271 b 151 274 152 278 152 283 l 152 288 b 152 288 152 288 153 289 l 154 289 l 155 290 b 156 290 156 290 157 291 b 160 293 165 295 171 296 b 177 297 182 298 188 301 l 205 306 b 222 312 238 318 258 318 b 267 317 276 317 285 317 b 303 317 318 317 328 320 b 332 321 338 322 342 323 l 349 326 b 352 326 353 327 356 328 b 357 328 358 328 358 328 l 361 328 b 369 331 379 334 390 338 b 412 346 418 363 408 380 l 408 381 b 403 388 397 392 389 394 b 388 395 386 395 384 395 b 382 394 381 394 380 394 l 379 393 b 378 394 378 394 377 394 b 376 394 375 394 374 395 b 370 396 367 397 364 397 b 360 397 356 396 352 395 b 346 392 333 387 326 387 l 308 385 b 303 385 299 384 293 383 b 290 382 288 382 286 382 l 285 382 b 284 381 282 381 281 381 b 279 380 278 380 277 379 b 274 378 272 378 270 378 b 268 378 265 378 262 377 b 247 374 230 378 213 382 b 208 382 202 384 198 385 l 182 388 l 181 388 b 178 388 177 387 174 386 l 172 386 b 171 386 168 387 165 388 b 164 388 164 388 163 388 b 161 389 159 390 158 391 b 158 391 156 392 155 394 b 154 394 154 394 154 395 l 154 397 b 153 398 152 399 152 401 b 151 402 150 404 149 405 b 149 406 149 406 150 407 l 150 408 b 151 412 152 414 152 417 l 152 418 b 152 428 145 432 141 435 b 138 437 138 438 138 438 b 137 442 138 447 138 451 l 142 464 b 144 471 145 478 146 484 b 147 492 147 499 148 506 b 148 518 148 519 151 528 b 153 534 154 539 153 546 b 154 546 154 547 154 548 l 154 552 b 160 565 162 579 164 592 b 165 601 167 609 168 617 b 171 632 181 648 203 654 b 204 654 204 654 204 655 l 205 655 b 219 661 229 663 233 663 b 238 663 239 663 240 662 b 242 658 248 660 251 664 b 252 665 256 664 258 663 b 264 662 268 662 272 662 b 272 663 272 663 273 663 l 281 666 b 283 667 286 668 288 669 b 290 670 292 670 295 670 l 310 668 b 322 665 335 662 348 670 b 355 664 360 664 367 667 b 369 668 372 668 374 668 l 375 668 b 381 669 387 669 392 668 l 402 668 b 416 668 430 668 442 667 b 452 666 460 662 469 658 b 472 657 475 656 478 655 l 486 652 b 487 652 488 651 489 650 b 493 648 498 647 501 646 b 508 643 518 647 518 656 b 518 658 518 659 518 661 b 517 662 517 663 516 665 b 515 666 515 666 515 667 b 515 668 515 668 514 668 b 511 681 507 688 502 697 b 502 698 502 699 502 700 l 500 702 b 499 704 498 706 498 708 b 498 708 497 710 496 712 b 494 719 491 725 486 730 l 486 732 b 485 732 485 732 485 733 l 484 734 b 484 738 478 741 472 738 l 469 738 b 467 741 464 742 460 739 b 453 733 435 737 421 739 b 417 740 413 740 410 741 b 407 742 403 742 401 742 l 394 742 b 391 741 386 740 380 740 b 378 739 374 739 372 740 b 358 742 349 742 337 739 l 319 739 b 315 738 312 738 308 738 b 300 738 292 738 289 737 b 285 736 282 735 275 732 l 275 733 b 272 738 269 738 267 738 l 264 738 b 263 737 262 736 261 734 l 259 734 l 258 734 b 257 733 257 733 256 733 b 255 733 253 734 252 735 b 250 736 248 738 245 738 l 244 738 b 241 738 237 737 232 736 l 229 736 b 227 735 224 735 222 736 b 218 736 213 738 210 738 b 208 739 205 739 202 739 b 196 740 188 739 182 738 b 176 738 172 737 167 737 b 159 737 152 738 146 739 b 139 740 132 742 125 742 b 116 745 108 746 99 747 b 98 748 95 748 92 748 b 86 748 80 748 74 750 l 73 750 b 72 750 71 750 70 751 b 69 752 68 752 67 752 b 60 757 55 758 51 758 l 50 758 b 42 756 38 752 38 748 b 34 740 37 728 45 712 b 48 706 52 698 56 694 b 47 690 38 685 41 669 b 42 665 42 660 42 656 l 45 642 b 48 635 48 628 49 620 b 55 584 57 554 59 525 b 59 516 61 507 62 498 b 64 478 65 458 62 438 l 62 429 l 62 424 b 62 422 62 420 62 418 l 61 418 b 61 417 61 417 60 416 b 58 412 56 409 53 403 l 53 402 b 53 400 54 396 55 392 b 55 391 55 390 56 389 l 56 386 b 56 383 55 382 54 378 b 52 369 53 363 54 358 b 54 355 54 352 55 349 b 56 345 56 342 57 338 b 58 334 58 330 57 326 b 56 323 56 320 56 317 b 55 310 54 303 54 298 b 54 295 54 292 53 289 l 53 288 b 53 286 53 284 52 282 b 52 278 49 272 48 265 b 48 258 46 246 49 242 b 49 241 49 240 50 240 l 50 238 b 50 234 49 232 48 228 b 48 223 47 220 47 218 b 47 212 47 208 46 205 b 45 204 45 202 45 201 b 45 199 45 198 44 195 b 44 192 45 189 46 186 b 46 185 46 184 47 183 b 47 182 47 181 47 179 l 45 172 b 44 172 44 170 44 169 b 43 168 43 167 42 166 l 42 153 b 42 148 42 142 39 137 b 37 130 36 122 35 115 l 35 93 b 34 73 34 54 27 37 b 27 35 26 33 24 32 b 21 26 16 19 18 10 b 12 10 8 9 7 4 b 6 2 4 -1 3 -3 b 2 -10 6 -29 13 -38 b 14 -40 16 -42 18 -42 b 21 -57 31 -85 47 -96 b 52 -99 57 -101 62 -101 b 62 -101 63 -101 64 -100 l 67 -100 b 71 -99 74 -98 78 -94 b 79 -92 80 -92 81 -92 l 82 -91 b 88 -87 93 -83 100 -79 b 103 -77 112 -74 122 -72 l 144 -68 b 145 -68 148 -68 150 -68 b 152 -68 154 -67 158 -66 b 158 -65 158 -65 158 -65 l 160 -65 b 160 -66 160 -66 161 -67 b 162 -68 164 -69 166 -69 b 168 -69 170 -68 171 -67 b 173 -64 188 -61 198 -62 b 200 -62 202 -63 206 -64 l 213 -67 b 218 -68 225 -67 229 -66 b 231 -65 232 -65 235 -64 b 239 -62 243 -62 248 -62 l 248 -62 b 252 -62 262 -63 266 -64 b 278 -65 292 -62 303 -58 l 310 -57 b 311 -57 312 -57 313 -58 l 317 -58 b 318 -58 319 -58 322 -58 b 326 -59 331 -59 338 -58 b 351 -58 357 -56 361 -53 b 364 -52 367 -52 368 -52 l 375 -53 l 382 -56 b 384 -56 386 -56 387 -55 l 388 -55 b 389 -55 391 -54 392 -53 b 392 -54 394 -55 397 -55 l 406 -52 l 414 -52 b 417 -52 419 -52 422 -52 b 425 -52 428 -52 432 -51 b 435 -51 438 -51 441 -52 l 442 -52 l 455 -52 b 459 -52 463 -52 468 -52 l 485 -52 b 491 -53 497 -53 502 -52 b 512 -52 522 -52 529 -56 l 531 -56 b 532 -57 537 -58 537 -58 b 539 -61 542 -62 545 -63 b 554 -66 561 -64 566 -59 b 573 -50 570 -35 564 -19 z"},"s":{"x_min":0,"x_max":369,"ha":369,"o":"m 435 378 b 429 373 423 368 418 368 b 411 368 405 367 401 363 b 396 360 390 358 384 356 b 378 355 372 352 368 348 b 364 344 358 342 351 341 b 335 340 326 331 316 322 b 313 319 311 318 308 317 b 306 316 302 314 300 312 l 292 310 b 290 309 288 308 286 307 b 280 303 271 305 268 311 b 266 321 262 332 268 341 b 274 354 272 368 270 376 b 269 380 268 384 268 388 b 268 390 268 392 269 393 b 270 395 271 397 270 398 b 269 404 268 409 267 415 b 265 420 265 425 266 431 b 267 433 267 437 266 439 b 265 442 265 445 266 448 b 270 458 269 469 267 480 b 266 484 266 489 267 493 b 268 498 268 502 268 506 b 267 511 267 516 267 522 b 267 532 262 541 255 548 b 251 552 248 556 244 560 l 248 563 b 243 566 240 568 237 571 b 233 573 230 575 226 576 b 218 578 212 581 208 586 b 202 590 196 594 190 597 b 188 598 186 599 184 600 l 178 602 b 173 604 170 607 167 609 b 163 612 159 613 155 614 b 152 615 150 616 148 618 b 144 622 139 628 130 622 b 120 618 123 612 124 606 b 125 603 125 600 124 598 b 123 594 123 591 124 587 b 125 582 122 579 117 578 l 122 574 b 122 572 121 569 120 567 l 118 558 b 115 554 113 549 113 545 b 111 544 108 542 106 541 l 98 536 b 94 532 91 528 93 519 b 94 516 92 509 90 507 b 82 498 78 487 80 471 b 81 465 78 462 72 462 b 66 461 62 459 61 450 b 60 448 59 445 58 442 b 56 440 56 437 58 432 b 54 428 52 423 53 418 b 53 411 51 406 47 403 b 44 402 42 400 43 398 b 45 393 45 390 43 388 b 39 383 34 378 32 370 l 27 358 b 25 354 24 349 24 345 b 24 341 22 338 18 335 b 17 335 16 333 15 329 l 12 315 b 12 310 10 305 9 301 b 8 298 8 296 8 293 b 7 291 6 288 6 286 b 7 272 2 260 -4 251 b -11 238 -13 227 -14 212 b -14 210 -14 206 -17 205 b -20 204 -21 202 -20 198 b -19 195 -19 192 -20 189 l -22 184 b -23 182 -25 181 -26 180 b -32 176 -33 168 -33 161 b -33 153 -35 145 -39 138 b -48 122 -64 102 -42 76 b -26 77 -20 88 -14 98 b -8 110 -3 122 6 131 b 13 139 19 148 22 158 b 23 165 26 171 30 177 b 34 182 36 188 37 196 b 37 197 38 198 38 198 b 39 198 40 198 41 199 b 42 202 44 205 47 208 b 48 211 50 214 52 218 l 60 234 b 67 245 70 254 78 272 b 84 288 92 306 98 319 b 101 325 103 329 104 331 b 107 335 108 338 108 342 b 111 345 113 348 116 352 l 123 360 b 126 362 125 365 122 368 b 120 369 118 371 117 372 l 118 375 b 118 375 118 376 119 377 b 121 378 122 378 122 380 l 130 393 b 132 398 136 402 140 407 b 147 414 155 423 146 439 b 148 442 151 443 154 446 l 164 416 b 167 413 170 407 173 400 b 174 396 176 392 178 390 l 179 384 b 180 378 182 373 183 368 b 184 362 184 357 183 352 b 181 343 182 341 192 335 b 188 332 186 331 183 330 b 186 322 188 315 188 308 b 188 300 187 295 184 292 b 185 290 185 288 186 286 b 187 283 187 282 187 280 b 186 275 186 270 185 266 b 184 261 184 256 185 252 b 189 236 182 229 171 223 b 166 221 162 218 161 214 b 158 208 155 202 144 205 b 143 205 142 202 142 202 b 130 190 119 179 107 168 b 104 166 101 163 98 161 b 93 158 92 156 91 153 b 90 146 87 140 82 137 b 76 133 72 128 72 121 b 72 118 68 118 66 118 b 65 117 65 115 66 113 b 66 112 65 110 64 109 b 63 106 62 102 60 100 b 57 93 55 88 53 81 b 52 78 51 74 50 72 b 46 62 41 52 43 38 b 44 36 44 32 43 30 b 42 28 42 24 42 22 b 42 18 43 15 44 13 b 50 3 55 -7 58 -17 b 71 -49 102 -58 129 -68 b 142 -72 156 -78 168 -83 b 169 -84 171 -85 172 -84 b 174 -83 176 -83 178 -83 b 184 -82 190 -81 195 -77 b 205 -70 218 -63 224 -48 b 226 -43 227 -39 228 -35 b 228 -26 232 -18 235 -8 b 237 -3 239 1 242 5 b 251 16 252 30 251 44 b 250 55 252 65 256 75 b 258 85 260 96 259 107 b 258 111 259 115 260 119 b 261 122 261 127 261 131 b 262 138 262 147 262 154 b 262 162 262 169 263 177 b 263 181 268 185 271 188 b 272 191 274 193 277 196 b 280 200 283 203 288 210 b 291 214 295 218 299 221 b 308 226 318 231 328 241 b 338 250 348 259 358 268 l 373 280 b 376 281 378 283 380 286 b 382 288 383 289 384 288 b 390 286 394 287 397 290 b 399 292 402 295 405 296 b 409 297 412 300 413 304 b 414 308 417 311 422 312 l 422 314 b 423 315 425 316 426 316 b 427 316 428 317 429 318 l 438 326 b 442 331 448 336 453 339 b 458 342 462 349 464 358 b 465 362 467 368 468 372 b 459 382 444 383 435 378 z m 182 85 b 178 81 174 75 173 69 b 171 57 169 47 167 40 b 164 32 163 25 157 22 b 158 50 162 74 182 93 b 182 92 182 91 183 89 b 183 88 182 86 182 85 z"},">":{"x_min":0,"x_max":700,"ha":700,"o":"m 574 414 b 570 415 567 417 565 418 l 562 420 b 560 421 559 422 559 422 b 559 428 558 428 554 428 b 546 431 537 435 528 440 b 525 441 523 442 522 441 b 516 440 510 441 506 445 b 496 452 486 455 479 458 b 472 460 465 462 457 462 b 452 462 448 463 446 466 b 443 469 440 471 438 471 b 431 470 428 471 421 473 b 418 474 416 475 413 476 l 405 478 b 403 479 402 479 400 480 b 397 481 392 482 388 483 b 383 483 379 485 377 486 b 375 487 373 487 372 487 l 359 487 l 359 488 b 357 488 355 486 354 485 b 352 487 350 488 349 490 b 348 492 345 493 342 495 b 342 493 340 492 338 490 l 333 482 l 314 502 b 310 508 306 508 302 502 b 298 496 295 498 291 501 l 286 504 b 283 505 281 507 278 508 b 278 512 276 518 267 511 b 266 515 263 518 261 518 b 258 518 255 518 252 519 b 245 521 237 524 228 528 b 223 531 219 533 216 537 l 203 545 b 202 546 202 546 201 546 l 189 552 b 185 554 182 558 180 562 b 179 562 179 563 178 563 b 177 563 172 564 171 565 b 166 568 161 572 157 577 l 145 587 b 141 590 138 594 135 598 b 126 612 112 605 108 595 b 105 582 104 571 103 558 b 103 557 104 555 105 553 b 106 551 107 549 106 547 b 106 542 106 538 105 533 b 104 528 104 523 104 519 b 103 505 105 492 121 486 b 124 485 127 485 128 486 b 132 490 138 492 144 492 b 150 491 155 491 161 492 b 170 492 180 491 190 488 l 197 487 b 198 486 200 485 202 485 b 205 486 208 488 211 491 b 208 493 205 494 203 495 b 202 496 201 496 200 496 b 199 496 198 496 195 497 b 198 501 198 503 201 506 b 201 505 201 505 202 505 l 202 503 b 204 503 206 503 208 504 l 214 504 l 220 504 b 221 500 223 498 226 498 b 228 499 231 498 232 498 b 238 501 242 503 248 506 b 252 503 258 501 252 492 b 255 492 258 494 260 495 b 261 493 262 492 263 489 b 264 491 266 492 267 493 b 268 494 268 496 268 497 b 272 494 275 493 276 493 b 292 492 292 478 295 470 b 296 466 298 462 298 457 l 308 469 b 312 476 317 467 318 463 b 318 462 318 461 319 461 b 327 462 333 463 333 452 b 334 452 334 452 335 452 l 337 452 b 338 451 340 451 342 451 b 344 450 348 448 352 446 b 354 444 357 442 359 442 b 364 439 369 438 374 436 b 384 432 398 430 398 419 b 397 412 400 411 408 413 b 413 416 421 411 428 408 b 432 405 436 403 440 401 b 442 399 444 398 445 399 b 449 400 452 400 453 398 b 454 397 456 395 458 392 b 462 388 466 387 472 384 b 478 382 482 379 488 378 b 484 373 482 371 480 368 b 474 362 470 362 464 361 b 458 359 452 357 447 354 b 443 352 440 351 437 350 b 429 346 422 342 415 339 b 408 336 400 332 392 328 b 389 331 385 332 381 326 b 381 325 381 325 380 325 b 379 325 379 325 379 324 b 373 325 368 324 363 321 b 359 317 354 314 348 312 b 344 311 339 308 334 306 b 332 304 328 303 325 303 b 321 302 318 302 315 299 b 311 296 306 293 301 292 b 291 288 282 285 275 282 b 268 278 261 276 255 275 b 252 274 249 273 247 272 l 240 270 b 238 269 236 268 235 267 b 229 258 222 259 212 259 b 205 259 202 256 195 252 b 188 248 182 244 178 242 l 169 239 b 163 237 160 236 156 233 l 146 228 b 142 228 138 226 134 225 b 127 222 117 218 107 213 b 101 211 96 208 90 205 b 80 199 69 198 57 198 b 52 198 48 197 46 193 b 40 187 44 181 48 178 b 50 175 52 173 52 171 b 55 165 59 159 64 155 b 68 150 72 144 75 138 b 81 128 89 120 98 111 b 108 102 118 116 124 127 b 127 132 132 137 139 139 b 148 142 158 148 168 152 b 172 154 177 155 182 156 b 186 157 189 159 191 163 b 197 164 199 165 200 166 b 202 168 205 168 208 169 b 210 170 212 172 213 174 b 214 177 217 178 219 179 l 228 182 b 229 182 231 183 233 183 b 235 183 237 184 238 185 b 243 188 249 188 255 189 b 261 189 266 192 269 198 l 270 198 b 281 201 289 207 298 212 b 312 222 331 228 342 232 b 348 234 354 237 360 239 b 361 240 362 241 363 242 b 364 243 365 244 366 245 l 375 248 b 382 248 388 250 395 254 b 398 256 402 258 405 259 l 408 262 b 409 262 410 262 411 263 l 426 268 b 431 270 436 272 442 273 l 450 276 b 452 276 454 277 457 278 b 462 280 468 283 473 287 b 478 289 484 291 490 290 b 491 290 492 291 493 292 b 494 293 496 293 497 294 l 499 296 b 502 297 505 298 508 299 b 512 300 515 301 518 302 l 536 309 b 542 312 548 313 556 313 b 562 314 567 316 572 318 b 580 315 588 312 594 310 b 598 318 601 322 601 327 b 601 330 598 334 594 340 b 596 342 598 344 600 347 b 602 348 603 350 606 352 l 600 355 b 607 359 608 375 602 384 b 608 388 612 393 606 400 b 605 401 605 402 605 404 b 605 413 600 416 591 412 b 590 412 583 412 580 413 b 578 413 577 413 574 414 z"},"l":{"x_min":0,"x_max":208,"ha":208,"o":"m 157 508 b 158 512 159 525 159 538 b 159 551 158 563 154 568 b 152 569 152 571 153 573 b 154 576 158 583 159 591 b 161 598 161 605 160 608 b 158 614 156 621 162 627 l 164 632 b 164 634 165 636 166 638 b 167 639 167 643 166 649 b 164 662 162 678 162 693 b 162 701 163 708 165 712 b 165 715 165 720 166 727 b 167 732 167 739 168 746 b 168 752 168 759 169 765 b 170 771 170 776 170 779 b 171 780 172 782 173 788 b 174 792 176 798 177 803 b 178 816 178 828 178 835 l 172 835 b 168 838 162 839 158 840 b 147 840 134 840 124 838 b 113 837 101 838 89 839 b 83 840 77 840 71 841 b 68 842 67 842 65 841 b 62 840 61 840 58 841 b 54 842 50 841 46 838 b 38 831 42 820 46 809 b 49 798 52 792 53 782 l 56 766 b 58 755 61 744 67 743 b 67 741 67 736 66 729 b 65 722 64 717 64 714 l 68 701 b 70 695 70 688 69 688 b 67 683 65 678 65 669 b 64 660 64 655 63 654 b 62 651 62 647 64 642 l 69 625 b 72 614 74 603 68 600 b 67 599 66 597 66 591 b 65 580 66 566 67 554 b 67 542 67 539 62 533 b 60 530 61 527 64 523 b 66 522 67 520 68 518 b 68 512 69 512 69 500 l 69 480 b 68 466 68 452 67 448 b 64 442 63 425 64 422 b 65 418 67 409 67 400 b 67 396 67 392 66 388 b 65 384 65 382 64 382 b 52 371 58 362 65 351 b 68 350 62 334 59 328 b 63 325 65 312 66 298 b 67 285 68 271 70 264 b 70 262 67 255 63 248 b 59 241 55 233 55 228 l 55 218 b 54 212 54 208 54 202 b 53 192 52 182 52 179 b 51 176 51 172 53 169 b 56 166 55 162 52 158 b 48 152 48 134 48 132 b 48 128 49 118 51 108 b 52 102 52 97 52 92 b 52 87 51 82 49 80 b 48 78 47 73 47 66 b 47 52 48 36 48 23 b 49 18 49 14 49 14 b 40 3 43 -5 52 -14 b 53 -15 54 -17 53 -18 b 52 -22 52 -23 52 -30 l 52 -42 b 52 -48 52 -52 52 -56 l 52 -66 b 52 -69 52 -73 52 -78 l 52 -94 b 52 -99 52 -103 52 -108 b 52 -116 52 -118 55 -125 b 58 -132 60 -142 60 -151 b 60 -156 62 -160 67 -164 b 73 -168 81 -173 88 -173 b 94 -172 101 -172 108 -169 b 114 -168 121 -166 128 -165 l 138 -165 b 141 -165 144 -165 148 -164 b 154 -163 159 -163 165 -164 b 176 -167 196 -147 177 -138 b 174 -133 173 -130 171 -127 b 168 -121 165 -116 164 -109 b 163 -108 162 -104 161 -98 b 158 -87 154 -72 151 -57 b 148 -42 147 -39 149 -26 b 150 -20 149 -16 147 -14 b 145 -13 144 -11 144 -5 b 143 0 143 6 143 12 b 143 18 143 22 144 28 l 144 35 b 142 38 142 40 142 44 b 143 52 146 61 149 68 b 150 72 151 75 151 77 b 144 81 143 93 144 107 b 145 119 148 130 149 133 b 150 138 156 155 148 161 b 146 162 145 166 145 172 b 145 172 145 175 144 179 b 143 183 143 188 143 192 b 142 202 142 212 146 218 b 148 221 148 225 147 231 l 144 245 b 138 248 133 262 137 268 b 141 274 146 280 150 287 b 154 294 156 301 154 308 b 150 322 148 331 151 343 l 154 362 b 157 374 158 386 153 389 b 152 390 152 392 152 394 b 152 397 152 400 153 404 b 153 412 156 420 158 423 b 166 432 162 443 158 451 b 156 457 157 462 160 467 b 161 468 161 469 161 472 b 161 476 161 480 160 484 b 159 493 158 502 157 508 z"},"8":{"x_min":0,"x_max":538,"ha":538,"o":"m 11 171 b 15 163 18 156 22 149 b 27 142 30 135 32 128 b 42 107 48 85 67 68 b 71 63 76 59 81 56 b 85 52 90 48 95 43 b 101 38 105 32 111 28 b 117 24 123 20 130 16 b 143 8 153 -1 160 -7 b 163 -9 168 -12 172 -15 l 178 -18 b 179 -18 181 -18 182 -19 l 211 -24 b 221 -26 231 -28 240 -29 l 243 -29 b 248 -28 252 -27 258 -24 b 262 -22 268 -22 272 -22 b 292 -25 301 -15 312 -6 b 322 1 332 8 341 17 b 350 24 359 32 369 38 b 375 41 379 45 382 51 b 383 57 387 61 391 65 b 400 72 401 88 403 100 b 404 103 405 108 405 112 b 404 116 405 120 406 124 b 408 130 408 137 407 142 b 404 148 403 155 404 162 b 407 176 398 192 388 203 b 387 207 386 209 386 212 b 386 214 385 216 384 218 b 380 223 377 229 373 235 b 369 240 366 246 362 252 b 352 264 340 276 328 288 b 322 296 315 303 308 311 b 302 318 295 325 288 332 b 275 346 262 369 283 369 b 284 370 284 372 284 373 b 284 375 285 377 286 378 b 290 384 295 392 301 398 b 302 399 303 401 305 402 l 310 404 b 311 405 312 406 315 407 b 317 407 318 408 318 408 b 317 412 317 416 319 418 b 322 421 329 428 333 435 b 335 438 338 441 342 443 l 350 452 b 352 454 355 455 358 456 b 362 462 364 468 367 473 b 369 479 372 484 377 490 b 383 501 390 510 397 515 b 400 518 402 520 405 523 b 414 539 425 552 442 562 b 443 562 444 564 444 565 b 443 569 445 573 448 576 b 451 578 453 582 455 586 l 463 599 b 466 603 468 608 471 612 l 473 618 b 473 621 474 622 475 625 b 477 629 478 633 481 638 b 482 642 482 646 481 651 b 480 652 480 652 481 652 b 493 646 503 640 514 633 b 518 638 519 640 522 642 b 518 648 515 654 512 660 b 504 671 498 683 493 693 b 491 698 487 702 481 706 b 477 708 472 712 469 717 l 457 730 b 454 732 451 736 448 740 b 446 744 442 748 438 750 b 419 763 400 775 378 781 l 371 783 b 368 783 367 784 366 785 b 358 788 351 789 343 792 b 336 793 328 795 320 798 l 318 798 b 314 799 310 799 306 798 b 302 798 298 797 293 798 b 281 798 268 798 255 801 b 249 802 242 802 237 801 b 230 800 223 802 217 804 b 208 807 199 807 192 804 b 182 798 174 798 162 804 b 161 798 157 796 149 798 b 146 799 142 799 140 798 b 132 794 125 789 117 782 b 114 782 112 781 112 781 b 108 780 105 779 102 779 b 99 779 96 778 93 778 b 88 775 81 772 75 768 b 69 765 62 762 57 759 b 58 757 58 755 58 754 l 58 750 b 55 749 52 748 49 748 b 47 748 44 747 43 745 b 40 732 32 730 23 724 b 16 720 12 708 15 704 b 11 687 7 672 2 658 b 3 656 5 654 6 653 b 8 650 8 648 7 646 b 6 645 5 643 6 642 b 8 629 10 620 13 608 b 19 593 24 580 35 568 b 37 566 38 564 39 562 l 42 553 b 46 545 52 538 59 532 b 67 525 72 518 78 509 b 84 502 91 494 99 488 l 122 465 b 123 464 123 463 124 463 l 127 461 b 131 458 134 454 138 450 b 140 446 143 442 148 439 b 157 429 165 419 174 412 l 168 400 b 166 396 163 392 161 389 b 160 388 158 387 157 386 b 154 385 152 383 152 382 b 149 379 147 378 144 378 b 141 378 138 376 138 373 b 137 371 134 368 131 367 b 128 364 125 362 124 359 b 121 351 115 345 107 342 l 106 341 b 106 340 106 340 105 339 b 104 337 102 333 102 330 b 100 327 98 323 98 320 b 97 318 96 317 95 317 b 86 315 80 309 79 299 b 73 300 70 298 70 293 b 69 289 68 285 65 282 b 62 280 64 275 65 272 b 68 267 66 263 60 262 b 51 262 41 260 40 248 b 40 247 39 246 38 244 b 36 243 34 242 33 240 b 32 238 30 237 28 236 l 30 234 b 32 234 35 234 38 233 b 37 232 35 230 34 229 b 33 228 32 226 32 224 b 32 218 31 212 32 207 b 32 201 30 195 24 191 b 23 190 23 190 24 189 b 25 188 25 188 25 187 b 24 183 22 181 22 180 b 19 178 15 174 11 171 z m 459 671 b 457 670 455 668 453 668 b 450 664 447 662 443 662 b 442 661 440 661 439 660 b 430 654 422 650 418 644 b 416 642 414 639 412 637 b 410 634 408 632 408 629 l 406 628 b 398 625 392 621 388 615 b 383 609 378 604 373 600 b 368 594 362 588 357 583 b 351 578 345 572 339 567 b 337 566 335 564 334 562 b 333 560 332 558 329 556 b 327 552 322 550 318 548 b 306 542 296 537 283 530 b 282 529 282 528 282 528 b 282 527 282 525 282 524 l 278 519 b 277 518 275 515 274 512 b 272 508 269 503 266 501 b 262 498 258 494 254 490 b 248 484 242 479 237 477 b 232 474 228 469 228 465 b 231 458 224 456 221 456 b 215 456 212 454 210 450 b 208 446 205 443 201 442 b 200 442 200 442 201 440 l 201 435 b 182 432 172 437 172 451 l 167 448 b 162 453 158 458 154 462 b 147 472 138 482 128 492 b 123 498 119 502 115 508 b 112 511 112 513 111 516 b 110 518 108 522 107 524 l 103 528 b 102 528 101 530 100 532 b 98 536 97 539 96 542 b 94 547 92 552 91 556 l 82 578 b 81 582 79 585 78 588 l 78 591 b 78 592 78 592 78 593 b 81 607 84 619 88 631 b 88 632 88 632 89 633 l 89 634 b 95 647 99 656 106 667 b 107 668 108 670 111 671 l 117 673 b 118 674 119 675 121 676 b 122 677 123 678 124 679 b 127 686 131 686 137 685 b 139 685 140 685 141 686 b 147 692 154 696 162 699 b 170 702 178 706 183 711 b 187 713 191 716 195 713 b 202 712 208 713 214 717 b 219 719 225 722 231 722 b 237 723 242 725 248 728 b 253 730 259 730 265 729 b 268 728 272 729 274 731 b 277 732 280 732 283 732 b 288 732 291 732 295 732 b 299 731 302 730 307 730 b 316 729 324 729 332 729 b 340 729 348 729 356 728 b 362 728 365 727 368 724 b 369 724 369 724 370 723 b 370 722 370 722 371 722 b 383 719 395 716 408 713 b 421 711 432 710 442 698 b 444 695 446 693 448 692 b 451 691 452 689 454 688 b 462 682 462 675 462 669 l 461 670 b 460 670 460 670 459 671 z m 138 42 b 134 45 131 48 128 50 b 122 54 112 62 118 70 b 119 72 121 76 122 79 l 128 88 b 125 93 123 99 122 105 b 118 116 119 129 127 134 b 130 137 132 140 133 145 b 136 156 140 166 144 177 b 144 178 143 180 142 182 b 138 192 145 208 158 208 b 158 220 166 227 175 232 l 180 240 b 182 242 182 245 183 248 b 183 252 185 256 188 258 b 195 262 202 267 202 274 b 202 278 203 281 205 283 b 208 289 213 294 220 294 b 231 295 230 302 228 310 b 226 318 228 323 233 328 b 236 327 238 327 239 326 b 241 325 242 325 244 324 b 242 333 246 338 255 336 l 259 333 b 260 329 262 327 264 326 b 267 325 269 322 271 320 b 275 316 279 311 282 307 b 289 298 297 288 303 278 b 306 272 309 268 312 262 l 315 260 b 316 259 316 258 315 258 b 314 255 315 252 318 249 b 320 246 322 242 322 239 b 325 233 328 228 329 222 l 334 202 b 335 200 335 198 334 197 b 333 192 332 188 332 185 b 332 181 332 178 330 168 b 329 166 328 164 328 162 b 329 156 332 153 326 151 b 324 150 323 148 323 146 b 323 143 322 141 322 139 b 318 135 315 131 311 128 b 307 123 302 119 299 115 b 298 112 296 111 295 108 b 292 104 289 100 284 95 b 279 90 274 85 271 81 b 269 78 268 77 265 75 b 262 69 252 66 246 65 b 235 61 222 58 206 57 b 203 57 201 56 198 54 b 196 52 193 50 191 49 b 187 48 182 47 179 46 b 175 44 171 43 167 42 b 164 42 162 43 161 44 b 157 46 152 46 146 46 b 143 45 140 45 138 45 z m 150 145 b 148 148 144 150 141 152 l 138 148 l 147 140 z m 149 131 b 144 138 139 140 134 137 b 133 136 132 134 132 133 b 132 132 132 131 132 131 b 135 128 138 127 141 128 b 143 128 146 130 149 131 z"},"\\":{"x_min":0,"x_max":368,"ha":368,"o":"m 92 503 b 94 494 97 483 100 473 b 101 472 102 471 104 470 l 109 467 b 114 464 118 461 118 455 b 121 446 120 437 132 431 b 136 429 139 427 142 424 b 149 418 156 411 153 405 b 148 394 156 389 162 386 b 170 383 176 379 178 373 b 184 362 190 348 194 335 b 196 328 200 322 208 319 b 211 317 214 315 218 314 b 224 311 229 308 235 304 b 238 302 241 300 243 298 b 241 296 238 293 238 292 b 236 289 234 288 232 286 b 235 282 237 277 238 272 b 239 268 242 264 245 262 b 251 258 254 254 255 250 b 256 245 257 240 258 236 b 259 233 261 231 263 229 b 267 226 274 217 271 212 b 267 203 272 201 277 197 b 279 192 282 190 284 188 b 287 186 288 184 291 182 b 293 180 295 178 297 175 b 301 169 306 163 310 158 b 314 153 314 147 311 139 b 313 137 316 133 318 131 b 318 128 320 127 322 126 b 334 123 337 118 337 107 b 337 106 338 106 339 106 b 341 105 342 104 343 103 l 346 101 b 347 100 347 99 346 98 b 342 88 348 82 355 79 b 362 76 363 71 359 64 b 357 58 359 56 362 52 b 367 49 369 46 371 42 b 380 25 385 7 387 -12 b 387 -14 388 -16 389 -18 b 392 -22 394 -28 395 -34 b 396 -40 397 -46 397 -49 b 396 -51 396 -52 397 -55 b 384 -71 412 -80 419 -72 b 423 -68 428 -66 432 -64 b 436 -63 439 -62 442 -60 b 444 -58 448 -57 450 -56 b 456 -53 462 -52 468 -50 b 474 -48 481 -46 487 -43 b 489 -42 492 -40 494 -36 b 498 -29 503 -21 498 -12 b 493 -2 490 5 489 12 b 488 19 487 25 484 32 b 482 38 478 44 473 49 b 468 53 464 59 462 65 b 460 68 459 72 458 76 b 458 82 456 92 449 98 b 448 98 447 99 446 99 b 444 99 442 100 442 101 l 438 105 b 436 106 435 108 436 109 b 438 120 438 128 425 134 b 424 135 423 136 423 137 b 422 138 422 139 422 140 b 421 141 421 142 421 144 b 420 145 419 146 418 146 b 414 148 412 150 412 153 l 412 162 b 412 177 402 184 391 190 b 382 196 380 203 379 212 b 378 218 377 222 374 225 b 372 228 369 232 367 236 b 366 237 366 239 366 243 l 367 243 b 367 243 368 243 368 244 b 366 246 362 248 360 250 b 357 252 353 254 350 255 b 346 258 343 260 344 264 b 344 271 338 277 332 281 b 328 283 327 286 327 288 b 326 294 324 298 322 302 b 319 306 316 309 313 313 b 308 322 302 322 293 325 b 289 326 285 332 282 338 b 281 344 280 351 279 358 b 278 364 277 371 276 377 b 262 380 257 387 260 397 b 255 399 250 403 246 408 b 244 408 243 410 243 414 b 244 427 245 437 229 440 b 227 441 225 442 223 443 b 222 445 220 447 218 448 b 216 450 213 458 212 464 b 211 468 209 471 208 474 b 208 476 208 478 209 479 b 209 481 208 482 208 483 b 204 489 199 492 193 496 l 188 502 b 185 503 186 506 189 509 b 190 512 190 514 189 515 b 185 519 182 522 178 527 l 167 538 b 164 541 162 544 162 548 b 159 553 158 558 159 561 b 160 566 158 569 155 570 b 152 571 149 573 148 576 l 133 590 b 131 591 129 592 128 594 b 126 603 125 609 125 618 b 124 622 122 624 118 624 b 103 624 102 627 102 642 b 103 652 103 663 94 672 b 93 673 92 676 92 679 b 90 685 87 687 82 683 b 82 690 82 696 72 698 b 70 699 69 702 69 706 l 67 718 b 66 718 66 720 66 721 l 63 724 b 62 727 61 728 59 730 b 57 732 55 733 54 736 b 52 738 50 742 48 748 b 50 752 51 755 49 759 b 45 766 41 774 38 783 l 35 797 b 33 802 32 808 31 814 b 30 819 28 824 27 830 b 23 839 12 841 5 834 l 0 832 b -2 831 -4 829 -6 828 b -10 826 -14 822 -18 819 b -27 812 -37 805 -47 802 b -52 799 -58 798 -62 795 b -71 789 -78 786 -84 776 l -89 772 b -88 769 -86 765 -82 761 b -76 751 -68 741 -62 734 b -59 731 -57 729 -56 729 b -52 723 -48 719 -45 715 b -42 711 -39 706 -36 702 b -30 692 -26 686 -17 673 b -9 668 -4 659 -2 650 l 7 622 b 9 619 12 617 13 616 l 19 610 b 22 608 24 604 28 603 b 32 602 35 600 36 598 b 38 591 40 584 41 578 b 41 574 41 571 42 568 b 42 568 43 568 45 570 b 48 568 51 567 53 566 l 62 561 b 63 559 64 558 63 556 b 62 550 62 545 65 540 b 68 530 73 521 81 514 z"},"e":{"x_min":0,"x_max":405,"ha":405,"o":"m 114 111 b 113 113 112 116 111 118 b 109 121 108 123 107 126 b 106 130 103 133 101 138 b 98 141 98 145 101 149 l 108 159 b 112 166 120 172 130 175 b 134 177 139 178 143 181 b 146 182 148 183 151 184 b 153 185 155 186 156 188 b 165 202 178 209 193 215 b 199 218 207 222 209 228 b 216 250 235 261 252 270 b 272 280 282 294 292 311 b 292 313 294 315 295 318 b 296 319 297 321 298 322 b 314 332 321 348 330 363 b 332 367 334 370 335 374 b 336 378 338 382 341 384 b 350 393 352 403 354 414 b 358 433 363 450 373 466 b 377 470 380 478 378 483 b 374 490 373 497 375 502 b 376 508 376 514 375 522 l 368 527 b 365 528 362 529 360 532 b 357 536 352 538 348 539 b 342 540 339 542 337 546 b 329 560 318 566 305 572 b 292 578 281 585 269 592 b 257 598 244 603 232 608 b 222 611 217 609 211 607 b 200 600 189 592 182 582 b 178 575 173 568 168 562 b 162 557 158 550 152 543 b 145 533 136 524 126 517 b 116 509 109 498 105 485 b 104 482 102 481 99 480 b 87 472 74 465 80 446 b 80 445 79 443 78 441 b 69 430 67 418 64 403 b 63 402 62 400 61 399 b 59 398 58 396 57 395 l 48 380 b 45 375 44 368 47 361 b 49 357 45 351 41 348 b 35 344 32 338 31 332 l 28 326 b 27 324 25 322 24 319 b 23 317 22 315 21 313 l 18 306 b 18 301 17 296 17 291 l 14 275 b 13 268 10 260 16 251 b 17 250 18 248 17 247 l 14 240 b 13 236 12 232 11 228 b 8 219 8 210 9 200 b 10 195 9 190 8 186 b 6 175 12 152 18 131 b 25 109 33 88 37 84 b 51 64 72 55 91 46 b 100 42 107 39 111 37 b 115 34 119 32 123 30 b 131 27 139 24 157 18 b 184 9 209 9 232 19 b 236 21 240 22 244 25 b 248 28 252 29 257 30 b 272 33 283 41 288 57 b 300 51 306 56 312 62 b 315 68 320 68 326 69 b 332 70 339 73 342 78 b 346 88 348 92 352 95 b 354 98 355 100 361 102 b 370 107 374 113 378 122 b 379 124 381 126 382 128 b 382 130 384 131 385 131 b 392 131 398 133 399 138 b 401 142 402 148 405 152 b 411 164 415 173 428 179 b 434 182 438 188 438 193 b 439 200 443 204 448 208 b 451 212 454 218 454 225 b 454 226 458 228 460 228 b 466 228 470 229 472 232 b 474 239 477 249 478 260 b 480 270 485 280 492 290 b 495 294 498 299 502 304 b 512 320 520 336 514 358 l 512 367 b 511 369 509 371 506 372 b 499 375 498 371 494 368 b 492 365 490 363 488 362 b 482 360 478 359 472 353 b 470 349 468 344 466 340 l 458 328 b 451 318 443 308 434 299 b 430 294 426 288 422 282 b 418 277 412 272 405 269 b 404 269 402 268 402 266 b 392 249 383 233 367 221 b 359 215 352 209 345 202 b 338 196 330 190 322 184 b 318 181 314 178 310 173 b 306 169 301 166 296 162 b 288 158 280 152 273 145 b 266 138 257 133 246 132 b 239 131 231 125 230 119 b 230 110 227 108 219 106 b 218 106 216 105 214 104 b 211 101 208 99 208 96 b 207 93 206 92 205 92 b 196 88 187 84 179 80 b 172 75 162 72 152 72 l 146 72 b 145 72 144 72 143 72 l 142 72 b 141 72 138 72 135 71 b 131 72 128 72 127 72 b 123 69 122 68 119 70 b 118 71 116 74 113 80 b 111 84 109 88 107 92 b 108 96 109 99 111 102 b 112 104 113 108 114 111 z m 122 272 b 124 277 126 279 127 282 b 128 284 129 286 131 288 b 135 293 139 295 136 304 b 135 308 138 312 142 315 b 151 324 155 336 158 349 b 158 353 160 358 162 362 b 164 365 166 369 168 373 l 171 378 b 172 379 172 381 172 382 b 173 392 178 401 188 407 b 191 408 192 410 192 412 b 192 421 195 428 199 434 b 208 447 216 460 226 477 b 231 484 238 492 245 498 b 248 498 248 501 249 504 l 252 512 b 252 511 254 511 255 511 l 256 511 b 265 503 265 495 262 488 b 262 482 263 474 264 468 b 265 460 264 453 257 449 b 250 445 249 439 249 430 b 250 420 248 412 241 404 b 232 395 226 386 220 373 b 218 368 216 364 213 362 b 210 358 207 355 204 351 b 197 342 189 332 183 322 b 177 312 169 302 162 292 b 158 288 153 284 148 281 b 143 278 138 274 134 270 b 133 269 132 270 130 271 b 128 272 125 272 122 272 z"},"b":{"x_min":0,"x_max":411,"ha":411,"o":"m 382 345 b 378 354 379 359 382 366 b 385 378 385 391 381 403 b 373 428 360 462 329 476 b 313 482 298 488 283 496 b 253 509 208 524 214 492 b 217 476 214 463 210 450 l 202 428 b 198 414 191 398 187 389 b 182 380 176 368 168 356 b 159 344 153 334 152 324 b 152 319 150 313 146 307 l 138 293 b 136 292 132 288 131 285 b 128 286 125 285 124 284 b 121 282 119 278 117 274 b 114 270 112 268 108 271 b 105 272 102 273 100 274 l 100 284 b 100 288 100 292 99 294 b 98 298 98 301 98 304 l 98 348 l 112 365 l 112 407 l 112 418 b 112 422 112 425 114 428 b 118 438 116 448 113 458 b 111 468 108 475 113 484 b 116 489 118 495 117 502 b 116 508 117 514 119 520 b 120 521 119 522 118 524 b 118 525 117 527 116 528 b 112 542 112 553 122 562 b 128 567 129 574 127 583 b 121 599 116 616 127 629 b 128 632 129 634 128 635 b 124 639 122 643 125 647 b 127 649 128 652 129 655 b 130 661 129 672 127 685 b 125 691 126 696 128 699 b 134 709 132 718 128 723 b 130 734 133 745 136 755 l 143 784 b 138 793 132 800 120 800 b 113 800 106 803 100 807 b 80 818 60 827 39 831 b 29 833 22 832 19 828 l 21 825 b 22 824 22 822 22 822 b 27 802 31 781 34 762 b 35 759 34 757 33 755 b 30 751 30 745 32 739 b 33 732 32 725 31 718 b 30 713 29 709 29 705 b 28 698 28 689 28 681 b 28 672 29 664 30 656 b 31 648 32 641 32 635 b 32 628 30 622 26 616 b 23 610 24 602 27 597 b 30 591 32 586 32 581 b 33 571 31 559 28 548 b 27 542 28 537 30 531 b 31 528 31 527 30 526 b 24 520 27 514 29 508 b 32 495 27 491 18 485 b 22 476 22 468 17 463 b 16 462 16 461 16 458 b 22 435 17 418 8 401 b 8 398 10 394 12 392 b 13 388 13 386 12 383 b 7 371 5 358 4 346 b 3 332 2 319 -5 308 b -4 296 -8 275 -13 253 b -18 232 -24 209 -24 198 b -24 186 -26 173 -29 162 b -33 151 -34 138 -33 126 b -32 125 -33 124 -34 123 b -42 108 -42 108 -40 97 b -32 92 -26 89 -18 86 b -11 82 -4 78 2 74 b 8 70 13 67 19 63 b 25 60 29 55 33 49 b 36 46 42 43 48 41 b 50 46 52 51 54 55 b 58 62 60 69 61 74 b 63 82 64 98 62 105 b 61 108 60 111 59 117 l 65 102 b 66 109 69 115 75 119 b 80 123 84 128 87 133 b 94 152 101 165 108 178 b 114 190 123 200 137 216 b 143 223 151 233 159 244 b 176 266 188 285 202 310 b 208 322 218 332 229 341 b 237 347 245 355 252 366 b 260 376 268 385 274 392 b 275 393 278 394 280 394 b 282 394 285 395 288 396 b 286 390 284 384 282 379 b 279 374 279 369 281 365 b 285 357 287 349 285 343 b 283 338 282 331 281 324 b 278 314 276 305 272 296 b 268 287 264 277 262 267 b 260 260 258 253 256 248 b 252 234 248 222 242 213 b 238 208 235 203 232 198 b 227 188 222 178 223 165 b 223 163 222 162 222 161 l 218 157 b 210 149 205 139 204 127 b 202 112 196 101 183 90 b 168 76 154 60 147 40 b 145 36 142 31 138 27 b 127 17 116 7 105 -3 l 72 -33 b 58 -48 41 -53 17 -40 b 10 -36 2 -34 -5 -33 b -8 -33 -9 -34 -11 -35 b -12 -37 -14 -38 -17 -39 b -3 -52 19 -68 42 -81 b 65 -95 88 -108 101 -112 b 120 -118 132 -114 145 -105 b 153 -98 162 -92 171 -85 b 180 -79 188 -71 194 -62 b 200 -53 207 -46 215 -39 b 223 -33 229 -24 232 -13 b 232 -12 232 -11 234 -11 b 239 -9 243 -7 246 -3 b 252 2 256 11 260 18 b 262 22 264 26 267 29 b 270 46 279 60 288 73 b 298 87 307 101 310 118 b 311 121 312 122 315 122 b 328 123 327 133 329 142 b 335 165 340 186 349 206 b 360 232 367 259 371 288 b 373 304 377 317 389 326 b 387 333 385 339 382 345 z m 58 132 b 57 141 58 148 61 150 z"},"%":{"x_min":0,"x_max":498,"ha":498,"o":"m 545 735 b 539 741 533 746 527 752 b 525 753 523 755 521 756 b 514 759 508 762 501 765 b 502 768 503 772 504 774 b 505 777 503 777 498 776 b 497 776 495 777 493 778 b 492 782 490 786 487 787 b 483 788 480 789 478 790 b 463 796 452 788 451 772 b 451 767 448 762 444 759 l 442 758 b 441 757 441 757 440 757 b 441 755 442 753 442 752 b 442 752 442 750 443 749 l 440 747 b 438 746 438 744 438 743 b 437 739 434 736 431 735 b 427 733 424 730 423 726 b 422 722 420 718 418 716 b 415 712 412 709 410 705 b 409 704 408 702 408 701 b 407 698 406 697 405 696 b 398 688 392 681 390 672 b 388 668 387 663 384 661 b 378 655 372 651 369 642 b 368 641 368 639 366 638 b 364 637 363 635 363 634 b 362 622 356 612 346 606 b 343 603 342 602 342 600 b 343 596 341 594 336 594 b 323 594 313 587 317 574 b 318 565 315 560 312 554 b 308 548 304 543 303 537 b 303 537 302 536 302 535 l 294 528 b 292 525 290 522 290 519 b 288 512 284 506 278 502 b 270 498 270 492 271 487 l 271 475 b 268 475 264 475 262 476 b 259 476 257 475 256 474 l 248 462 b 244 458 242 452 242 446 b 241 440 238 434 234 433 b 223 429 217 422 216 412 b 215 405 214 399 212 393 b 208 382 202 365 183 352 b 180 348 178 346 178 344 b 175 332 171 322 161 312 b 160 312 160 311 161 310 l 161 306 b 162 295 159 288 151 284 b 135 278 133 273 140 258 l 125 245 b 122 242 121 240 121 238 b 122 228 118 223 112 217 b 109 212 108 209 108 205 b 108 182 100 170 96 160 b 93 154 89 150 82 148 l 81 146 b 80 142 78 138 77 134 b 73 127 70 119 70 114 b 70 112 69 109 68 108 b 59 95 55 82 56 67 b 56 64 56 62 55 62 b 52 58 51 54 50 50 l 48 37 b 45 29 42 20 49 12 b 50 12 49 7 48 6 b 46 3 45 2 44 -1 l 42 -9 b 39 -22 46 -32 58 -35 b 68 -37 73 -40 77 -46 b 82 -55 92 -58 98 -55 b 108 -52 108 -56 111 -62 l 143 -62 b 146 -52 146 -44 135 -41 b 131 -41 130 -35 130 -31 b 130 -29 129 -27 128 -24 l 130 -22 b 131 -14 132 -7 137 1 b 141 8 142 16 141 24 b 141 25 141 27 142 28 l 143 30 b 144 34 147 38 149 41 b 152 43 154 48 155 52 b 156 58 158 64 161 70 b 162 73 164 77 167 80 b 168 82 168 86 168 90 b 168 91 168 92 168 93 l 170 96 b 174 102 176 108 178 118 b 179 128 185 136 193 143 l 205 156 b 208 158 208 164 206 167 b 203 171 204 175 208 178 b 218 184 217 192 218 200 b 218 206 220 212 225 216 b 238 227 238 234 231 248 b 243 257 252 268 256 282 l 263 289 b 266 291 268 293 271 296 b 270 298 270 300 271 302 b 271 304 271 306 271 308 l 271 318 b 270 321 271 323 272 326 b 278 334 283 340 291 344 b 298 348 305 356 309 365 l 314 378 b 315 382 317 386 318 390 b 321 394 327 400 331 403 b 333 404 334 406 335 408 b 338 418 338 426 339 436 b 348 442 359 448 359 463 b 359 464 360 465 361 466 l 371 478 b 378 486 382 494 386 502 b 388 505 389 508 391 512 l 396 514 b 397 514 398 515 399 516 b 402 517 405 518 409 520 b 418 526 420 532 415 541 b 414 542 414 542 414 543 b 415 546 417 549 418 552 b 420 554 421 556 421 558 b 420 560 421 562 422 564 l 426 569 b 431 576 436 582 442 589 l 457 609 b 457 610 457 611 458 612 b 458 615 459 618 462 621 l 472 632 b 475 636 478 640 482 644 b 488 650 493 656 496 666 b 497 669 498 672 501 676 b 506 682 510 687 514 690 b 516 691 518 692 519 695 l 528 703 l 530 706 b 530 707 531 707 532 708 b 534 710 537 712 539 713 b 542 715 543 717 546 719 b 552 724 552 729 545 735 z m 49 572 b 52 569 56 566 60 562 l 91 542 b 101 534 111 528 122 521 b 142 508 168 502 182 512 b 188 518 195 522 202 527 b 208 531 215 536 221 542 b 227 548 233 552 240 557 b 248 562 253 568 258 576 b 261 583 265 591 270 598 b 272 600 274 603 276 606 b 277 608 278 612 280 614 b 281 617 282 620 282 623 b 282 633 280 644 281 654 b 282 663 285 671 276 677 b 275 678 275 678 275 680 b 274 696 268 705 255 712 b 252 714 250 716 248 718 l 239 723 b 240 724 240 724 240 725 b 240 726 240 726 241 727 b 244 726 248 724 251 723 b 254 722 258 721 260 718 b 266 715 271 716 274 720 b 275 722 276 726 276 728 b 276 731 274 732 272 735 b 266 739 260 742 255 747 b 249 751 244 754 238 758 l 236 761 b 235 762 233 762 232 763 l 220 775 b 216 779 211 782 206 785 b 198 789 188 794 178 788 b 168 782 159 779 149 777 b 143 776 138 773 135 770 b 131 766 127 763 122 761 b 116 758 111 752 105 747 l 102 744 b 102 743 101 742 100 741 l 92 731 b 90 728 88 725 84 722 b 75 717 67 712 67 698 b 67 686 61 674 58 667 b 56 662 53 659 51 657 b 47 652 44 647 44 641 l 42 622 b 42 621 42 619 41 618 b 40 617 39 614 38 612 l 43 593 b 45 587 47 579 49 572 z m 122 618 b 122 624 124 631 128 635 l 133 642 b 141 653 148 663 158 673 l 161 676 b 162 677 164 678 167 681 b 169 682 171 684 172 687 b 173 689 176 690 178 691 b 188 693 199 694 210 695 b 214 696 217 687 214 681 b 212 676 208 671 206 667 b 202 662 201 657 201 651 b 201 650 200 649 199 649 l 197 648 b 196 647 194 644 193 641 b 193 639 193 638 192 638 b 190 635 188 633 185 632 b 182 629 179 628 177 625 l 175 623 b 166 604 150 600 131 598 b 128 598 127 597 122 594 b 122 600 121 603 121 608 b 122 611 122 614 122 618 z m 506 216 b 507 222 505 227 501 231 b 498 233 496 237 494 241 b 492 244 489 248 487 250 b 482 254 478 259 474 263 l 461 277 b 461 277 463 278 464 278 b 463 282 462 286 461 289 b 458 295 457 299 453 302 l 438 309 b 432 312 428 314 423 317 b 403 329 385 338 362 326 b 360 325 358 324 357 324 b 353 323 350 321 347 318 l 340 312 b 337 306 332 300 326 294 b 316 287 307 280 300 269 b 299 267 298 265 297 262 b 296 260 294 258 292 257 b 288 252 286 248 285 243 b 284 238 282 232 279 228 b 278 227 278 224 278 222 b 279 219 279 216 278 213 b 278 209 278 205 277 202 b 276 198 276 193 276 189 b 276 185 277 181 278 177 b 278 172 279 168 278 164 b 278 153 285 147 291 141 b 298 135 305 129 312 125 l 334 110 b 338 108 341 105 343 104 l 358 96 b 368 90 380 84 391 82 b 402 78 416 85 432 92 b 440 97 448 100 457 104 b 458 105 459 106 461 108 b 462 108 463 109 464 109 b 473 109 478 115 482 121 l 484 124 b 484 125 485 125 486 125 b 492 127 496 130 498 135 b 499 140 502 145 505 149 b 507 151 508 153 508 156 l 510 174 b 510 180 510 187 511 192 b 511 193 511 195 512 197 b 512 198 512 199 511 200 b 507 204 505 210 506 216 z m 440 232 b 441 225 438 219 435 213 b 432 210 431 207 429 204 b 425 198 420 193 416 188 b 413 184 411 180 408 177 b 404 172 401 169 394 169 b 392 170 389 167 387 164 b 380 158 373 158 369 159 b 367 159 365 158 362 158 b 354 156 351 158 352 166 b 355 174 358 184 358 195 b 359 198 360 202 362 205 l 378 228 b 380 232 384 236 388 240 b 398 249 408 256 418 262 b 434 271 438 259 440 247 b 441 246 441 245 441 245 b 440 244 440 243 440 242 l 439 242 b 439 239 439 236 440 232 z"}}}
